%FSLAX33Y33*%
%MOMM*%
%ADD10C,3.9878*%
%ADD11C,1.7018*%
%ADD12C,1.4986*%
%ADD13C,0.043*%
%ADD14C,3.2*%
%ADD15C,0.95*%
%ADD16C,1.05*%
%ADD17C,0.7*%
D10*
%LNhole_traces*%
%LNhole component 7ec52513eab4e538*%
G01*
X57500Y20000D03*
D11*
X52420Y20000D03*
X62580Y20000D03*
D12*
X60040Y25080D03*
X53690Y22540D03*
D13*
X57500Y20000D03*
%LNhole component f85e328563b2d15e*%
D14*
X31250Y80000D03*
%LNhole component 43527c7ee55a2564*%
D10*
X22500Y60000D03*
D11*
X17420Y60000D03*
X27580Y60000D03*
D12*
X25040Y65080D03*
X18690Y62540D03*
D13*
X22500Y60000D03*
%LNhole component d72f9bfd8d57e7ca*%
D10*
X30000Y40000D03*
D11*
X24920Y40000D03*
X35080Y40000D03*
D12*
X32540Y45080D03*
X26190Y42540D03*
D13*
X30000Y40000D03*
%LNhole component 2befe2d6c52f61c3*%
D10*
X72500Y60000D03*
D11*
X67420Y60000D03*
X77580Y60000D03*
D12*
X75040Y65080D03*
X68690Y62540D03*
D13*
X72500Y60000D03*
%LNhole component fc323c8432a844fc*%
D10*
X65000Y40000D03*
D11*
X59920Y40000D03*
X70080Y40000D03*
D12*
X67540Y45080D03*
X61190Y42540D03*
D13*
X65000Y40000D03*
%LNhole component 1cbee34cdb0d41a6*%
D10*
X15000Y80000D03*
D11*
X9920Y80000D03*
X20080Y80000D03*
D12*
X17540Y85080D03*
X11190Y82540D03*
D13*
X15000Y80000D03*
%LNhole component e12a0b81499e0431*%
D10*
X80000Y80000D03*
D11*
X74920Y80000D03*
X85080Y80000D03*
D12*
X82540Y85080D03*
X76190Y82540D03*
D13*
X80000Y80000D03*
%LNhole component 9acb38a9a759ea71*%
D14*
X63750Y80000D03*
%LNhole component d7cfb41b6b6d00da*%
D15*
X52580Y83970D03*
X52580Y78890D03*
X52580Y76350D03*
X52580Y73810D03*
X52580Y53490D03*
X50040Y53490D03*
X47500Y53490D03*
X44960Y53490D03*
X42420Y53490D03*
X39880Y86510D03*
X39880Y83970D03*
X39880Y81430D03*
X39880Y78890D03*
X39880Y76350D03*
X39880Y73810D03*
X39880Y71270D03*
X39880Y68730D03*
X39880Y66190D03*
X39880Y63650D03*
X39880Y61110D03*
X39880Y58570D03*
X39880Y56030D03*
X39880Y53490D03*
X55120Y53490D03*
X55120Y56030D03*
X55120Y58570D03*
X55120Y61110D03*
X55120Y63650D03*
X55120Y66190D03*
X55120Y68730D03*
X55120Y71270D03*
X55120Y73810D03*
X55120Y76350D03*
X55120Y78890D03*
X55120Y81430D03*
X55120Y83970D03*
X55120Y86510D03*
%LNhole component 28d3a153ef29f678*%
D16*
X49500Y56190D03*
X49500Y63810D03*
%LNhole component 15bacbb849e6aa73*%
D17*
X36230Y5000D03*
X38770Y5000D03*
%LNhole component 9ee3b852968f6e66*%
X56230Y5000D03*
X58770Y5000D03*
%LNhole component a5ab14b6229aa281*%
D14*
X47500Y40000D03*
%LNhole component 1999d55fcb4c457c*%
D10*
X37500Y20000D03*
D11*
X32420Y20000D03*
X42580Y20000D03*
D12*
X40040Y25080D03*
X33690Y22540D03*
D13*
X37500Y20000D03*
%LNhole component c0f73628fd176817*%
D16*
X45500Y56190D03*
X45500Y63810D03*
M02*