%FSLAX33Y33*%
%MOMM*%
%ADD10C,0.15*%
%ADD11C,0.3*%
%ADD12C,6.55X6.25*%
%ADD13C,0.4*%
%ADD14C,6.55X6.25*%
%ADD15C,0.5*%
D10*
%LNtop silkscreen_traces*%
%LNtop silkscreen component 7ec52513eab4e538*%
G01*
X49499Y11999D02*
X49499Y28001D01*
X65501Y28001*
X65501Y11999*
X49499Y11999*
G36*
X49530Y28406D02*
X49616Y28420D01*
X49622Y28395D01*
X49630Y28374D01*
X49642Y28355D01*
X49657Y28340D01*
X49676Y28327D01*
X49697Y28319D01*
X49722Y28313D01*
X49751Y28312D01*
X49779Y28313D01*
X49803Y28318D01*
X49824Y28326D01*
X49841Y28336D01*
X49853Y28349D01*
X49863Y28363D01*
X49868Y28378D01*
X49870Y28394D01*
X49868Y28408D01*
X49863Y28421D01*
X49855Y28432D01*
X49844Y28441D01*
X49832Y28447D01*
X49813Y28454D01*
X49787Y28462D01*
X49754Y28471D01*
X49710Y28483D01*
X49672Y28494D01*
X49643Y28504D01*
X49620Y28513D01*
X49603Y28523D01*
X49587Y28534D01*
X49574Y28548D01*
X49563Y28562D01*
X49555Y28579D01*
X49549Y28596D01*
X49545Y28613D01*
X49544Y28632D01*
X49545Y28649D01*
X49548Y28665D01*
X49553Y28681D01*
X49560Y28696D01*
X49569Y28710D01*
X49579Y28723D01*
X49590Y28735D01*
X49603Y28745D01*
X49614Y28753D01*
X49628Y28759D01*
X49642Y28765D01*
X49659Y28771D01*
X49677Y28776D01*
X49696Y28779D01*
X49715Y28781D01*
X49735Y28781D01*
X49765Y28780D01*
X49792Y28777D01*
X49818Y28772D01*
X49842Y28764D01*
X49864Y28754D01*
X49882Y28743D01*
X49898Y28731D01*
X49910Y28716D01*
X49921Y28700D01*
X49929Y28681D01*
X49936Y28660D01*
X49941Y28636D01*
X49855Y28624D01*
X49850Y28643D01*
X49843Y28660D01*
X49833Y28674D01*
X49821Y28687D01*
X49805Y28697D01*
X49787Y28704D01*
X49766Y28708D01*
X49741Y28709D01*
X49713Y28708D01*
X49690Y28704D01*
X49670Y28698D01*
X49655Y28689D01*
X49644Y28679D01*
X49636Y28667D01*
X49631Y28655D01*
X49629Y28642D01*
X49630Y28634D01*
X49632Y28626D01*
X49635Y28619D01*
X49640Y28612D01*
X49646Y28605D01*
X49654Y28599D01*
X49663Y28593D01*
X49674Y28588D01*
X49683Y28585D01*
X49700Y28580D01*
X49722Y28574D01*
X49751Y28566D01*
X49794Y28554D01*
X49830Y28543D01*
X49859Y28533D01*
X49881Y28525D01*
X49899Y28516D01*
X49914Y28505D01*
X49928Y28493D01*
X49939Y28479D01*
X49948Y28463D01*
X49955Y28445D01*
X49959Y28425D01*
X49960Y28404D01*
X49959Y28382D01*
X49954Y28361D01*
X49946Y28341D01*
X49935Y28321D01*
X49920Y28302D01*
X49903Y28286D01*
X49883Y28272D01*
X49861Y28261D01*
X49836Y28251D01*
X49809Y28245D01*
X49781Y28241D01*
X49751Y28239D01*
X49704Y28242D01*
X49662Y28250D01*
X49627Y28263D01*
X49597Y28281D01*
X49573Y28305D01*
X49554Y28334D01*
X49539Y28367D01*
X49530Y28406D01*
X49530Y28406D01*
X50160Y28251D02*
X50002Y28770D01*
X50093Y28770D01*
X50175Y28470D01*
X50206Y28359D01*
X50208Y28369D01*
X50214Y28390D01*
X50222Y28422D01*
X50233Y28466D01*
X50315Y28770D01*
X50406Y28770D01*
X50483Y28469D01*
X50509Y28370D01*
X50539Y28470D01*
X50628Y28770D01*
X50713Y28770D01*
X50551Y28251D01*
X50460Y28251D01*
X50377Y28562D01*
X50357Y28650D01*
X50252Y28251D01*
X50160Y28251D01*
X50160Y28251D01*
X50753Y28466D02*
X50753Y28554D01*
X51023Y28554D01*
X51023Y28466D01*
X50753Y28466D01*
X50753Y28466D01*
X51119Y28251D02*
X51119Y28770D01*
X51198Y28770D01*
X51198Y28691D01*
X51213Y28716D01*
X51227Y28737D01*
X51241Y28753D01*
X51254Y28764D01*
X51267Y28772D01*
X51281Y28777D01*
X51295Y28780D01*
X51310Y28781D01*
X51333Y28780D01*
X51355Y28774D01*
X51378Y28766D01*
X51401Y28753D01*
X51370Y28672D01*
X51354Y28680D01*
X51338Y28686D01*
X51322Y28689D01*
X51306Y28691D01*
X51292Y28690D01*
X51279Y28686D01*
X51266Y28681D01*
X51254Y28673D01*
X51244Y28664D01*
X51235Y28653D01*
X51227Y28640D01*
X51221Y28625D01*
X51215Y28601D01*
X51210Y28576D01*
X51208Y28550D01*
X51207Y28523D01*
X51207Y28251D01*
X51119Y28251D01*
X51119Y28251D01*
X51453Y28251D02*
X51453Y28770D01*
X51541Y28770D01*
X51541Y28251D01*
X51453Y28251D01*
X51453Y28251D01*
X51453Y28866D02*
X51453Y28967D01*
X51541Y28967D01*
X51541Y28866D01*
X51453Y28866D01*
X51453Y28866D01*
X51659Y28208D02*
X51744Y28196D01*
X51748Y28177D01*
X51755Y28161D01*
X51763Y28148D01*
X51774Y28138D01*
X51792Y28127D01*
X51813Y28120D01*
X51837Y28115D01*
X51864Y28114D01*
X51892Y28115D01*
X51918Y28120D01*
X51939Y28127D01*
X51958Y28138D01*
X51973Y28151D01*
X51986Y28167D01*
X51995Y28186D01*
X52003Y28206D01*
X52006Y28223D01*
X52008Y28248D01*
X52009Y28280D01*
X52009Y28319D01*
X51968Y28363D01*
X51975Y28371D01*
X51993Y28397D01*
X52006Y28430D01*
X52014Y28470D01*
X52016Y28517D01*
X52014Y28562D01*
X52006Y28600D01*
X51993Y28633D01*
X51974Y28660D01*
X51952Y28682D01*
X51928Y28697D01*
X51901Y28706D01*
X51872Y28709D01*
X51844Y28706D01*
X51818Y28697D01*
X51794Y28682D01*
X51773Y28661D01*
X51755Y28634D01*
X51742Y28602D01*
X51734Y28564D01*
X51732Y28520D01*
X51732Y28520D01*
X51734Y28472D01*
X51742Y28431D01*
X51754Y28398D01*
X51772Y28371D01*
X51794Y28350D01*
X51818Y28336D01*
X51845Y28327D01*
X51874Y28324D01*
X51903Y28327D01*
X51929Y28336D01*
X51954Y28350D01*
X51968Y28363D01*
X52009Y28319D01*
X51978Y28289D01*
X51944Y28268D01*
X51907Y28255D01*
X51865Y28251D01*
X51815Y28256D01*
X51771Y28270D01*
X51732Y28295D01*
X51700Y28328D01*
X51674Y28369D01*
X51656Y28413D01*
X51645Y28461D01*
X51641Y28513D01*
X51643Y28550D01*
X51648Y28585D01*
X51656Y28618D01*
X51668Y28650D01*
X51683Y28680D01*
X51701Y28706D01*
X51722Y28728D01*
X51746Y28747D01*
X51773Y28762D01*
X51802Y28773D01*
X51833Y28779D01*
X51866Y28781D01*
X51910Y28777D01*
X51950Y28763D01*
X51986Y28740D01*
X52017Y28707D01*
X52017Y28770D01*
X52098Y28770D01*
X52098Y28322D01*
X52097Y28265D01*
X52092Y28218D01*
X52085Y28180D01*
X52074Y28150D01*
X52060Y28126D01*
X52042Y28105D01*
X52021Y28086D01*
X51996Y28070D01*
X51967Y28057D01*
X51936Y28048D01*
X51902Y28043D01*
X51864Y28041D01*
X51820Y28043D01*
X51780Y28051D01*
X51745Y28064D01*
X51714Y28082D01*
X51689Y28106D01*
X51672Y28135D01*
X51662Y28169D01*
X51659Y28208D01*
X51659Y28208D01*
X52231Y28251D02*
X52231Y28967D01*
X52319Y28967D01*
X52319Y28710D01*
X52352Y28741D01*
X52389Y28764D01*
X52430Y28777D01*
X52474Y28781D01*
X52502Y28780D01*
X52528Y28776D01*
X52552Y28769D01*
X52574Y28759D01*
X52594Y28746D01*
X52611Y28732D01*
X52625Y28715D01*
X52635Y28696D01*
X52643Y28674D01*
X52649Y28647D01*
X52652Y28616D01*
X52654Y28580D01*
X52654Y28251D01*
X52566Y28251D01*
X52566Y28580D01*
X52564Y28611D01*
X52559Y28637D01*
X52550Y28659D01*
X52537Y28676D01*
X52521Y28689D01*
X52503Y28698D01*
X52481Y28704D01*
X52456Y28706D01*
X52437Y28705D01*
X52418Y28701D01*
X52400Y28694D01*
X52383Y28686D01*
X52367Y28674D01*
X52353Y28662D01*
X52342Y28647D01*
X52334Y28631D01*
X52327Y28612D01*
X52323Y28589D01*
X52320Y28564D01*
X52319Y28535D01*
X52319Y28251D01*
X52231Y28251D01*
X52231Y28251D01*
X52979Y28330D02*
X52992Y28252D01*
X52974Y28249D01*
X52957Y28246D01*
X52941Y28245D01*
X52926Y28244D01*
X52903Y28245D01*
X52883Y28248D01*
X52866Y28253D01*
X52851Y28260D01*
X52839Y28268D01*
X52829Y28277D01*
X52821Y28288D01*
X52814Y28299D01*
X52810Y28315D01*
X52806Y28338D01*
X52804Y28367D01*
X52803Y28403D01*
X52803Y28701D01*
X52739Y28701D01*
X52739Y28770D01*
X52803Y28770D01*
X52803Y28898D01*
X52891Y28951D01*
X52891Y28770D01*
X52979Y28770D01*
X52979Y28701D01*
X52891Y28701D01*
X52891Y28398D01*
X52891Y28381D01*
X52892Y28367D01*
X52893Y28357D01*
X52896Y28350D01*
X52898Y28345D01*
X52902Y28340D01*
X52906Y28336D01*
X52911Y28333D01*
X52916Y28330D01*
X52923Y28328D01*
X52931Y28327D01*
X52941Y28326D01*
X52949Y28327D01*
X52958Y28327D01*
X52968Y28328D01*
X52979Y28330D01*
X52979Y28330D01*
G37*
%LNtop silkscreen component 43527c7ee55a2564*%
X14499Y51999D02*
X14499Y68001D01*
X30501Y68001*
X30501Y51999*
X14499Y51999*
G36*
X14530Y68406D02*
X14616Y68420D01*
X14622Y68395D01*
X14630Y68374D01*
X14642Y68355D01*
X14657Y68340D01*
X14676Y68327D01*
X14697Y68319D01*
X14722Y68313D01*
X14751Y68312D01*
X14779Y68313D01*
X14803Y68318D01*
X14824Y68326D01*
X14841Y68336D01*
X14853Y68349D01*
X14863Y68363D01*
X14868Y68378D01*
X14870Y68394D01*
X14868Y68408D01*
X14863Y68421D01*
X14855Y68432D01*
X14844Y68441D01*
X14832Y68447D01*
X14813Y68454D01*
X14787Y68462D01*
X14754Y68471D01*
X14710Y68483D01*
X14672Y68494D01*
X14643Y68504D01*
X14620Y68513D01*
X14603Y68523D01*
X14587Y68534D01*
X14574Y68548D01*
X14563Y68562D01*
X14555Y68579D01*
X14549Y68596D01*
X14545Y68613D01*
X14544Y68632D01*
X14545Y68649D01*
X14548Y68665D01*
X14553Y68681D01*
X14560Y68696D01*
X14569Y68710D01*
X14579Y68723D01*
X14590Y68735D01*
X14603Y68745D01*
X14614Y68753D01*
X14628Y68759D01*
X14642Y68765D01*
X14659Y68771D01*
X14677Y68776D01*
X14696Y68779D01*
X14715Y68781D01*
X14735Y68781D01*
X14765Y68780D01*
X14792Y68777D01*
X14818Y68772D01*
X14842Y68764D01*
X14864Y68754D01*
X14882Y68743D01*
X14898Y68731D01*
X14910Y68716D01*
X14921Y68700D01*
X14929Y68681D01*
X14936Y68660D01*
X14941Y68636D01*
X14855Y68624D01*
X14850Y68643D01*
X14843Y68660D01*
X14833Y68674D01*
X14821Y68687D01*
X14805Y68697D01*
X14787Y68704D01*
X14766Y68708D01*
X14741Y68709D01*
X14713Y68708D01*
X14690Y68704D01*
X14670Y68698D01*
X14655Y68689D01*
X14644Y68679D01*
X14636Y68667D01*
X14631Y68655D01*
X14629Y68642D01*
X14630Y68634D01*
X14632Y68626D01*
X14635Y68619D01*
X14640Y68612D01*
X14646Y68605D01*
X14654Y68599D01*
X14663Y68593D01*
X14674Y68588D01*
X14683Y68585D01*
X14700Y68580D01*
X14722Y68574D01*
X14751Y68566D01*
X14794Y68554D01*
X14830Y68543D01*
X14859Y68533D01*
X14881Y68525D01*
X14899Y68516D01*
X14914Y68505D01*
X14928Y68493D01*
X14939Y68479D01*
X14948Y68463D01*
X14955Y68445D01*
X14959Y68425D01*
X14960Y68404D01*
X14959Y68382D01*
X14954Y68361D01*
X14946Y68341D01*
X14935Y68321D01*
X14920Y68302D01*
X14903Y68286D01*
X14883Y68272D01*
X14861Y68261D01*
X14836Y68251D01*
X14809Y68245D01*
X14781Y68241D01*
X14751Y68239D01*
X14704Y68242D01*
X14662Y68250D01*
X14627Y68263D01*
X14597Y68281D01*
X14573Y68305D01*
X14554Y68334D01*
X14539Y68367D01*
X14530Y68406D01*
X14530Y68406D01*
X15160Y68251D02*
X15002Y68770D01*
X15093Y68770D01*
X15175Y68470D01*
X15206Y68359D01*
X15208Y68369D01*
X15214Y68390D01*
X15222Y68422D01*
X15233Y68466D01*
X15315Y68770D01*
X15406Y68770D01*
X15483Y68469D01*
X15509Y68370D01*
X15539Y68470D01*
X15628Y68770D01*
X15713Y68770D01*
X15551Y68251D01*
X15460Y68251D01*
X15377Y68562D01*
X15357Y68650D01*
X15252Y68251D01*
X15160Y68251D01*
X15160Y68251D01*
X15753Y68466D02*
X15753Y68554D01*
X16023Y68554D01*
X16023Y68466D01*
X15753Y68466D01*
X15753Y68466D01*
X16458Y68315D02*
X16434Y68296D01*
X16431Y68294D01*
X16397Y68343D01*
X16413Y68357D01*
X16426Y68373D01*
X16437Y68391D01*
X16443Y68408D01*
X16447Y68428D01*
X16450Y68452D01*
X16451Y68479D01*
X16451Y68511D01*
X16451Y68511D01*
X16424Y68502D01*
X16391Y68493D01*
X16352Y68485D01*
X16307Y68478D01*
X16282Y68474D01*
X16261Y68470D01*
X16244Y68465D01*
X16231Y68461D01*
X16220Y68455D01*
X16211Y68449D01*
X16203Y68441D01*
X16196Y68432D01*
X16191Y68422D01*
X16187Y68412D01*
X16185Y68402D01*
X16184Y68390D01*
X16186Y68374D01*
X16191Y68358D01*
X16199Y68344D01*
X16210Y68332D01*
X16225Y68322D01*
X16243Y68314D01*
X16264Y68310D01*
X16288Y68308D01*
X16313Y68310D01*
X16336Y68314D01*
X16358Y68321D01*
X16379Y68331D01*
X16397Y68343D01*
X16431Y68294D01*
X16410Y68280D01*
X16387Y68267D01*
X16364Y68257D01*
X16341Y68249D01*
X16317Y68244D01*
X16293Y68241D01*
X16267Y68239D01*
X16227Y68242D01*
X16192Y68250D01*
X16161Y68263D01*
X16136Y68281D01*
X16116Y68304D01*
X16102Y68329D01*
X16093Y68357D01*
X16090Y68388D01*
X16091Y68407D01*
X16094Y68424D01*
X16100Y68441D01*
X16107Y68457D01*
X16117Y68472D01*
X16127Y68486D01*
X16140Y68498D01*
X16153Y68508D01*
X16167Y68517D01*
X16183Y68525D01*
X16199Y68531D01*
X16216Y68537D01*
X16231Y68540D01*
X16249Y68544D01*
X16270Y68547D01*
X16294Y68550D01*
X16344Y68557D01*
X16387Y68564D01*
X16422Y68572D01*
X16451Y68580D01*
X16451Y68589D01*
X16451Y68595D01*
X16451Y68600D01*
X16451Y68603D01*
X16450Y68628D01*
X16445Y68649D01*
X16437Y68666D01*
X16427Y68679D01*
X16408Y68692D01*
X16385Y68701D01*
X16358Y68707D01*
X16326Y68709D01*
X16297Y68707D01*
X16273Y68703D01*
X16252Y68696D01*
X16235Y68687D01*
X16221Y68674D01*
X16209Y68657D01*
X16199Y68636D01*
X16191Y68610D01*
X16105Y68622D01*
X16112Y68648D01*
X16121Y68672D01*
X16131Y68693D01*
X16144Y68711D01*
X16159Y68727D01*
X16177Y68741D01*
X16198Y68753D01*
X16221Y68763D01*
X16248Y68771D01*
X16276Y68777D01*
X16307Y68780D01*
X16339Y68781D01*
X16371Y68780D01*
X16399Y68778D01*
X16425Y68773D01*
X16447Y68766D01*
X16466Y68758D01*
X16483Y68748D01*
X16497Y68738D01*
X16508Y68727D01*
X16517Y68714D01*
X16525Y68700D01*
X16531Y68684D01*
X16535Y68667D01*
X16537Y68653D01*
X16539Y68635D01*
X16540Y68613D01*
X16540Y68586D01*
X16540Y68468D01*
X16540Y68413D01*
X16541Y68368D01*
X16543Y68335D01*
X16545Y68313D01*
X16549Y68297D01*
X16554Y68282D01*
X16560Y68266D01*
X16568Y68251D01*
X16476Y68251D01*
X16470Y68265D01*
X16465Y68281D01*
X16461Y68297D01*
X16458Y68315D01*
X16458Y68315D01*
X16674Y68251D02*
X16674Y68967D01*
X16762Y68967D01*
X16762Y68251D01*
X16674Y68251D01*
X16674Y68251D01*
X17090Y68330D02*
X17103Y68252D01*
X17085Y68249D01*
X17068Y68246D01*
X17052Y68245D01*
X17036Y68244D01*
X17014Y68245D01*
X16994Y68248D01*
X16977Y68253D01*
X16962Y68260D01*
X16950Y68268D01*
X16940Y68277D01*
X16931Y68288D01*
X16925Y68299D01*
X16920Y68315D01*
X16917Y68338D01*
X16915Y68367D01*
X16914Y68403D01*
X16914Y68701D01*
X16850Y68701D01*
X16850Y68770D01*
X16914Y68770D01*
X16914Y68898D01*
X17002Y68951D01*
X17002Y68770D01*
X17090Y68770D01*
X17090Y68701D01*
X17002Y68701D01*
X17002Y68398D01*
X17002Y68381D01*
X17003Y68367D01*
X17004Y68357D01*
X17006Y68350D01*
X17009Y68345D01*
X17012Y68340D01*
X17017Y68336D01*
X17022Y68333D01*
X17027Y68330D01*
X17034Y68328D01*
X17042Y68327D01*
X17052Y68326D01*
X17059Y68327D01*
X17069Y68327D01*
X17079Y68328D01*
X17090Y68330D01*
X17090Y68330D01*
X17142Y68466D02*
X17142Y68554D01*
X17412Y68554D01*
X17412Y68466D01*
X17142Y68466D01*
X17142Y68466D01*
X17507Y68251D02*
X17507Y68967D01*
X17595Y68967D01*
X17595Y68251D01*
X17507Y68251D01*
X17507Y68251D01*
X18086Y68418D02*
X18177Y68407D01*
X18164Y68369D01*
X18146Y68336D01*
X18124Y68308D01*
X18097Y68283D01*
X18066Y68264D01*
X18031Y68250D01*
X17992Y68242D01*
X17949Y68239D01*
X17895Y68244D01*
X17847Y68257D01*
X17805Y68279D01*
X17769Y68310D01*
X17739Y68348D01*
X17719Y68394D01*
X17706Y68446D01*
X17702Y68506D01*
X17706Y68568D01*
X17719Y68622D01*
X17740Y68669D01*
X17769Y68709D01*
X17805Y68741D01*
X17847Y68763D01*
X17893Y68777D01*
X17944Y68781D01*
X17951Y68781D01*
X17945Y68709D01*
X17916Y68707D01*
X17889Y68699D01*
X17865Y68686D01*
X17843Y68669D01*
X17825Y68647D01*
X17811Y68621D01*
X17802Y68593D01*
X17798Y68560D01*
X17798Y68560D01*
X18087Y68560D01*
X18083Y68591D01*
X18076Y68618D01*
X18066Y68640D01*
X18054Y68658D01*
X18031Y68681D01*
X18006Y68697D01*
X17977Y68706D01*
X17945Y68709D01*
X17951Y68781D01*
X17994Y68777D01*
X18039Y68764D01*
X18079Y68742D01*
X18114Y68711D01*
X18143Y68672D01*
X18163Y68625D01*
X18176Y68572D01*
X18180Y68511D01*
X18180Y68507D01*
X18180Y68502D01*
X18180Y68495D01*
X18179Y68488D01*
X17793Y68488D01*
X17798Y68448D01*
X17807Y68413D01*
X17822Y68382D01*
X17841Y68357D01*
X17864Y68337D01*
X17890Y68323D01*
X17918Y68315D01*
X17949Y68312D01*
X17973Y68313D01*
X17994Y68318D01*
X18014Y68326D01*
X18032Y68337D01*
X18048Y68352D01*
X18063Y68370D01*
X18075Y68392D01*
X18086Y68418D01*
X18086Y68418D01*
X18308Y68251D02*
X18308Y68701D01*
X18231Y68701D01*
X18231Y68770D01*
X18308Y68770D01*
X18308Y68825D01*
X18309Y68849D01*
X18311Y68870D01*
X18314Y68888D01*
X18318Y68903D01*
X18325Y68919D01*
X18335Y68934D01*
X18348Y68947D01*
X18362Y68958D01*
X18380Y68967D01*
X18401Y68974D01*
X18425Y68978D01*
X18452Y68979D01*
X18471Y68979D01*
X18491Y68977D01*
X18512Y68974D01*
X18534Y68970D01*
X18521Y68894D01*
X18507Y68896D01*
X18494Y68897D01*
X18481Y68898D01*
X18469Y68899D01*
X18450Y68898D01*
X18435Y68894D01*
X18422Y68889D01*
X18412Y68882D01*
X18405Y68871D01*
X18400Y68857D01*
X18397Y68839D01*
X18396Y68818D01*
X18396Y68770D01*
X18497Y68770D01*
X18497Y68701D01*
X18396Y68701D01*
X18396Y68251D01*
X18308Y68251D01*
X18308Y68251D01*
X18757Y68330D02*
X18770Y68252D01*
X18752Y68249D01*
X18735Y68246D01*
X18718Y68245D01*
X18703Y68244D01*
X18681Y68245D01*
X18661Y68248D01*
X18644Y68253D01*
X18629Y68260D01*
X18617Y68268D01*
X18607Y68277D01*
X18598Y68288D01*
X18592Y68299D01*
X18587Y68315D01*
X18584Y68338D01*
X18582Y68367D01*
X18581Y68403D01*
X18581Y68701D01*
X18517Y68701D01*
X18517Y68770D01*
X18581Y68770D01*
X18581Y68898D01*
X18669Y68951D01*
X18669Y68770D01*
X18757Y68770D01*
X18757Y68701D01*
X18669Y68701D01*
X18669Y68398D01*
X18669Y68381D01*
X18670Y68367D01*
X18671Y68357D01*
X18673Y68350D01*
X18676Y68345D01*
X18679Y68340D01*
X18684Y68336D01*
X18688Y68333D01*
X18694Y68330D01*
X18701Y68328D01*
X18709Y68327D01*
X18718Y68326D01*
X18726Y68327D01*
X18735Y68327D01*
X18746Y68328D01*
X18757Y68330D01*
X18757Y68330D01*
G37*
%LNtop silkscreen component d72f9bfd8d57e7ca*%
X21999Y31999D02*
X21999Y48001D01*
X38001Y48001*
X38001Y31999*
X21999Y31999*
G36*
X22030Y48406D02*
X22116Y48420D01*
X22122Y48395D01*
X22130Y48374D01*
X22142Y48355D01*
X22157Y48340D01*
X22176Y48327D01*
X22197Y48319D01*
X22222Y48313D01*
X22251Y48312D01*
X22279Y48313D01*
X22303Y48318D01*
X22324Y48326D01*
X22341Y48336D01*
X22353Y48349D01*
X22363Y48363D01*
X22368Y48378D01*
X22370Y48394D01*
X22368Y48408D01*
X22363Y48421D01*
X22355Y48432D01*
X22344Y48441D01*
X22332Y48447D01*
X22313Y48454D01*
X22287Y48462D01*
X22254Y48471D01*
X22210Y48483D01*
X22172Y48494D01*
X22143Y48504D01*
X22120Y48513D01*
X22103Y48523D01*
X22087Y48534D01*
X22074Y48548D01*
X22063Y48562D01*
X22055Y48579D01*
X22049Y48596D01*
X22045Y48613D01*
X22044Y48632D01*
X22045Y48649D01*
X22048Y48665D01*
X22053Y48681D01*
X22060Y48696D01*
X22069Y48710D01*
X22079Y48723D01*
X22090Y48735D01*
X22103Y48745D01*
X22114Y48753D01*
X22128Y48759D01*
X22142Y48765D01*
X22159Y48771D01*
X22177Y48776D01*
X22196Y48779D01*
X22215Y48781D01*
X22235Y48781D01*
X22265Y48780D01*
X22292Y48777D01*
X22318Y48772D01*
X22342Y48764D01*
X22364Y48754D01*
X22382Y48743D01*
X22398Y48731D01*
X22410Y48716D01*
X22421Y48700D01*
X22429Y48681D01*
X22436Y48660D01*
X22441Y48636D01*
X22355Y48624D01*
X22350Y48643D01*
X22343Y48660D01*
X22333Y48674D01*
X22321Y48687D01*
X22305Y48697D01*
X22287Y48704D01*
X22266Y48708D01*
X22241Y48709D01*
X22213Y48708D01*
X22190Y48704D01*
X22170Y48698D01*
X22155Y48689D01*
X22144Y48679D01*
X22136Y48667D01*
X22131Y48655D01*
X22129Y48642D01*
X22130Y48634D01*
X22132Y48626D01*
X22135Y48619D01*
X22140Y48612D01*
X22146Y48605D01*
X22154Y48599D01*
X22163Y48593D01*
X22174Y48588D01*
X22183Y48585D01*
X22200Y48580D01*
X22222Y48574D01*
X22251Y48566D01*
X22294Y48554D01*
X22330Y48543D01*
X22359Y48533D01*
X22381Y48525D01*
X22399Y48516D01*
X22414Y48505D01*
X22428Y48493D01*
X22439Y48479D01*
X22448Y48463D01*
X22455Y48445D01*
X22459Y48425D01*
X22460Y48404D01*
X22459Y48382D01*
X22454Y48361D01*
X22446Y48341D01*
X22435Y48321D01*
X22420Y48302D01*
X22403Y48286D01*
X22383Y48272D01*
X22361Y48261D01*
X22336Y48251D01*
X22309Y48245D01*
X22281Y48241D01*
X22251Y48239D01*
X22204Y48242D01*
X22162Y48250D01*
X22127Y48263D01*
X22097Y48281D01*
X22073Y48305D01*
X22054Y48334D01*
X22039Y48367D01*
X22030Y48406D01*
X22030Y48406D01*
X22660Y48251D02*
X22502Y48770D01*
X22593Y48770D01*
X22675Y48470D01*
X22706Y48359D01*
X22708Y48369D01*
X22714Y48390D01*
X22722Y48422D01*
X22733Y48466D01*
X22815Y48770D01*
X22906Y48770D01*
X22983Y48469D01*
X23009Y48370D01*
X23039Y48470D01*
X23128Y48770D01*
X23213Y48770D01*
X23051Y48251D01*
X22960Y48251D01*
X22877Y48562D01*
X22857Y48650D01*
X22752Y48251D01*
X22660Y48251D01*
X22660Y48251D01*
X23253Y48466D02*
X23253Y48554D01*
X23523Y48554D01*
X23523Y48466D01*
X23253Y48466D01*
X23253Y48466D01*
X23585Y48406D02*
X23672Y48420D01*
X23677Y48395D01*
X23686Y48374D01*
X23697Y48355D01*
X23712Y48340D01*
X23731Y48327D01*
X23753Y48319D01*
X23778Y48313D01*
X23806Y48312D01*
X23834Y48313D01*
X23859Y48318D01*
X23879Y48326D01*
X23896Y48336D01*
X23909Y48349D01*
X23918Y48363D01*
X23923Y48378D01*
X23925Y48394D01*
X23923Y48408D01*
X23919Y48421D01*
X23911Y48432D01*
X23899Y48441D01*
X23887Y48447D01*
X23868Y48454D01*
X23842Y48462D01*
X23809Y48471D01*
X23765Y48483D01*
X23728Y48494D01*
X23698Y48504D01*
X23675Y48513D01*
X23658Y48523D01*
X23642Y48534D01*
X23629Y48548D01*
X23619Y48562D01*
X23610Y48579D01*
X23604Y48596D01*
X23601Y48613D01*
X23599Y48632D01*
X23600Y48649D01*
X23603Y48665D01*
X23608Y48681D01*
X23615Y48696D01*
X23624Y48710D01*
X23634Y48723D01*
X23646Y48735D01*
X23658Y48745D01*
X23670Y48753D01*
X23683Y48759D01*
X23698Y48765D01*
X23714Y48771D01*
X23732Y48776D01*
X23751Y48779D01*
X23770Y48781D01*
X23790Y48781D01*
X23820Y48780D01*
X23848Y48777D01*
X23874Y48772D01*
X23898Y48764D01*
X23919Y48754D01*
X23938Y48743D01*
X23953Y48731D01*
X23966Y48716D01*
X23976Y48700D01*
X23984Y48681D01*
X23991Y48660D01*
X23996Y48636D01*
X23910Y48624D01*
X23906Y48643D01*
X23899Y48660D01*
X23889Y48674D01*
X23876Y48687D01*
X23861Y48697D01*
X23842Y48704D01*
X23821Y48708D01*
X23797Y48709D01*
X23769Y48708D01*
X23745Y48704D01*
X23725Y48698D01*
X23710Y48689D01*
X23699Y48679D01*
X23691Y48667D01*
X23686Y48655D01*
X23684Y48642D01*
X23685Y48634D01*
X23687Y48626D01*
X23690Y48619D01*
X23695Y48612D01*
X23701Y48605D01*
X23709Y48599D01*
X23718Y48593D01*
X23729Y48588D01*
X23739Y48585D01*
X23755Y48580D01*
X23777Y48574D01*
X23806Y48566D01*
X23850Y48554D01*
X23886Y48543D01*
X23915Y48533D01*
X23937Y48525D01*
X23954Y48516D01*
X23969Y48505D01*
X23983Y48493D01*
X23994Y48479D01*
X24004Y48463D01*
X24010Y48445D01*
X24014Y48425D01*
X24015Y48404D01*
X24014Y48382D01*
X24009Y48361D01*
X24001Y48341D01*
X23990Y48321D01*
X23976Y48302D01*
X23958Y48286D01*
X23939Y48272D01*
X23916Y48261D01*
X23891Y48251D01*
X23864Y48245D01*
X23836Y48241D01*
X23806Y48239D01*
X23759Y48242D01*
X23717Y48250D01*
X23682Y48263D01*
X23652Y48281D01*
X23628Y48305D01*
X23609Y48334D01*
X23594Y48367D01*
X23585Y48406D01*
X23585Y48406D01*
X24120Y48251D02*
X24120Y48967D01*
X24208Y48967D01*
X24208Y48710D01*
X24241Y48741D01*
X24277Y48764D01*
X24318Y48777D01*
X24363Y48781D01*
X24391Y48780D01*
X24417Y48776D01*
X24441Y48769D01*
X24463Y48759D01*
X24483Y48746D01*
X24500Y48732D01*
X24513Y48715D01*
X24524Y48696D01*
X24532Y48674D01*
X24538Y48647D01*
X24541Y48616D01*
X24542Y48580D01*
X24542Y48251D01*
X24454Y48251D01*
X24454Y48580D01*
X24453Y48611D01*
X24447Y48637D01*
X24438Y48659D01*
X24426Y48676D01*
X24410Y48689D01*
X24391Y48698D01*
X24370Y48704D01*
X24345Y48706D01*
X24326Y48705D01*
X24307Y48701D01*
X24289Y48694D01*
X24272Y48686D01*
X24256Y48674D01*
X24242Y48662D01*
X24231Y48647D01*
X24222Y48631D01*
X24216Y48612D01*
X24212Y48589D01*
X24209Y48564D01*
X24208Y48535D01*
X24208Y48251D01*
X24120Y48251D01*
X24120Y48251D01*
X24677Y48251D02*
X24677Y48770D01*
X24764Y48770D01*
X24764Y48251D01*
X24677Y48251D01*
X24677Y48251D01*
X24677Y48866D02*
X24677Y48967D01*
X24764Y48967D01*
X24764Y48866D01*
X24677Y48866D01*
X24677Y48866D01*
X24919Y48251D02*
X24919Y48701D01*
X24842Y48701D01*
X24842Y48770D01*
X24919Y48770D01*
X24919Y48825D01*
X24920Y48849D01*
X24922Y48870D01*
X24924Y48888D01*
X24929Y48903D01*
X24936Y48919D01*
X24946Y48934D01*
X24958Y48947D01*
X24973Y48958D01*
X24991Y48967D01*
X25012Y48974D01*
X25036Y48978D01*
X25063Y48979D01*
X25082Y48979D01*
X25102Y48977D01*
X25123Y48974D01*
X25145Y48970D01*
X25132Y48894D01*
X25118Y48896D01*
X25105Y48897D01*
X25092Y48898D01*
X25080Y48899D01*
X25061Y48898D01*
X25046Y48894D01*
X25033Y48889D01*
X25023Y48882D01*
X25016Y48871D01*
X25011Y48857D01*
X25008Y48839D01*
X25007Y48818D01*
X25007Y48770D01*
X25108Y48770D01*
X25108Y48701D01*
X25007Y48701D01*
X25007Y48251D01*
X24919Y48251D01*
X24919Y48251D01*
X25368Y48330D02*
X25381Y48252D01*
X25363Y48249D01*
X25346Y48246D01*
X25329Y48245D01*
X25314Y48244D01*
X25292Y48245D01*
X25272Y48248D01*
X25255Y48253D01*
X25240Y48260D01*
X25228Y48268D01*
X25218Y48277D01*
X25209Y48288D01*
X25203Y48299D01*
X25198Y48315D01*
X25195Y48338D01*
X25193Y48367D01*
X25192Y48403D01*
X25192Y48701D01*
X25128Y48701D01*
X25128Y48770D01*
X25192Y48770D01*
X25192Y48898D01*
X25280Y48951D01*
X25280Y48770D01*
X25368Y48770D01*
X25368Y48701D01*
X25280Y48701D01*
X25280Y48398D01*
X25280Y48381D01*
X25281Y48367D01*
X25282Y48357D01*
X25284Y48350D01*
X25287Y48345D01*
X25290Y48340D01*
X25294Y48336D01*
X25299Y48333D01*
X25305Y48330D01*
X25312Y48328D01*
X25320Y48327D01*
X25329Y48326D01*
X25337Y48327D01*
X25346Y48327D01*
X25357Y48328D01*
X25368Y48330D01*
X25368Y48330D01*
X25420Y48466D02*
X25420Y48554D01*
X25690Y48554D01*
X25690Y48466D01*
X25420Y48466D01*
X25420Y48466D01*
X25785Y48251D02*
X25785Y48967D01*
X25873Y48967D01*
X25873Y48251D01*
X25785Y48251D01*
X25785Y48251D01*
X26364Y48418D02*
X26455Y48407D01*
X26442Y48369D01*
X26424Y48336D01*
X26402Y48308D01*
X26375Y48283D01*
X26344Y48264D01*
X26309Y48250D01*
X26270Y48242D01*
X26227Y48239D01*
X26173Y48244D01*
X26125Y48257D01*
X26083Y48279D01*
X26046Y48310D01*
X26017Y48348D01*
X25996Y48394D01*
X25984Y48446D01*
X25980Y48506D01*
X25984Y48568D01*
X25997Y48622D01*
X26018Y48669D01*
X26047Y48709D01*
X26083Y48741D01*
X26125Y48763D01*
X26171Y48777D01*
X26222Y48781D01*
X26229Y48781D01*
X26223Y48709D01*
X26194Y48707D01*
X26167Y48699D01*
X26143Y48686D01*
X26121Y48669D01*
X26103Y48647D01*
X26089Y48621D01*
X26080Y48593D01*
X26075Y48560D01*
X26075Y48560D01*
X26365Y48560D01*
X26361Y48591D01*
X26354Y48618D01*
X26344Y48640D01*
X26332Y48658D01*
X26309Y48681D01*
X26284Y48697D01*
X26255Y48706D01*
X26223Y48709D01*
X26229Y48781D01*
X26272Y48777D01*
X26316Y48764D01*
X26357Y48742D01*
X26392Y48711D01*
X26421Y48672D01*
X26441Y48625D01*
X26454Y48572D01*
X26458Y48511D01*
X26458Y48507D01*
X26458Y48502D01*
X26457Y48495D01*
X26457Y48488D01*
X26071Y48488D01*
X26075Y48448D01*
X26085Y48413D01*
X26100Y48382D01*
X26119Y48357D01*
X26142Y48337D01*
X26168Y48323D01*
X26196Y48315D01*
X26227Y48312D01*
X26251Y48313D01*
X26272Y48318D01*
X26292Y48326D01*
X26310Y48337D01*
X26326Y48352D01*
X26340Y48370D01*
X26353Y48392D01*
X26364Y48418D01*
X26364Y48418D01*
X26586Y48251D02*
X26586Y48701D01*
X26509Y48701D01*
X26509Y48770D01*
X26586Y48770D01*
X26586Y48825D01*
X26587Y48849D01*
X26589Y48870D01*
X26591Y48888D01*
X26595Y48903D01*
X26603Y48919D01*
X26613Y48934D01*
X26625Y48947D01*
X26640Y48958D01*
X26658Y48967D01*
X26679Y48974D01*
X26703Y48978D01*
X26730Y48979D01*
X26749Y48979D01*
X26769Y48977D01*
X26790Y48974D01*
X26812Y48970D01*
X26799Y48894D01*
X26785Y48896D01*
X26772Y48897D01*
X26759Y48898D01*
X26747Y48899D01*
X26728Y48898D01*
X26713Y48894D01*
X26700Y48889D01*
X26690Y48882D01*
X26683Y48871D01*
X26678Y48857D01*
X26675Y48839D01*
X26674Y48818D01*
X26674Y48770D01*
X26775Y48770D01*
X26775Y48701D01*
X26674Y48701D01*
X26674Y48251D01*
X26586Y48251D01*
X26586Y48251D01*
X27035Y48330D02*
X27048Y48252D01*
X27030Y48249D01*
X27012Y48246D01*
X26996Y48245D01*
X26981Y48244D01*
X26959Y48245D01*
X26939Y48248D01*
X26922Y48253D01*
X26907Y48260D01*
X26895Y48268D01*
X26885Y48277D01*
X26876Y48288D01*
X26870Y48299D01*
X26865Y48315D01*
X26862Y48338D01*
X26860Y48367D01*
X26859Y48403D01*
X26859Y48701D01*
X26795Y48701D01*
X26795Y48770D01*
X26859Y48770D01*
X26859Y48898D01*
X26947Y48951D01*
X26947Y48770D01*
X27035Y48770D01*
X27035Y48701D01*
X26947Y48701D01*
X26947Y48398D01*
X26947Y48381D01*
X26948Y48367D01*
X26949Y48357D01*
X26951Y48350D01*
X26954Y48345D01*
X26957Y48340D01*
X26961Y48336D01*
X26966Y48333D01*
X26972Y48330D01*
X26979Y48328D01*
X26987Y48327D01*
X26996Y48326D01*
X27004Y48327D01*
X27013Y48327D01*
X27024Y48328D01*
X27035Y48330D01*
X27035Y48330D01*
G37*
%LNtop silkscreen component 2befe2d6c52f61c3*%
X64499Y51999D02*
X64499Y68001D01*
X80501Y68001*
X80501Y51999*
X64499Y51999*
G36*
X64530Y68406D02*
X64616Y68420D01*
X64622Y68395D01*
X64630Y68374D01*
X64642Y68355D01*
X64657Y68340D01*
X64676Y68327D01*
X64697Y68319D01*
X64722Y68313D01*
X64751Y68312D01*
X64779Y68313D01*
X64803Y68318D01*
X64824Y68326D01*
X64841Y68336D01*
X64853Y68349D01*
X64863Y68363D01*
X64868Y68378D01*
X64870Y68394D01*
X64868Y68408D01*
X64863Y68421D01*
X64855Y68432D01*
X64844Y68441D01*
X64832Y68447D01*
X64813Y68454D01*
X64787Y68462D01*
X64754Y68471D01*
X64710Y68483D01*
X64672Y68494D01*
X64643Y68504D01*
X64620Y68513D01*
X64603Y68523D01*
X64587Y68534D01*
X64574Y68548D01*
X64563Y68562D01*
X64555Y68579D01*
X64549Y68596D01*
X64545Y68613D01*
X64544Y68632D01*
X64545Y68649D01*
X64548Y68665D01*
X64553Y68681D01*
X64560Y68696D01*
X64569Y68710D01*
X64579Y68723D01*
X64590Y68735D01*
X64603Y68745D01*
X64614Y68753D01*
X64628Y68759D01*
X64642Y68765D01*
X64659Y68771D01*
X64677Y68776D01*
X64696Y68779D01*
X64715Y68781D01*
X64735Y68781D01*
X64765Y68780D01*
X64792Y68777D01*
X64818Y68772D01*
X64842Y68764D01*
X64864Y68754D01*
X64882Y68743D01*
X64898Y68731D01*
X64910Y68716D01*
X64921Y68700D01*
X64929Y68681D01*
X64936Y68660D01*
X64941Y68636D01*
X64855Y68624D01*
X64850Y68643D01*
X64843Y68660D01*
X64833Y68674D01*
X64821Y68687D01*
X64805Y68697D01*
X64787Y68704D01*
X64766Y68708D01*
X64741Y68709D01*
X64713Y68708D01*
X64690Y68704D01*
X64670Y68698D01*
X64655Y68689D01*
X64644Y68679D01*
X64636Y68667D01*
X64631Y68655D01*
X64629Y68642D01*
X64630Y68634D01*
X64632Y68626D01*
X64635Y68619D01*
X64640Y68612D01*
X64646Y68605D01*
X64654Y68599D01*
X64663Y68593D01*
X64674Y68588D01*
X64683Y68585D01*
X64700Y68580D01*
X64722Y68574D01*
X64751Y68566D01*
X64794Y68554D01*
X64830Y68543D01*
X64859Y68533D01*
X64881Y68525D01*
X64899Y68516D01*
X64914Y68505D01*
X64928Y68493D01*
X64939Y68479D01*
X64948Y68463D01*
X64955Y68445D01*
X64959Y68425D01*
X64960Y68404D01*
X64959Y68382D01*
X64954Y68361D01*
X64946Y68341D01*
X64935Y68321D01*
X64920Y68302D01*
X64903Y68286D01*
X64883Y68272D01*
X64861Y68261D01*
X64836Y68251D01*
X64809Y68245D01*
X64781Y68241D01*
X64751Y68239D01*
X64704Y68242D01*
X64662Y68250D01*
X64627Y68263D01*
X64597Y68281D01*
X64573Y68305D01*
X64554Y68334D01*
X64539Y68367D01*
X64530Y68406D01*
X64530Y68406D01*
X65160Y68251D02*
X65002Y68770D01*
X65093Y68770D01*
X65175Y68470D01*
X65206Y68359D01*
X65208Y68369D01*
X65214Y68390D01*
X65222Y68422D01*
X65233Y68466D01*
X65315Y68770D01*
X65406Y68770D01*
X65483Y68469D01*
X65509Y68370D01*
X65539Y68470D01*
X65628Y68770D01*
X65713Y68770D01*
X65551Y68251D01*
X65460Y68251D01*
X65377Y68562D01*
X65357Y68650D01*
X65252Y68251D01*
X65160Y68251D01*
X65160Y68251D01*
X65753Y68466D02*
X65753Y68554D01*
X66023Y68554D01*
X66023Y68466D01*
X65753Y68466D01*
X65753Y68466D01*
X66458Y68315D02*
X66434Y68296D01*
X66431Y68294D01*
X66397Y68343D01*
X66413Y68357D01*
X66426Y68373D01*
X66437Y68391D01*
X66443Y68408D01*
X66447Y68428D01*
X66450Y68452D01*
X66451Y68479D01*
X66451Y68511D01*
X66451Y68511D01*
X66424Y68502D01*
X66391Y68493D01*
X66352Y68485D01*
X66307Y68478D01*
X66282Y68474D01*
X66261Y68470D01*
X66244Y68465D01*
X66231Y68461D01*
X66220Y68455D01*
X66211Y68449D01*
X66203Y68441D01*
X66196Y68432D01*
X66191Y68422D01*
X66187Y68412D01*
X66185Y68402D01*
X66184Y68390D01*
X66186Y68374D01*
X66191Y68358D01*
X66199Y68344D01*
X66210Y68332D01*
X66225Y68322D01*
X66243Y68314D01*
X66264Y68310D01*
X66288Y68308D01*
X66313Y68310D01*
X66336Y68314D01*
X66358Y68321D01*
X66379Y68331D01*
X66397Y68343D01*
X66431Y68294D01*
X66410Y68280D01*
X66387Y68267D01*
X66364Y68257D01*
X66341Y68249D01*
X66317Y68244D01*
X66293Y68241D01*
X66267Y68239D01*
X66227Y68242D01*
X66192Y68250D01*
X66161Y68263D01*
X66136Y68281D01*
X66116Y68304D01*
X66102Y68329D01*
X66093Y68357D01*
X66090Y68388D01*
X66091Y68407D01*
X66094Y68424D01*
X66100Y68441D01*
X66107Y68457D01*
X66117Y68472D01*
X66127Y68486D01*
X66140Y68498D01*
X66153Y68508D01*
X66167Y68517D01*
X66183Y68525D01*
X66199Y68531D01*
X66216Y68537D01*
X66231Y68540D01*
X66249Y68544D01*
X66270Y68547D01*
X66294Y68550D01*
X66344Y68557D01*
X66387Y68564D01*
X66422Y68572D01*
X66451Y68580D01*
X66451Y68589D01*
X66451Y68595D01*
X66451Y68600D01*
X66451Y68603D01*
X66450Y68628D01*
X66445Y68649D01*
X66437Y68666D01*
X66427Y68679D01*
X66408Y68692D01*
X66385Y68701D01*
X66358Y68707D01*
X66326Y68709D01*
X66297Y68707D01*
X66273Y68703D01*
X66252Y68696D01*
X66235Y68687D01*
X66221Y68674D01*
X66209Y68657D01*
X66199Y68636D01*
X66191Y68610D01*
X66105Y68622D01*
X66112Y68648D01*
X66121Y68672D01*
X66131Y68693D01*
X66144Y68711D01*
X66159Y68727D01*
X66177Y68741D01*
X66198Y68753D01*
X66221Y68763D01*
X66248Y68771D01*
X66276Y68777D01*
X66307Y68780D01*
X66339Y68781D01*
X66371Y68780D01*
X66399Y68778D01*
X66425Y68773D01*
X66447Y68766D01*
X66466Y68758D01*
X66483Y68748D01*
X66497Y68738D01*
X66508Y68727D01*
X66517Y68714D01*
X66525Y68700D01*
X66531Y68684D01*
X66535Y68667D01*
X66537Y68653D01*
X66539Y68635D01*
X66540Y68613D01*
X66540Y68586D01*
X66540Y68468D01*
X66540Y68413D01*
X66541Y68368D01*
X66543Y68335D01*
X66545Y68313D01*
X66549Y68297D01*
X66554Y68282D01*
X66560Y68266D01*
X66568Y68251D01*
X66476Y68251D01*
X66470Y68265D01*
X66465Y68281D01*
X66461Y68297D01*
X66458Y68315D01*
X66458Y68315D01*
X66674Y68251D02*
X66674Y68967D01*
X66762Y68967D01*
X66762Y68251D01*
X66674Y68251D01*
X66674Y68251D01*
X67090Y68330D02*
X67103Y68252D01*
X67085Y68249D01*
X67068Y68246D01*
X67052Y68245D01*
X67036Y68244D01*
X67014Y68245D01*
X66994Y68248D01*
X66977Y68253D01*
X66962Y68260D01*
X66950Y68268D01*
X66940Y68277D01*
X66931Y68288D01*
X66925Y68299D01*
X66920Y68315D01*
X66917Y68338D01*
X66915Y68367D01*
X66914Y68403D01*
X66914Y68701D01*
X66850Y68701D01*
X66850Y68770D01*
X66914Y68770D01*
X66914Y68898D01*
X67002Y68951D01*
X67002Y68770D01*
X67090Y68770D01*
X67090Y68701D01*
X67002Y68701D01*
X67002Y68398D01*
X67002Y68381D01*
X67003Y68367D01*
X67004Y68357D01*
X67006Y68350D01*
X67009Y68345D01*
X67012Y68340D01*
X67017Y68336D01*
X67022Y68333D01*
X67027Y68330D01*
X67034Y68328D01*
X67042Y68327D01*
X67052Y68326D01*
X67059Y68327D01*
X67069Y68327D01*
X67079Y68328D01*
X67090Y68330D01*
X67090Y68330D01*
X67142Y68466D02*
X67142Y68554D01*
X67412Y68554D01*
X67412Y68466D01*
X67142Y68466D01*
X67142Y68466D01*
X67508Y68251D02*
X67508Y68770D01*
X67587Y68770D01*
X67587Y68691D01*
X67602Y68716D01*
X67616Y68737D01*
X67630Y68753D01*
X67643Y68764D01*
X67656Y68772D01*
X67670Y68777D01*
X67684Y68780D01*
X67699Y68781D01*
X67722Y68780D01*
X67744Y68774D01*
X67767Y68766D01*
X67790Y68753D01*
X67760Y68672D01*
X67743Y68680D01*
X67727Y68686D01*
X67711Y68689D01*
X67695Y68691D01*
X67681Y68690D01*
X67668Y68686D01*
X67655Y68681D01*
X67643Y68673D01*
X67633Y68664D01*
X67624Y68653D01*
X67616Y68640D01*
X67611Y68625D01*
X67604Y68601D01*
X67600Y68576D01*
X67597Y68550D01*
X67596Y68523D01*
X67596Y68251D01*
X67508Y68251D01*
X67508Y68251D01*
X67843Y68251D02*
X67843Y68770D01*
X67930Y68770D01*
X67930Y68251D01*
X67843Y68251D01*
X67843Y68251D01*
X67843Y68866D02*
X67843Y68967D01*
X67930Y68967D01*
X67930Y68866D01*
X67843Y68866D01*
X67843Y68866D01*
X68048Y68208D02*
X68134Y68196D01*
X68137Y68177D01*
X68144Y68161D01*
X68152Y68148D01*
X68163Y68138D01*
X68181Y68127D01*
X68202Y68120D01*
X68226Y68115D01*
X68253Y68114D01*
X68281Y68115D01*
X68307Y68120D01*
X68329Y68127D01*
X68347Y68138D01*
X68362Y68151D01*
X68375Y68167D01*
X68385Y68186D01*
X68392Y68206D01*
X68395Y68223D01*
X68397Y68248D01*
X68398Y68280D01*
X68398Y68319D01*
X68357Y68363D01*
X68364Y68371D01*
X68382Y68397D01*
X68395Y68430D01*
X68403Y68470D01*
X68405Y68517D01*
X68403Y68562D01*
X68395Y68600D01*
X68382Y68633D01*
X68363Y68660D01*
X68341Y68682D01*
X68317Y68697D01*
X68290Y68706D01*
X68261Y68709D01*
X68233Y68706D01*
X68207Y68697D01*
X68183Y68682D01*
X68162Y68661D01*
X68144Y68634D01*
X68131Y68602D01*
X68123Y68564D01*
X68121Y68520D01*
X68121Y68520D01*
X68123Y68472D01*
X68131Y68431D01*
X68144Y68398D01*
X68161Y68371D01*
X68183Y68350D01*
X68207Y68336D01*
X68234Y68327D01*
X68263Y68324D01*
X68292Y68327D01*
X68319Y68336D01*
X68343Y68350D01*
X68357Y68363D01*
X68398Y68319D01*
X68368Y68289D01*
X68333Y68268D01*
X68296Y68255D01*
X68255Y68251D01*
X68204Y68256D01*
X68160Y68270D01*
X68121Y68295D01*
X68089Y68328D01*
X68063Y68369D01*
X68045Y68413D01*
X68034Y68461D01*
X68030Y68513D01*
X68032Y68550D01*
X68037Y68585D01*
X68046Y68618D01*
X68057Y68650D01*
X68072Y68680D01*
X68090Y68706D01*
X68111Y68728D01*
X68135Y68747D01*
X68162Y68762D01*
X68191Y68773D01*
X68222Y68779D01*
X68255Y68781D01*
X68299Y68777D01*
X68339Y68763D01*
X68375Y68740D01*
X68406Y68707D01*
X68406Y68770D01*
X68488Y68770D01*
X68488Y68322D01*
X68486Y68265D01*
X68481Y68218D01*
X68474Y68180D01*
X68463Y68150D01*
X68449Y68126D01*
X68431Y68105D01*
X68410Y68086D01*
X68385Y68070D01*
X68356Y68057D01*
X68325Y68048D01*
X68291Y68043D01*
X68253Y68041D01*
X68209Y68043D01*
X68169Y68051D01*
X68134Y68064D01*
X68103Y68082D01*
X68078Y68106D01*
X68061Y68135D01*
X68051Y68169D01*
X68048Y68208D01*
X68048Y68208D01*
X68620Y68251D02*
X68620Y68967D01*
X68708Y68967D01*
X68708Y68710D01*
X68741Y68741D01*
X68778Y68764D01*
X68819Y68777D01*
X68863Y68781D01*
X68891Y68780D01*
X68917Y68776D01*
X68941Y68769D01*
X68964Y68759D01*
X68983Y68746D01*
X69000Y68732D01*
X69014Y68715D01*
X69024Y68696D01*
X69032Y68674D01*
X69038Y68647D01*
X69042Y68616D01*
X69043Y68580D01*
X69043Y68251D01*
X68955Y68251D01*
X68955Y68580D01*
X68953Y68611D01*
X68948Y68637D01*
X68939Y68659D01*
X68926Y68676D01*
X68910Y68689D01*
X68892Y68698D01*
X68870Y68704D01*
X68845Y68706D01*
X68826Y68705D01*
X68808Y68701D01*
X68789Y68694D01*
X68772Y68686D01*
X68756Y68674D01*
X68742Y68662D01*
X68731Y68647D01*
X68723Y68631D01*
X68716Y68612D01*
X68712Y68589D01*
X68709Y68564D01*
X68708Y68535D01*
X68708Y68251D01*
X68620Y68251D01*
X68620Y68251D01*
X69368Y68330D02*
X69381Y68252D01*
X69363Y68249D01*
X69346Y68246D01*
X69330Y68245D01*
X69315Y68244D01*
X69292Y68245D01*
X69272Y68248D01*
X69255Y68253D01*
X69240Y68260D01*
X69228Y68268D01*
X69218Y68277D01*
X69210Y68288D01*
X69203Y68299D01*
X69199Y68315D01*
X69195Y68338D01*
X69193Y68367D01*
X69193Y68403D01*
X69193Y68701D01*
X69128Y68701D01*
X69128Y68770D01*
X69193Y68770D01*
X69193Y68898D01*
X69280Y68951D01*
X69280Y68770D01*
X69368Y68770D01*
X69368Y68701D01*
X69280Y68701D01*
X69280Y68398D01*
X69280Y68381D01*
X69281Y68367D01*
X69283Y68357D01*
X69285Y68350D01*
X69287Y68345D01*
X69291Y68340D01*
X69295Y68336D01*
X69300Y68333D01*
X69306Y68330D01*
X69313Y68328D01*
X69321Y68327D01*
X69330Y68326D01*
X69338Y68327D01*
X69347Y68327D01*
X69357Y68328D01*
X69368Y68330D01*
X69368Y68330D01*
G37*
%LNtop silkscreen component fc323c8432a844fc*%
X56999Y31999D02*
X56999Y48001D01*
X73001Y48001*
X73001Y31999*
X56999Y31999*
G36*
X57030Y48406D02*
X57116Y48420D01*
X57122Y48395D01*
X57130Y48374D01*
X57142Y48355D01*
X57157Y48340D01*
X57176Y48327D01*
X57197Y48319D01*
X57222Y48313D01*
X57251Y48312D01*
X57279Y48313D01*
X57303Y48318D01*
X57324Y48326D01*
X57341Y48336D01*
X57353Y48349D01*
X57363Y48363D01*
X57368Y48378D01*
X57370Y48394D01*
X57368Y48408D01*
X57363Y48421D01*
X57355Y48432D01*
X57344Y48441D01*
X57332Y48447D01*
X57313Y48454D01*
X57287Y48462D01*
X57254Y48471D01*
X57210Y48483D01*
X57172Y48494D01*
X57143Y48504D01*
X57120Y48513D01*
X57103Y48523D01*
X57087Y48534D01*
X57074Y48548D01*
X57063Y48562D01*
X57055Y48579D01*
X57049Y48596D01*
X57045Y48613D01*
X57044Y48632D01*
X57045Y48649D01*
X57048Y48665D01*
X57053Y48681D01*
X57060Y48696D01*
X57069Y48710D01*
X57079Y48723D01*
X57090Y48735D01*
X57103Y48745D01*
X57114Y48753D01*
X57128Y48759D01*
X57142Y48765D01*
X57159Y48771D01*
X57177Y48776D01*
X57196Y48779D01*
X57215Y48781D01*
X57235Y48781D01*
X57265Y48780D01*
X57292Y48777D01*
X57318Y48772D01*
X57342Y48764D01*
X57364Y48754D01*
X57382Y48743D01*
X57398Y48731D01*
X57410Y48716D01*
X57421Y48700D01*
X57429Y48681D01*
X57436Y48660D01*
X57441Y48636D01*
X57355Y48624D01*
X57350Y48643D01*
X57343Y48660D01*
X57333Y48674D01*
X57321Y48687D01*
X57305Y48697D01*
X57287Y48704D01*
X57266Y48708D01*
X57241Y48709D01*
X57213Y48708D01*
X57190Y48704D01*
X57170Y48698D01*
X57155Y48689D01*
X57144Y48679D01*
X57136Y48667D01*
X57131Y48655D01*
X57129Y48642D01*
X57130Y48634D01*
X57132Y48626D01*
X57135Y48619D01*
X57140Y48612D01*
X57146Y48605D01*
X57154Y48599D01*
X57163Y48593D01*
X57174Y48588D01*
X57183Y48585D01*
X57200Y48580D01*
X57222Y48574D01*
X57251Y48566D01*
X57294Y48554D01*
X57330Y48543D01*
X57359Y48533D01*
X57381Y48525D01*
X57399Y48516D01*
X57414Y48505D01*
X57428Y48493D01*
X57439Y48479D01*
X57448Y48463D01*
X57455Y48445D01*
X57459Y48425D01*
X57460Y48404D01*
X57459Y48382D01*
X57454Y48361D01*
X57446Y48341D01*
X57435Y48321D01*
X57420Y48302D01*
X57403Y48286D01*
X57383Y48272D01*
X57361Y48261D01*
X57336Y48251D01*
X57309Y48245D01*
X57281Y48241D01*
X57251Y48239D01*
X57204Y48242D01*
X57162Y48250D01*
X57127Y48263D01*
X57097Y48281D01*
X57073Y48305D01*
X57054Y48334D01*
X57039Y48367D01*
X57030Y48406D01*
X57030Y48406D01*
X57660Y48251D02*
X57502Y48770D01*
X57593Y48770D01*
X57675Y48470D01*
X57706Y48359D01*
X57708Y48369D01*
X57714Y48390D01*
X57722Y48422D01*
X57733Y48466D01*
X57815Y48770D01*
X57906Y48770D01*
X57983Y48469D01*
X58009Y48370D01*
X58039Y48470D01*
X58128Y48770D01*
X58213Y48770D01*
X58051Y48251D01*
X57960Y48251D01*
X57877Y48562D01*
X57857Y48650D01*
X57752Y48251D01*
X57660Y48251D01*
X57660Y48251D01*
X58253Y48466D02*
X58253Y48554D01*
X58523Y48554D01*
X58523Y48466D01*
X58253Y48466D01*
X58253Y48466D01*
X58585Y48406D02*
X58672Y48420D01*
X58677Y48395D01*
X58686Y48374D01*
X58697Y48355D01*
X58712Y48340D01*
X58731Y48327D01*
X58753Y48319D01*
X58778Y48313D01*
X58806Y48312D01*
X58834Y48313D01*
X58859Y48318D01*
X58879Y48326D01*
X58896Y48336D01*
X58909Y48349D01*
X58918Y48363D01*
X58923Y48378D01*
X58925Y48394D01*
X58923Y48408D01*
X58919Y48421D01*
X58911Y48432D01*
X58899Y48441D01*
X58887Y48447D01*
X58868Y48454D01*
X58842Y48462D01*
X58809Y48471D01*
X58765Y48483D01*
X58728Y48494D01*
X58698Y48504D01*
X58675Y48513D01*
X58658Y48523D01*
X58642Y48534D01*
X58629Y48548D01*
X58619Y48562D01*
X58610Y48579D01*
X58604Y48596D01*
X58601Y48613D01*
X58599Y48632D01*
X58600Y48649D01*
X58603Y48665D01*
X58608Y48681D01*
X58615Y48696D01*
X58624Y48710D01*
X58634Y48723D01*
X58646Y48735D01*
X58658Y48745D01*
X58670Y48753D01*
X58683Y48759D01*
X58698Y48765D01*
X58714Y48771D01*
X58732Y48776D01*
X58751Y48779D01*
X58770Y48781D01*
X58790Y48781D01*
X58820Y48780D01*
X58848Y48777D01*
X58874Y48772D01*
X58898Y48764D01*
X58919Y48754D01*
X58938Y48743D01*
X58953Y48731D01*
X58966Y48716D01*
X58976Y48700D01*
X58984Y48681D01*
X58991Y48660D01*
X58996Y48636D01*
X58910Y48624D01*
X58906Y48643D01*
X58899Y48660D01*
X58889Y48674D01*
X58876Y48687D01*
X58861Y48697D01*
X58842Y48704D01*
X58821Y48708D01*
X58797Y48709D01*
X58769Y48708D01*
X58745Y48704D01*
X58725Y48698D01*
X58710Y48689D01*
X58699Y48679D01*
X58691Y48667D01*
X58686Y48655D01*
X58684Y48642D01*
X58685Y48634D01*
X58687Y48626D01*
X58690Y48619D01*
X58695Y48612D01*
X58701Y48605D01*
X58709Y48599D01*
X58718Y48593D01*
X58729Y48588D01*
X58739Y48585D01*
X58755Y48580D01*
X58777Y48574D01*
X58806Y48566D01*
X58850Y48554D01*
X58886Y48543D01*
X58915Y48533D01*
X58937Y48525D01*
X58954Y48516D01*
X58969Y48505D01*
X58983Y48493D01*
X58994Y48479D01*
X59004Y48463D01*
X59010Y48445D01*
X59014Y48425D01*
X59015Y48404D01*
X59014Y48382D01*
X59009Y48361D01*
X59001Y48341D01*
X58990Y48321D01*
X58976Y48302D01*
X58958Y48286D01*
X58939Y48272D01*
X58916Y48261D01*
X58891Y48251D01*
X58864Y48245D01*
X58836Y48241D01*
X58806Y48239D01*
X58759Y48242D01*
X58717Y48250D01*
X58682Y48263D01*
X58652Y48281D01*
X58628Y48305D01*
X58609Y48334D01*
X58594Y48367D01*
X58585Y48406D01*
X58585Y48406D01*
X59120Y48251D02*
X59120Y48967D01*
X59208Y48967D01*
X59208Y48710D01*
X59241Y48741D01*
X59277Y48764D01*
X59318Y48777D01*
X59363Y48781D01*
X59391Y48780D01*
X59417Y48776D01*
X59441Y48769D01*
X59463Y48759D01*
X59483Y48746D01*
X59500Y48732D01*
X59513Y48715D01*
X59524Y48696D01*
X59532Y48674D01*
X59538Y48647D01*
X59541Y48616D01*
X59542Y48580D01*
X59542Y48251D01*
X59454Y48251D01*
X59454Y48580D01*
X59453Y48611D01*
X59447Y48637D01*
X59438Y48659D01*
X59426Y48676D01*
X59410Y48689D01*
X59391Y48698D01*
X59370Y48704D01*
X59345Y48706D01*
X59326Y48705D01*
X59307Y48701D01*
X59289Y48694D01*
X59272Y48686D01*
X59256Y48674D01*
X59242Y48662D01*
X59231Y48647D01*
X59222Y48631D01*
X59216Y48612D01*
X59212Y48589D01*
X59209Y48564D01*
X59208Y48535D01*
X59208Y48251D01*
X59120Y48251D01*
X59120Y48251D01*
X59677Y48251D02*
X59677Y48770D01*
X59764Y48770D01*
X59764Y48251D01*
X59677Y48251D01*
X59677Y48251D01*
X59677Y48866D02*
X59677Y48967D01*
X59764Y48967D01*
X59764Y48866D01*
X59677Y48866D01*
X59677Y48866D01*
X59919Y48251D02*
X59919Y48701D01*
X59842Y48701D01*
X59842Y48770D01*
X59919Y48770D01*
X59919Y48825D01*
X59920Y48849D01*
X59922Y48870D01*
X59924Y48888D01*
X59929Y48903D01*
X59936Y48919D01*
X59946Y48934D01*
X59958Y48947D01*
X59973Y48958D01*
X59991Y48967D01*
X60012Y48974D01*
X60036Y48978D01*
X60063Y48979D01*
X60082Y48979D01*
X60102Y48977D01*
X60123Y48974D01*
X60145Y48970D01*
X60132Y48894D01*
X60118Y48896D01*
X60105Y48897D01*
X60092Y48898D01*
X60080Y48899D01*
X60061Y48898D01*
X60046Y48894D01*
X60033Y48889D01*
X60023Y48882D01*
X60016Y48871D01*
X60011Y48857D01*
X60008Y48839D01*
X60007Y48818D01*
X60007Y48770D01*
X60108Y48770D01*
X60108Y48701D01*
X60007Y48701D01*
X60007Y48251D01*
X59919Y48251D01*
X59919Y48251D01*
X60368Y48330D02*
X60381Y48252D01*
X60363Y48249D01*
X60346Y48246D01*
X60329Y48245D01*
X60314Y48244D01*
X60292Y48245D01*
X60272Y48248D01*
X60255Y48253D01*
X60240Y48260D01*
X60228Y48268D01*
X60218Y48277D01*
X60209Y48288D01*
X60203Y48299D01*
X60198Y48315D01*
X60195Y48338D01*
X60193Y48367D01*
X60192Y48403D01*
X60192Y48701D01*
X60128Y48701D01*
X60128Y48770D01*
X60192Y48770D01*
X60192Y48898D01*
X60280Y48951D01*
X60280Y48770D01*
X60368Y48770D01*
X60368Y48701D01*
X60280Y48701D01*
X60280Y48398D01*
X60280Y48381D01*
X60281Y48367D01*
X60282Y48357D01*
X60284Y48350D01*
X60287Y48345D01*
X60290Y48340D01*
X60294Y48336D01*
X60299Y48333D01*
X60305Y48330D01*
X60312Y48328D01*
X60320Y48327D01*
X60329Y48326D01*
X60337Y48327D01*
X60346Y48327D01*
X60357Y48328D01*
X60368Y48330D01*
X60368Y48330D01*
X60420Y48466D02*
X60420Y48554D01*
X60690Y48554D01*
X60690Y48466D01*
X60420Y48466D01*
X60420Y48466D01*
X60786Y48251D02*
X60786Y48770D01*
X60865Y48770D01*
X60865Y48691D01*
X60880Y48716D01*
X60894Y48737D01*
X60908Y48753D01*
X60921Y48764D01*
X60934Y48772D01*
X60948Y48777D01*
X60962Y48780D01*
X60977Y48781D01*
X61000Y48780D01*
X61022Y48774D01*
X61045Y48766D01*
X61068Y48753D01*
X61037Y48672D01*
X61021Y48680D01*
X61005Y48686D01*
X60989Y48689D01*
X60973Y48691D01*
X60959Y48690D01*
X60946Y48686D01*
X60933Y48681D01*
X60921Y48673D01*
X60911Y48664D01*
X60902Y48653D01*
X60894Y48640D01*
X60888Y48625D01*
X60882Y48601D01*
X60877Y48576D01*
X60875Y48550D01*
X60874Y48523D01*
X60874Y48251D01*
X60786Y48251D01*
X60786Y48251D01*
X61120Y48251D02*
X61120Y48770D01*
X61208Y48770D01*
X61208Y48251D01*
X61120Y48251D01*
X61120Y48251D01*
X61120Y48866D02*
X61120Y48967D01*
X61208Y48967D01*
X61208Y48866D01*
X61120Y48866D01*
X61120Y48866D01*
X61326Y48208D02*
X61411Y48196D01*
X61415Y48177D01*
X61421Y48161D01*
X61430Y48148D01*
X61441Y48138D01*
X61459Y48127D01*
X61480Y48120D01*
X61504Y48115D01*
X61531Y48114D01*
X61559Y48115D01*
X61585Y48120D01*
X61606Y48127D01*
X61625Y48138D01*
X61640Y48151D01*
X61653Y48167D01*
X61662Y48186D01*
X61670Y48206D01*
X61673Y48223D01*
X61675Y48248D01*
X61676Y48280D01*
X61676Y48319D01*
X61635Y48363D01*
X61642Y48371D01*
X61660Y48397D01*
X61673Y48430D01*
X61681Y48470D01*
X61683Y48517D01*
X61681Y48562D01*
X61673Y48600D01*
X61660Y48633D01*
X61641Y48660D01*
X61619Y48682D01*
X61595Y48697D01*
X61568Y48706D01*
X61539Y48709D01*
X61511Y48706D01*
X61485Y48697D01*
X61461Y48682D01*
X61440Y48661D01*
X61422Y48634D01*
X61409Y48602D01*
X61401Y48564D01*
X61399Y48520D01*
X61399Y48520D01*
X61401Y48472D01*
X61409Y48431D01*
X61421Y48398D01*
X61439Y48371D01*
X61461Y48350D01*
X61485Y48336D01*
X61512Y48327D01*
X61541Y48324D01*
X61570Y48327D01*
X61596Y48336D01*
X61621Y48350D01*
X61635Y48363D01*
X61676Y48319D01*
X61645Y48289D01*
X61611Y48268D01*
X61574Y48255D01*
X61532Y48251D01*
X61482Y48256D01*
X61438Y48270D01*
X61399Y48295D01*
X61367Y48328D01*
X61341Y48369D01*
X61323Y48413D01*
X61312Y48461D01*
X61308Y48513D01*
X61310Y48550D01*
X61315Y48585D01*
X61323Y48618D01*
X61335Y48650D01*
X61350Y48680D01*
X61368Y48706D01*
X61389Y48728D01*
X61413Y48747D01*
X61440Y48762D01*
X61469Y48773D01*
X61500Y48779D01*
X61533Y48781D01*
X61577Y48777D01*
X61617Y48763D01*
X61653Y48740D01*
X61684Y48707D01*
X61684Y48770D01*
X61765Y48770D01*
X61765Y48322D01*
X61764Y48265D01*
X61759Y48218D01*
X61751Y48180D01*
X61741Y48150D01*
X61727Y48126D01*
X61709Y48105D01*
X61688Y48086D01*
X61663Y48070D01*
X61634Y48057D01*
X61603Y48048D01*
X61569Y48043D01*
X61531Y48041D01*
X61487Y48043D01*
X61447Y48051D01*
X61412Y48064D01*
X61381Y48082D01*
X61356Y48106D01*
X61339Y48135D01*
X61329Y48169D01*
X61326Y48208D01*
X61326Y48208D01*
X61898Y48251D02*
X61898Y48967D01*
X61986Y48967D01*
X61986Y48710D01*
X62019Y48741D01*
X62056Y48764D01*
X62096Y48777D01*
X62141Y48781D01*
X62169Y48780D01*
X62195Y48776D01*
X62219Y48769D01*
X62241Y48759D01*
X62261Y48746D01*
X62278Y48732D01*
X62292Y48715D01*
X62302Y48696D01*
X62310Y48674D01*
X62316Y48647D01*
X62319Y48616D01*
X62321Y48580D01*
X62321Y48251D01*
X62233Y48251D01*
X62233Y48580D01*
X62231Y48611D01*
X62226Y48637D01*
X62217Y48659D01*
X62204Y48676D01*
X62188Y48689D01*
X62170Y48698D01*
X62148Y48704D01*
X62123Y48706D01*
X62104Y48705D01*
X62085Y48701D01*
X62067Y48694D01*
X62050Y48686D01*
X62034Y48674D01*
X62020Y48662D01*
X62009Y48647D01*
X62001Y48631D01*
X61994Y48612D01*
X61990Y48589D01*
X61987Y48564D01*
X61986Y48535D01*
X61986Y48251D01*
X61898Y48251D01*
X61898Y48251D01*
X62646Y48330D02*
X62659Y48252D01*
X62641Y48249D01*
X62624Y48246D01*
X62608Y48245D01*
X62593Y48244D01*
X62570Y48245D01*
X62550Y48248D01*
X62533Y48253D01*
X62518Y48260D01*
X62506Y48268D01*
X62496Y48277D01*
X62488Y48288D01*
X62481Y48299D01*
X62477Y48315D01*
X62473Y48338D01*
X62471Y48367D01*
X62470Y48403D01*
X62470Y48701D01*
X62406Y48701D01*
X62406Y48770D01*
X62470Y48770D01*
X62470Y48898D01*
X62558Y48951D01*
X62558Y48770D01*
X62646Y48770D01*
X62646Y48701D01*
X62558Y48701D01*
X62558Y48398D01*
X62558Y48381D01*
X62559Y48367D01*
X62560Y48357D01*
X62563Y48350D01*
X62565Y48345D01*
X62569Y48340D01*
X62573Y48336D01*
X62578Y48333D01*
X62583Y48330D01*
X62590Y48328D01*
X62598Y48327D01*
X62608Y48326D01*
X62616Y48327D01*
X62625Y48327D01*
X62635Y48328D01*
X62646Y48330D01*
X62646Y48330D01*
G37*
%LNtop silkscreen component 1cbee34cdb0d41a6*%
X6999Y71999D02*
X6999Y88001D01*
X23001Y88001*
X23001Y71999*
X6999Y71999*
G36*
X7030Y88406D02*
X7116Y88420D01*
X7122Y88395D01*
X7130Y88374D01*
X7142Y88355D01*
X7157Y88340D01*
X7176Y88327D01*
X7197Y88319D01*
X7222Y88313D01*
X7251Y88312D01*
X7279Y88313D01*
X7303Y88318D01*
X7324Y88326D01*
X7341Y88336D01*
X7353Y88349D01*
X7363Y88363D01*
X7368Y88378D01*
X7370Y88394D01*
X7368Y88408D01*
X7363Y88421D01*
X7355Y88432D01*
X7344Y88441D01*
X7332Y88447D01*
X7313Y88454D01*
X7287Y88462D01*
X7254Y88471D01*
X7210Y88483D01*
X7172Y88494D01*
X7143Y88504D01*
X7120Y88513D01*
X7103Y88523D01*
X7087Y88534D01*
X7074Y88548D01*
X7063Y88562D01*
X7055Y88579D01*
X7049Y88596D01*
X7045Y88613D01*
X7044Y88632D01*
X7045Y88649D01*
X7048Y88665D01*
X7053Y88681D01*
X7060Y88696D01*
X7069Y88710D01*
X7079Y88723D01*
X7090Y88735D01*
X7103Y88745D01*
X7114Y88753D01*
X7128Y88759D01*
X7142Y88765D01*
X7159Y88771D01*
X7177Y88776D01*
X7196Y88779D01*
X7215Y88781D01*
X7235Y88781D01*
X7265Y88780D01*
X7292Y88777D01*
X7318Y88772D01*
X7342Y88764D01*
X7364Y88754D01*
X7382Y88743D01*
X7398Y88731D01*
X7410Y88716D01*
X7421Y88700D01*
X7429Y88681D01*
X7436Y88660D01*
X7441Y88636D01*
X7355Y88624D01*
X7350Y88643D01*
X7343Y88660D01*
X7333Y88674D01*
X7321Y88687D01*
X7305Y88697D01*
X7287Y88704D01*
X7266Y88708D01*
X7241Y88709D01*
X7213Y88708D01*
X7190Y88704D01*
X7170Y88698D01*
X7155Y88689D01*
X7144Y88679D01*
X7136Y88667D01*
X7131Y88655D01*
X7129Y88642D01*
X7130Y88634D01*
X7132Y88626D01*
X7135Y88619D01*
X7140Y88612D01*
X7146Y88605D01*
X7154Y88599D01*
X7163Y88593D01*
X7174Y88588D01*
X7183Y88585D01*
X7200Y88580D01*
X7222Y88574D01*
X7251Y88566D01*
X7294Y88554D01*
X7330Y88543D01*
X7359Y88533D01*
X7381Y88525D01*
X7399Y88516D01*
X7414Y88505D01*
X7428Y88493D01*
X7439Y88479D01*
X7448Y88463D01*
X7455Y88445D01*
X7459Y88425D01*
X7460Y88404D01*
X7459Y88382D01*
X7454Y88361D01*
X7446Y88341D01*
X7435Y88321D01*
X7420Y88302D01*
X7403Y88286D01*
X7383Y88272D01*
X7361Y88261D01*
X7336Y88251D01*
X7309Y88245D01*
X7281Y88241D01*
X7251Y88239D01*
X7204Y88242D01*
X7162Y88250D01*
X7127Y88263D01*
X7097Y88281D01*
X7073Y88305D01*
X7054Y88334D01*
X7039Y88367D01*
X7030Y88406D01*
X7030Y88406D01*
X7660Y88251D02*
X7502Y88770D01*
X7593Y88770D01*
X7675Y88470D01*
X7706Y88359D01*
X7708Y88369D01*
X7714Y88390D01*
X7722Y88422D01*
X7733Y88466D01*
X7815Y88770D01*
X7906Y88770D01*
X7983Y88469D01*
X8009Y88370D01*
X8039Y88470D01*
X8128Y88770D01*
X8213Y88770D01*
X8051Y88251D01*
X7960Y88251D01*
X7877Y88562D01*
X7857Y88650D01*
X7752Y88251D01*
X7660Y88251D01*
X7660Y88251D01*
X8253Y88466D02*
X8253Y88554D01*
X8523Y88554D01*
X8523Y88466D01*
X8253Y88466D01*
X8253Y88466D01*
X8958Y88441D02*
X9045Y88430D01*
X9035Y88388D01*
X9020Y88350D01*
X8999Y88318D01*
X8972Y88290D01*
X8941Y88268D01*
X8907Y88252D01*
X8870Y88243D01*
X8829Y88239D01*
X8778Y88244D01*
X8733Y88257D01*
X8693Y88279D01*
X8658Y88309D01*
X8629Y88348D01*
X8609Y88394D01*
X8597Y88447D01*
X8593Y88509D01*
X8595Y88549D01*
X8600Y88587D01*
X8609Y88623D01*
X8621Y88655D01*
X8637Y88685D01*
X8656Y88711D01*
X8679Y88732D01*
X8706Y88750D01*
X8735Y88764D01*
X8765Y88774D01*
X8797Y88780D01*
X8829Y88781D01*
X8870Y88779D01*
X8906Y88771D01*
X8939Y88757D01*
X8968Y88739D01*
X8992Y88715D01*
X9012Y88687D01*
X9026Y88654D01*
X9036Y88617D01*
X8951Y88604D01*
X8944Y88629D01*
X8934Y88650D01*
X8922Y88668D01*
X8908Y88683D01*
X8891Y88694D01*
X8874Y88703D01*
X8854Y88708D01*
X8833Y88709D01*
X8801Y88706D01*
X8773Y88697D01*
X8747Y88682D01*
X8725Y88662D01*
X8707Y88634D01*
X8694Y88600D01*
X8686Y88559D01*
X8683Y88511D01*
X8686Y88462D01*
X8693Y88421D01*
X8706Y88386D01*
X8723Y88359D01*
X8745Y88338D01*
X8770Y88324D01*
X8797Y88315D01*
X8828Y88312D01*
X8853Y88314D01*
X8875Y88320D01*
X8896Y88330D01*
X8914Y88343D01*
X8930Y88361D01*
X8943Y88384D01*
X8952Y88410D01*
X8958Y88441D01*
X8958Y88441D01*
X9312Y88330D02*
X9325Y88252D01*
X9306Y88249D01*
X9289Y88246D01*
X9273Y88245D01*
X9258Y88244D01*
X9236Y88245D01*
X9216Y88248D01*
X9198Y88253D01*
X9184Y88260D01*
X9172Y88268D01*
X9161Y88277D01*
X9153Y88288D01*
X9147Y88299D01*
X9142Y88315D01*
X9139Y88338D01*
X9137Y88367D01*
X9136Y88403D01*
X9136Y88701D01*
X9072Y88701D01*
X9072Y88770D01*
X9136Y88770D01*
X9136Y88898D01*
X9223Y88951D01*
X9223Y88770D01*
X9312Y88770D01*
X9312Y88701D01*
X9223Y88701D01*
X9223Y88398D01*
X9224Y88381D01*
X9225Y88367D01*
X9226Y88357D01*
X9228Y88350D01*
X9231Y88345D01*
X9234Y88340D01*
X9238Y88336D01*
X9243Y88333D01*
X9249Y88330D01*
X9256Y88328D01*
X9264Y88327D01*
X9273Y88326D01*
X9281Y88327D01*
X9290Y88327D01*
X9300Y88328D01*
X9312Y88330D01*
X9312Y88330D01*
X9397Y88251D02*
X9397Y88770D01*
X9476Y88770D01*
X9476Y88691D01*
X9491Y88716D01*
X9505Y88737D01*
X9519Y88753D01*
X9532Y88764D01*
X9545Y88772D01*
X9559Y88777D01*
X9573Y88780D01*
X9588Y88781D01*
X9611Y88780D01*
X9633Y88774D01*
X9656Y88766D01*
X9679Y88753D01*
X9648Y88672D01*
X9632Y88680D01*
X9616Y88686D01*
X9600Y88689D01*
X9584Y88691D01*
X9570Y88690D01*
X9556Y88686D01*
X9544Y88681D01*
X9532Y88673D01*
X9521Y88664D01*
X9512Y88653D01*
X9505Y88640D01*
X9499Y88625D01*
X9493Y88601D01*
X9488Y88576D01*
X9486Y88550D01*
X9485Y88523D01*
X9485Y88251D01*
X9397Y88251D01*
X9397Y88251D01*
X9729Y88251D02*
X9729Y88967D01*
X9817Y88967D01*
X9817Y88251D01*
X9729Y88251D01*
X9729Y88251D01*
X9919Y88466D02*
X9919Y88554D01*
X10189Y88554D01*
X10189Y88466D01*
X9919Y88466D01*
X9919Y88466D01*
X10284Y88251D02*
X10284Y88967D01*
X10372Y88967D01*
X10372Y88251D01*
X10284Y88251D01*
X10284Y88251D01*
X10863Y88418D02*
X10954Y88407D01*
X10941Y88369D01*
X10923Y88336D01*
X10901Y88308D01*
X10874Y88283D01*
X10843Y88264D01*
X10808Y88250D01*
X10769Y88242D01*
X10726Y88239D01*
X10672Y88244D01*
X10624Y88257D01*
X10582Y88279D01*
X10545Y88310D01*
X10516Y88348D01*
X10495Y88394D01*
X10483Y88446D01*
X10479Y88506D01*
X10483Y88568D01*
X10496Y88622D01*
X10517Y88669D01*
X10546Y88709D01*
X10582Y88741D01*
X10624Y88763D01*
X10670Y88777D01*
X10721Y88781D01*
X10728Y88781D01*
X10722Y88709D01*
X10693Y88707D01*
X10666Y88699D01*
X10642Y88686D01*
X10620Y88669D01*
X10602Y88647D01*
X10588Y88621D01*
X10579Y88593D01*
X10574Y88560D01*
X10574Y88560D01*
X10864Y88560D01*
X10860Y88591D01*
X10853Y88618D01*
X10843Y88640D01*
X10831Y88658D01*
X10808Y88681D01*
X10783Y88697D01*
X10754Y88706D01*
X10722Y88709D01*
X10728Y88781D01*
X10771Y88777D01*
X10815Y88764D01*
X10856Y88742D01*
X10891Y88711D01*
X10920Y88672D01*
X10940Y88625D01*
X10953Y88572D01*
X10957Y88511D01*
X10957Y88507D01*
X10957Y88502D01*
X10957Y88495D01*
X10956Y88488D01*
X10570Y88488D01*
X10574Y88448D01*
X10584Y88413D01*
X10599Y88382D01*
X10618Y88357D01*
X10641Y88337D01*
X10667Y88323D01*
X10695Y88315D01*
X10726Y88312D01*
X10750Y88313D01*
X10771Y88318D01*
X10791Y88326D01*
X10809Y88337D01*
X10825Y88352D01*
X10839Y88370D01*
X10852Y88392D01*
X10863Y88418D01*
X10863Y88418D01*
X11085Y88251D02*
X11085Y88701D01*
X11008Y88701D01*
X11008Y88770D01*
X11085Y88770D01*
X11085Y88825D01*
X11086Y88849D01*
X11088Y88870D01*
X11090Y88888D01*
X11094Y88903D01*
X11102Y88919D01*
X11112Y88934D01*
X11124Y88947D01*
X11139Y88958D01*
X11157Y88967D01*
X11178Y88974D01*
X11202Y88978D01*
X11229Y88979D01*
X11248Y88979D01*
X11268Y88977D01*
X11289Y88974D01*
X11311Y88970D01*
X11298Y88894D01*
X11284Y88896D01*
X11271Y88897D01*
X11258Y88898D01*
X11246Y88899D01*
X11227Y88898D01*
X11212Y88894D01*
X11199Y88889D01*
X11189Y88882D01*
X11182Y88871D01*
X11177Y88857D01*
X11174Y88839D01*
X11173Y88818D01*
X11173Y88770D01*
X11274Y88770D01*
X11274Y88701D01*
X11173Y88701D01*
X11173Y88251D01*
X11085Y88251D01*
X11085Y88251D01*
X11534Y88330D02*
X11547Y88252D01*
X11529Y88249D01*
X11511Y88246D01*
X11495Y88245D01*
X11480Y88244D01*
X11458Y88245D01*
X11438Y88248D01*
X11421Y88253D01*
X11406Y88260D01*
X11394Y88268D01*
X11384Y88277D01*
X11375Y88288D01*
X11369Y88299D01*
X11364Y88315D01*
X11361Y88338D01*
X11359Y88367D01*
X11358Y88403D01*
X11358Y88701D01*
X11294Y88701D01*
X11294Y88770D01*
X11358Y88770D01*
X11358Y88898D01*
X11446Y88951D01*
X11446Y88770D01*
X11534Y88770D01*
X11534Y88701D01*
X11446Y88701D01*
X11446Y88398D01*
X11446Y88381D01*
X11447Y88367D01*
X11448Y88357D01*
X11450Y88350D01*
X11453Y88345D01*
X11456Y88340D01*
X11460Y88336D01*
X11465Y88333D01*
X11471Y88330D01*
X11478Y88328D01*
X11486Y88327D01*
X11495Y88326D01*
X11503Y88327D01*
X11512Y88327D01*
X11523Y88328D01*
X11534Y88330D01*
X11534Y88330D01*
G37*
%LNtop silkscreen component e12a0b81499e0431*%
X71999Y71999D02*
X71999Y88001D01*
X88001Y88001*
X88001Y71999*
X71999Y71999*
G36*
X72030Y88406D02*
X72116Y88420D01*
X72122Y88395D01*
X72130Y88374D01*
X72142Y88355D01*
X72157Y88340D01*
X72176Y88327D01*
X72197Y88319D01*
X72222Y88313D01*
X72251Y88312D01*
X72279Y88313D01*
X72303Y88318D01*
X72324Y88326D01*
X72341Y88336D01*
X72353Y88349D01*
X72363Y88363D01*
X72368Y88378D01*
X72370Y88394D01*
X72368Y88408D01*
X72363Y88421D01*
X72355Y88432D01*
X72344Y88441D01*
X72332Y88447D01*
X72313Y88454D01*
X72287Y88462D01*
X72254Y88471D01*
X72210Y88483D01*
X72172Y88494D01*
X72143Y88504D01*
X72120Y88513D01*
X72103Y88523D01*
X72087Y88534D01*
X72074Y88548D01*
X72063Y88562D01*
X72055Y88579D01*
X72049Y88596D01*
X72045Y88613D01*
X72044Y88632D01*
X72045Y88649D01*
X72048Y88665D01*
X72053Y88681D01*
X72060Y88696D01*
X72069Y88710D01*
X72079Y88723D01*
X72090Y88735D01*
X72103Y88745D01*
X72114Y88753D01*
X72128Y88759D01*
X72142Y88765D01*
X72159Y88771D01*
X72177Y88776D01*
X72196Y88779D01*
X72215Y88781D01*
X72235Y88781D01*
X72265Y88780D01*
X72292Y88777D01*
X72318Y88772D01*
X72342Y88764D01*
X72364Y88754D01*
X72382Y88743D01*
X72398Y88731D01*
X72410Y88716D01*
X72421Y88700D01*
X72429Y88681D01*
X72436Y88660D01*
X72441Y88636D01*
X72355Y88624D01*
X72350Y88643D01*
X72343Y88660D01*
X72333Y88674D01*
X72321Y88687D01*
X72305Y88697D01*
X72287Y88704D01*
X72266Y88708D01*
X72241Y88709D01*
X72213Y88708D01*
X72190Y88704D01*
X72170Y88698D01*
X72155Y88689D01*
X72144Y88679D01*
X72136Y88667D01*
X72131Y88655D01*
X72129Y88642D01*
X72130Y88634D01*
X72132Y88626D01*
X72135Y88619D01*
X72140Y88612D01*
X72146Y88605D01*
X72154Y88599D01*
X72163Y88593D01*
X72174Y88588D01*
X72183Y88585D01*
X72200Y88580D01*
X72222Y88574D01*
X72251Y88566D01*
X72294Y88554D01*
X72330Y88543D01*
X72359Y88533D01*
X72381Y88525D01*
X72399Y88516D01*
X72414Y88505D01*
X72428Y88493D01*
X72439Y88479D01*
X72448Y88463D01*
X72455Y88445D01*
X72459Y88425D01*
X72460Y88404D01*
X72459Y88382D01*
X72454Y88361D01*
X72446Y88341D01*
X72435Y88321D01*
X72420Y88302D01*
X72403Y88286D01*
X72383Y88272D01*
X72361Y88261D01*
X72336Y88251D01*
X72309Y88245D01*
X72281Y88241D01*
X72251Y88239D01*
X72204Y88242D01*
X72162Y88250D01*
X72127Y88263D01*
X72097Y88281D01*
X72073Y88305D01*
X72054Y88334D01*
X72039Y88367D01*
X72030Y88406D01*
X72030Y88406D01*
X72660Y88251D02*
X72502Y88770D01*
X72593Y88770D01*
X72675Y88470D01*
X72706Y88359D01*
X72708Y88369D01*
X72714Y88390D01*
X72722Y88422D01*
X72733Y88466D01*
X72815Y88770D01*
X72906Y88770D01*
X72983Y88469D01*
X73009Y88370D01*
X73039Y88470D01*
X73128Y88770D01*
X73213Y88770D01*
X73051Y88251D01*
X72960Y88251D01*
X72877Y88562D01*
X72857Y88650D01*
X72752Y88251D01*
X72660Y88251D01*
X72660Y88251D01*
X73253Y88466D02*
X73253Y88554D01*
X73523Y88554D01*
X73523Y88466D01*
X73253Y88466D01*
X73253Y88466D01*
X73958Y88441D02*
X74045Y88430D01*
X74035Y88388D01*
X74020Y88350D01*
X73999Y88318D01*
X73972Y88290D01*
X73941Y88268D01*
X73907Y88252D01*
X73870Y88243D01*
X73829Y88239D01*
X73778Y88244D01*
X73733Y88257D01*
X73693Y88279D01*
X73658Y88309D01*
X73629Y88348D01*
X73609Y88394D01*
X73597Y88447D01*
X73593Y88509D01*
X73595Y88549D01*
X73600Y88587D01*
X73609Y88623D01*
X73621Y88655D01*
X73637Y88685D01*
X73656Y88711D01*
X73679Y88732D01*
X73706Y88750D01*
X73735Y88764D01*
X73765Y88774D01*
X73797Y88780D01*
X73829Y88781D01*
X73870Y88779D01*
X73906Y88771D01*
X73939Y88757D01*
X73968Y88739D01*
X73992Y88715D01*
X74012Y88687D01*
X74026Y88654D01*
X74036Y88617D01*
X73951Y88604D01*
X73944Y88629D01*
X73934Y88650D01*
X73922Y88668D01*
X73908Y88683D01*
X73891Y88694D01*
X73874Y88703D01*
X73854Y88708D01*
X73833Y88709D01*
X73801Y88706D01*
X73773Y88697D01*
X73747Y88682D01*
X73725Y88662D01*
X73707Y88634D01*
X73694Y88600D01*
X73686Y88559D01*
X73683Y88511D01*
X73686Y88462D01*
X73693Y88421D01*
X73706Y88386D01*
X73723Y88359D01*
X73745Y88338D01*
X73770Y88324D01*
X73797Y88315D01*
X73828Y88312D01*
X73853Y88314D01*
X73875Y88320D01*
X73896Y88330D01*
X73914Y88343D01*
X73930Y88361D01*
X73943Y88384D01*
X73952Y88410D01*
X73958Y88441D01*
X73958Y88441D01*
X74312Y88330D02*
X74325Y88252D01*
X74306Y88249D01*
X74289Y88246D01*
X74273Y88245D01*
X74258Y88244D01*
X74236Y88245D01*
X74216Y88248D01*
X74198Y88253D01*
X74184Y88260D01*
X74172Y88268D01*
X74161Y88277D01*
X74153Y88288D01*
X74147Y88299D01*
X74142Y88315D01*
X74139Y88338D01*
X74137Y88367D01*
X74136Y88403D01*
X74136Y88701D01*
X74072Y88701D01*
X74072Y88770D01*
X74136Y88770D01*
X74136Y88898D01*
X74223Y88951D01*
X74223Y88770D01*
X74312Y88770D01*
X74312Y88701D01*
X74223Y88701D01*
X74223Y88398D01*
X74224Y88381D01*
X74225Y88367D01*
X74226Y88357D01*
X74228Y88350D01*
X74231Y88345D01*
X74234Y88340D01*
X74238Y88336D01*
X74243Y88333D01*
X74249Y88330D01*
X74256Y88328D01*
X74264Y88327D01*
X74273Y88326D01*
X74281Y88327D01*
X74290Y88327D01*
X74300Y88328D01*
X74312Y88330D01*
X74312Y88330D01*
X74397Y88251D02*
X74397Y88770D01*
X74476Y88770D01*
X74476Y88691D01*
X74491Y88716D01*
X74505Y88737D01*
X74519Y88753D01*
X74532Y88764D01*
X74545Y88772D01*
X74559Y88777D01*
X74573Y88780D01*
X74588Y88781D01*
X74611Y88780D01*
X74633Y88774D01*
X74656Y88766D01*
X74679Y88753D01*
X74648Y88672D01*
X74632Y88680D01*
X74616Y88686D01*
X74600Y88689D01*
X74584Y88691D01*
X74570Y88690D01*
X74556Y88686D01*
X74544Y88681D01*
X74532Y88673D01*
X74521Y88664D01*
X74512Y88653D01*
X74505Y88640D01*
X74499Y88625D01*
X74493Y88601D01*
X74488Y88576D01*
X74486Y88550D01*
X74485Y88523D01*
X74485Y88251D01*
X74397Y88251D01*
X74397Y88251D01*
X74729Y88251D02*
X74729Y88967D01*
X74817Y88967D01*
X74817Y88251D01*
X74729Y88251D01*
X74729Y88251D01*
X74919Y88466D02*
X74919Y88554D01*
X75189Y88554D01*
X75189Y88466D01*
X74919Y88466D01*
X74919Y88466D01*
X75285Y88251D02*
X75285Y88770D01*
X75364Y88770D01*
X75364Y88691D01*
X75379Y88716D01*
X75393Y88737D01*
X75407Y88753D01*
X75420Y88764D01*
X75433Y88772D01*
X75447Y88777D01*
X75461Y88780D01*
X75476Y88781D01*
X75499Y88780D01*
X75521Y88774D01*
X75544Y88766D01*
X75567Y88753D01*
X75536Y88672D01*
X75520Y88680D01*
X75504Y88686D01*
X75488Y88689D01*
X75472Y88691D01*
X75458Y88690D01*
X75445Y88686D01*
X75432Y88681D01*
X75420Y88673D01*
X75410Y88664D01*
X75401Y88653D01*
X75393Y88640D01*
X75387Y88625D01*
X75381Y88601D01*
X75376Y88576D01*
X75374Y88550D01*
X75373Y88523D01*
X75373Y88251D01*
X75285Y88251D01*
X75285Y88251D01*
X75619Y88251D02*
X75619Y88770D01*
X75707Y88770D01*
X75707Y88251D01*
X75619Y88251D01*
X75619Y88251D01*
X75619Y88866D02*
X75619Y88967D01*
X75707Y88967D01*
X75707Y88866D01*
X75619Y88866D01*
X75619Y88866D01*
X75825Y88208D02*
X75910Y88196D01*
X75914Y88177D01*
X75921Y88161D01*
X75929Y88148D01*
X75940Y88138D01*
X75958Y88127D01*
X75979Y88120D01*
X76003Y88115D01*
X76030Y88114D01*
X76058Y88115D01*
X76084Y88120D01*
X76105Y88127D01*
X76124Y88138D01*
X76139Y88151D01*
X76152Y88167D01*
X76161Y88186D01*
X76169Y88206D01*
X76172Y88223D01*
X76174Y88248D01*
X76175Y88280D01*
X76175Y88319D01*
X76134Y88363D01*
X76141Y88371D01*
X76159Y88397D01*
X76172Y88430D01*
X76180Y88470D01*
X76182Y88517D01*
X76180Y88562D01*
X76172Y88600D01*
X76159Y88633D01*
X76140Y88660D01*
X76118Y88682D01*
X76094Y88697D01*
X76067Y88706D01*
X76038Y88709D01*
X76010Y88706D01*
X75984Y88697D01*
X75960Y88682D01*
X75939Y88661D01*
X75921Y88634D01*
X75908Y88602D01*
X75900Y88564D01*
X75898Y88520D01*
X75898Y88520D01*
X75900Y88472D01*
X75908Y88431D01*
X75920Y88398D01*
X75938Y88371D01*
X75960Y88350D01*
X75984Y88336D01*
X76011Y88327D01*
X76040Y88324D01*
X76069Y88327D01*
X76095Y88336D01*
X76120Y88350D01*
X76134Y88363D01*
X76175Y88319D01*
X76144Y88289D01*
X76110Y88268D01*
X76073Y88255D01*
X76031Y88251D01*
X75981Y88256D01*
X75937Y88270D01*
X75898Y88295D01*
X75866Y88328D01*
X75840Y88369D01*
X75822Y88413D01*
X75811Y88461D01*
X75807Y88513D01*
X75809Y88550D01*
X75814Y88585D01*
X75822Y88618D01*
X75834Y88650D01*
X75849Y88680D01*
X75867Y88706D01*
X75888Y88728D01*
X75912Y88747D01*
X75939Y88762D01*
X75968Y88773D01*
X75999Y88779D01*
X76032Y88781D01*
X76076Y88777D01*
X76116Y88763D01*
X76152Y88740D01*
X76183Y88707D01*
X76183Y88770D01*
X76264Y88770D01*
X76264Y88322D01*
X76263Y88265D01*
X76258Y88218D01*
X76251Y88180D01*
X76240Y88150D01*
X76226Y88126D01*
X76208Y88105D01*
X76187Y88086D01*
X76162Y88070D01*
X76133Y88057D01*
X76102Y88048D01*
X76068Y88043D01*
X76030Y88041D01*
X75986Y88043D01*
X75946Y88051D01*
X75911Y88064D01*
X75880Y88082D01*
X75855Y88106D01*
X75838Y88135D01*
X75828Y88169D01*
X75825Y88208D01*
X75825Y88208D01*
X76397Y88251D02*
X76397Y88967D01*
X76485Y88967D01*
X76485Y88710D01*
X76518Y88741D01*
X76555Y88764D01*
X76596Y88777D01*
X76640Y88781D01*
X76668Y88780D01*
X76694Y88776D01*
X76718Y88769D01*
X76740Y88759D01*
X76760Y88746D01*
X76777Y88732D01*
X76791Y88715D01*
X76801Y88696D01*
X76809Y88674D01*
X76815Y88647D01*
X76818Y88616D01*
X76820Y88580D01*
X76820Y88251D01*
X76732Y88251D01*
X76732Y88580D01*
X76730Y88611D01*
X76725Y88637D01*
X76716Y88659D01*
X76703Y88676D01*
X76687Y88689D01*
X76669Y88698D01*
X76647Y88704D01*
X76622Y88706D01*
X76603Y88705D01*
X76584Y88701D01*
X76566Y88694D01*
X76549Y88686D01*
X76533Y88674D01*
X76519Y88662D01*
X76508Y88647D01*
X76500Y88631D01*
X76493Y88612D01*
X76489Y88589D01*
X76486Y88564D01*
X76485Y88535D01*
X76485Y88251D01*
X76397Y88251D01*
X76397Y88251D01*
X77145Y88330D02*
X77158Y88252D01*
X77140Y88249D01*
X77123Y88246D01*
X77107Y88245D01*
X77092Y88244D01*
X77069Y88245D01*
X77049Y88248D01*
X77032Y88253D01*
X77017Y88260D01*
X77005Y88268D01*
X76995Y88277D01*
X76987Y88288D01*
X76980Y88299D01*
X76976Y88315D01*
X76972Y88338D01*
X76970Y88367D01*
X76969Y88403D01*
X76969Y88701D01*
X76905Y88701D01*
X76905Y88770D01*
X76969Y88770D01*
X76969Y88898D01*
X77057Y88951D01*
X77057Y88770D01*
X77145Y88770D01*
X77145Y88701D01*
X77057Y88701D01*
X77057Y88398D01*
X77057Y88381D01*
X77058Y88367D01*
X77059Y88357D01*
X77062Y88350D01*
X77064Y88345D01*
X77068Y88340D01*
X77072Y88336D01*
X77077Y88333D01*
X77082Y88330D01*
X77089Y88328D01*
X77097Y88327D01*
X77107Y88326D01*
X77115Y88327D01*
X77124Y88327D01*
X77134Y88328D01*
X77145Y88330D01*
X77145Y88330D01*
G37*
%LNtop silkscreen component 28d3a153ef29f678*%
X50700Y56850D02*
X48300Y56850D01*
X48300Y63150*
X50700Y63150*
X50700Y56850*
X49500Y56850D02*
X49500Y57390D01*
X49500Y63150D02*
X49500Y62610D01*
D11*
X50630Y58425D02*
X48370Y58425D01*
G36*
X51469Y59495D02*
X51469Y60211D01*
X51786Y60211D01*
X51831Y60210D01*
X51870Y60206D01*
X51904Y60200D01*
X51932Y60192D01*
X51955Y60180D01*
X51976Y60165D01*
X51995Y60146D01*
X52011Y60124D01*
X52024Y60099D01*
X52033Y60072D01*
X52039Y60045D01*
X52041Y60016D01*
X52038Y59979D01*
X52029Y59946D01*
X52013Y59915D01*
X51992Y59887D01*
X51964Y59864D01*
X51929Y59845D01*
X51887Y59831D01*
X51864Y59826D01*
X51848Y59903D01*
X51869Y59909D01*
X51886Y59916D01*
X51901Y59926D01*
X51914Y59938D01*
X51924Y59952D01*
X51933Y59967D01*
X51938Y59983D01*
X51942Y59999D01*
X51943Y60016D01*
X51941Y60040D01*
X51934Y60062D01*
X51922Y60082D01*
X51906Y60099D01*
X51885Y60114D01*
X51859Y60124D01*
X51827Y60130D01*
X51790Y60132D01*
X51563Y60132D01*
X51563Y59895D01*
X51563Y59895D01*
X51767Y59895D01*
X51798Y59896D01*
X51825Y59899D01*
X51848Y59903D01*
X51864Y59826D01*
X51839Y59821D01*
X51857Y59812D01*
X51872Y59803D01*
X51885Y59794D01*
X51896Y59785D01*
X51917Y59765D01*
X51937Y59743D01*
X51956Y59718D01*
X51975Y59690D01*
X52099Y59495D01*
X51980Y59495D01*
X51886Y59644D01*
X51866Y59675D01*
X51848Y59701D01*
X51832Y59724D01*
X51817Y59743D01*
X51804Y59759D01*
X51792Y59772D01*
X51780Y59783D01*
X51769Y59791D01*
X51758Y59797D01*
X51748Y59802D01*
X51737Y59807D01*
X51726Y59810D01*
X51717Y59811D01*
X51705Y59812D01*
X51690Y59813D01*
X51673Y59813D01*
X51563Y59813D01*
X51563Y59495D01*
X51469Y59495D01*
X51469Y59495D01*
X52616Y59580D02*
X52616Y59495D01*
X52142Y59495D01*
X52143Y59511D01*
X52145Y59527D01*
X52148Y59542D01*
X52153Y59556D01*
X52163Y59581D01*
X52176Y59604D01*
X52192Y59628D01*
X52211Y59652D01*
X52233Y59676D01*
X52259Y59702D01*
X52290Y59730D01*
X52326Y59760D01*
X52379Y59805D01*
X52423Y59846D01*
X52458Y59881D01*
X52483Y59912D01*
X52501Y59939D01*
X52514Y59966D01*
X52522Y59992D01*
X52524Y60017D01*
X52522Y60042D01*
X52515Y60066D01*
X52503Y60087D01*
X52487Y60106D01*
X52467Y60121D01*
X52444Y60132D01*
X52418Y60139D01*
X52390Y60141D01*
X52359Y60139D01*
X52332Y60132D01*
X52309Y60120D01*
X52288Y60103D01*
X52271Y60082D01*
X52259Y60058D01*
X52252Y60030D01*
X52249Y59998D01*
X52159Y60007D01*
X52167Y60055D01*
X52181Y60096D01*
X52202Y60132D01*
X52229Y60161D01*
X52262Y60184D01*
X52300Y60201D01*
X52343Y60211D01*
X52391Y60214D01*
X52440Y60211D01*
X52484Y60200D01*
X52522Y60182D01*
X52555Y60157D01*
X52581Y60127D01*
X52600Y60093D01*
X52611Y60056D01*
X52615Y60015D01*
X52614Y59994D01*
X52610Y59973D01*
X52605Y59952D01*
X52597Y59931D01*
X52587Y59910D01*
X52574Y59888D01*
X52558Y59866D01*
X52539Y59844D01*
X52515Y59818D01*
X52484Y59789D01*
X52447Y59755D01*
X52403Y59718D01*
X52367Y59687D01*
X52338Y59662D01*
X52316Y59642D01*
X52302Y59627D01*
X52291Y59616D01*
X52281Y59604D01*
X52272Y59592D01*
X52265Y59580D01*
X52616Y59580D01*
X52616Y59580D01*
G37*
%LNtop silkscreen component 15bacbb849e6aa73*%
D12*
X37500Y5000D03*
D13*
X34050Y5000D03*
G36*
X34388Y7750D02*
X34388Y8466D01*
X34633Y8466D01*
X34633Y8381D01*
X34483Y8381D01*
X34483Y7834D01*
X34483Y7834D01*
X34636Y7834D01*
X34669Y7835D01*
X34699Y7838D01*
X34725Y7842D01*
X34747Y7848D01*
X34766Y7855D01*
X34783Y7864D01*
X34798Y7873D01*
X34811Y7885D01*
X34827Y7903D01*
X34841Y7924D01*
X34853Y7948D01*
X34863Y7975D01*
X34872Y8005D01*
X34877Y8038D01*
X34881Y8074D01*
X34882Y8113D01*
X34880Y8166D01*
X34873Y8213D01*
X34861Y8252D01*
X34845Y8286D01*
X34826Y8314D01*
X34804Y8336D01*
X34781Y8354D01*
X34756Y8367D01*
X34734Y8373D01*
X34706Y8378D01*
X34672Y8380D01*
X34633Y8381D01*
X34633Y8466D01*
X34635Y8466D01*
X34674Y8465D01*
X34708Y8463D01*
X34738Y8460D01*
X34762Y8456D01*
X34792Y8447D01*
X34819Y8436D01*
X34844Y8421D01*
X34867Y8404D01*
X34894Y8379D01*
X34916Y8350D01*
X34936Y8318D01*
X34952Y8282D01*
X34964Y8243D01*
X34973Y8202D01*
X34978Y8158D01*
X34980Y8112D01*
X34979Y8072D01*
X34975Y8035D01*
X34969Y8000D01*
X34961Y7967D01*
X34951Y7937D01*
X34939Y7910D01*
X34926Y7885D01*
X34912Y7863D01*
X34897Y7844D01*
X34881Y7826D01*
X34864Y7811D01*
X34847Y7798D01*
X34828Y7787D01*
X34808Y7777D01*
X34785Y7769D01*
X34761Y7762D01*
X34735Y7757D01*
X34707Y7753D01*
X34678Y7751D01*
X34646Y7750D01*
X34388Y7750D01*
X34388Y7750D01*
X35406Y7750D02*
X35318Y7750D01*
X35318Y8310D01*
X35301Y8295D01*
X35281Y8280D01*
X35259Y8265D01*
X35234Y8250D01*
X35209Y8235D01*
X35186Y8223D01*
X35163Y8213D01*
X35142Y8204D01*
X35142Y8289D01*
X35178Y8307D01*
X35211Y8327D01*
X35242Y8349D01*
X35271Y8373D01*
X35296Y8398D01*
X35318Y8422D01*
X35335Y8445D01*
X35349Y8469D01*
X35406Y8469D01*
X35406Y7750D01*
X35406Y7750D01*
G37*
%LNtop silkscreen component 9ee3b852968f6e66*%
D14*
X57500Y5000D03*
D13*
X54050Y5000D03*
G36*
X54388Y7750D02*
X54388Y8466D01*
X54633Y8466D01*
X54633Y8381D01*
X54483Y8381D01*
X54483Y7834D01*
X54483Y7834D01*
X54636Y7834D01*
X54669Y7835D01*
X54699Y7838D01*
X54725Y7842D01*
X54747Y7848D01*
X54766Y7855D01*
X54783Y7864D01*
X54798Y7873D01*
X54811Y7885D01*
X54827Y7903D01*
X54841Y7924D01*
X54853Y7948D01*
X54863Y7975D01*
X54872Y8005D01*
X54877Y8038D01*
X54881Y8074D01*
X54882Y8113D01*
X54880Y8166D01*
X54873Y8213D01*
X54861Y8252D01*
X54845Y8286D01*
X54826Y8314D01*
X54804Y8336D01*
X54781Y8354D01*
X54756Y8367D01*
X54734Y8373D01*
X54706Y8378D01*
X54672Y8380D01*
X54633Y8381D01*
X54633Y8466D01*
X54635Y8466D01*
X54674Y8465D01*
X54708Y8463D01*
X54738Y8460D01*
X54762Y8456D01*
X54792Y8447D01*
X54819Y8436D01*
X54844Y8421D01*
X54867Y8404D01*
X54894Y8379D01*
X54916Y8350D01*
X54936Y8318D01*
X54952Y8282D01*
X54964Y8243D01*
X54973Y8202D01*
X54978Y8158D01*
X54980Y8112D01*
X54979Y8072D01*
X54975Y8035D01*
X54969Y8000D01*
X54961Y7967D01*
X54951Y7937D01*
X54939Y7910D01*
X54926Y7885D01*
X54912Y7863D01*
X54897Y7844D01*
X54881Y7826D01*
X54864Y7811D01*
X54847Y7798D01*
X54828Y7787D01*
X54808Y7777D01*
X54785Y7769D01*
X54761Y7762D01*
X54735Y7757D01*
X54707Y7753D01*
X54678Y7751D01*
X54646Y7750D01*
X54388Y7750D01*
X54388Y7750D01*
X55536Y7834D02*
X55536Y7750D01*
X55063Y7750D01*
X55064Y7766D01*
X55065Y7781D01*
X55069Y7796D01*
X55074Y7811D01*
X55084Y7835D01*
X55097Y7859D01*
X55113Y7883D01*
X55131Y7906D01*
X55154Y7931D01*
X55180Y7957D01*
X55211Y7985D01*
X55246Y8015D01*
X55300Y8060D01*
X55344Y8100D01*
X55379Y8136D01*
X55404Y8166D01*
X55422Y8194D01*
X55435Y8221D01*
X55443Y8247D01*
X55445Y8272D01*
X55443Y8297D01*
X55436Y8320D01*
X55424Y8341D01*
X55408Y8360D01*
X55388Y8376D01*
X55365Y8387D01*
X55339Y8394D01*
X55310Y8396D01*
X55280Y8394D01*
X55253Y8386D01*
X55229Y8375D01*
X55209Y8358D01*
X55192Y8337D01*
X55180Y8312D01*
X55173Y8284D01*
X55170Y8252D01*
X55080Y8262D01*
X55088Y8309D01*
X55102Y8351D01*
X55123Y8386D01*
X55150Y8416D01*
X55183Y8439D01*
X55221Y8456D01*
X55264Y8465D01*
X55312Y8469D01*
X55361Y8465D01*
X55405Y8454D01*
X55443Y8437D01*
X55475Y8412D01*
X55502Y8381D01*
X55520Y8348D01*
X55532Y8311D01*
X55535Y8270D01*
X55534Y8249D01*
X55531Y8227D01*
X55526Y8206D01*
X55518Y8186D01*
X55508Y8165D01*
X55494Y8143D01*
X55478Y8121D01*
X55460Y8098D01*
X55436Y8073D01*
X55405Y8044D01*
X55368Y8010D01*
X55324Y7972D01*
X55288Y7942D01*
X55259Y7916D01*
X55237Y7897D01*
X55222Y7882D01*
X55212Y7870D01*
X55202Y7858D01*
X55193Y7846D01*
X55185Y7834D01*
X55536Y7834D01*
X55536Y7834D01*
G37*
%LNtop silkscreen component ad6ac8bc52ef453c*%
D10*
X38580Y88205D02*
X56420Y88205D01*
X38580Y88205D02*
X38580Y51795D01*
X56420Y51795*
X56420Y88205*
D15*
X38080Y86688D03*
G36*
X37299Y88505D02*
X37299Y89937D01*
X37493Y89937D01*
X38245Y88813D01*
X38245Y89937D01*
X38427Y89937D01*
X38427Y88505D01*
X38233Y88505D01*
X37481Y89630D01*
X37481Y88505D01*
X37299Y88505D01*
X37299Y88505D01*
X38588Y88505D02*
X39100Y89838D01*
X39235Y89786D01*
X39220Y89718D01*
X39203Y89649D01*
X39182Y89581D01*
X39158Y89513D01*
X39001Y89093D01*
X39001Y89093D01*
X39486Y89093D01*
X39337Y89489D01*
X39305Y89576D01*
X39277Y89654D01*
X39254Y89724D01*
X39235Y89786D01*
X39100Y89838D01*
X39138Y89937D01*
X39342Y89937D01*
X39928Y88505D01*
X39712Y88505D01*
X39545Y88939D01*
X38946Y88939D01*
X38789Y88505D01*
X38588Y88505D01*
X38588Y88505D01*
X40670Y88505D02*
X40494Y88505D01*
X40494Y89625D01*
X40460Y89595D01*
X40421Y89565D01*
X40377Y89534D01*
X40328Y89504D01*
X40278Y89476D01*
X40230Y89451D01*
X40185Y89430D01*
X40143Y89413D01*
X40143Y89583D01*
X40214Y89620D01*
X40281Y89660D01*
X40343Y89704D01*
X40401Y89751D01*
X40452Y89800D01*
X40495Y89848D01*
X40530Y89896D01*
X40557Y89942D01*
X40670Y89942D01*
X40670Y88505D01*
X40670Y88505D01*
X41634Y88505D02*
X41458Y88505D01*
X41458Y89625D01*
X41424Y89595D01*
X41385Y89565D01*
X41341Y89534D01*
X41292Y89504D01*
X41241Y89476D01*
X41194Y89451D01*
X41149Y89430D01*
X41107Y89413D01*
X41107Y89583D01*
X41178Y89620D01*
X41245Y89660D01*
X41307Y89704D01*
X41364Y89751D01*
X41416Y89800D01*
X41459Y89848D01*
X41494Y89896D01*
X41521Y89942D01*
X41634Y89942D01*
X41634Y88505D01*
X41634Y88505D01*
X42355Y89281D02*
X42412Y89172D01*
X42388Y89159D01*
X42344Y89123D01*
X42309Y89080D01*
X42283Y89031D01*
X42268Y88977D01*
X42263Y88918D01*
X42263Y88918D01*
X42265Y88881D01*
X42272Y88844D01*
X42283Y88808D01*
X42298Y88773D01*
X42318Y88739D01*
X42343Y88710D01*
X42371Y88685D01*
X42404Y88664D01*
X42440Y88647D01*
X42477Y88635D01*
X42516Y88628D01*
X42556Y88625D01*
X42616Y88630D01*
X42671Y88645D01*
X42720Y88671D01*
X42764Y88706D01*
X42800Y88749D01*
X42825Y88798D01*
X42841Y88852D01*
X42846Y88912D01*
X42841Y88973D01*
X42825Y89028D01*
X42798Y89078D01*
X42761Y89122D01*
X42716Y89159D01*
X42666Y89184D01*
X42611Y89200D01*
X42550Y89205D01*
X42491Y89200D01*
X42437Y89185D01*
X42412Y89172D01*
X42355Y89281D01*
X42420Y89385D01*
X42460Y89365D01*
X42505Y89353D01*
X42555Y89349D01*
X42603Y89353D01*
X42647Y89365D01*
X42687Y89385D01*
X42721Y89413D01*
X42750Y89446D01*
X42770Y89484D01*
X42782Y89525D01*
X42786Y89569D01*
X42782Y89616D01*
X42770Y89658D01*
X42749Y89697D01*
X42719Y89732D01*
X42684Y89761D01*
X42644Y89781D01*
X42601Y89794D01*
X42553Y89798D01*
X42505Y89794D01*
X42461Y89782D01*
X42421Y89762D01*
X42386Y89734D01*
X42357Y89700D01*
X42336Y89663D01*
X42324Y89623D01*
X42319Y89579D01*
X42319Y89579D01*
X42324Y89531D01*
X42336Y89487D01*
X42356Y89448D01*
X42385Y89413D01*
X42420Y89385D01*
X42355Y89281D01*
X42303Y89304D01*
X42259Y89330D01*
X42222Y89361D01*
X42193Y89396D01*
X42169Y89435D01*
X42153Y89477D01*
X42143Y89523D01*
X42140Y89573D01*
X42147Y89648D01*
X42168Y89717D01*
X42203Y89780D01*
X42252Y89836D01*
X42313Y89883D01*
X42383Y89916D01*
X42462Y89936D01*
X42551Y89942D01*
X42640Y89936D01*
X42720Y89915D01*
X42791Y89881D01*
X42853Y89834D01*
X42903Y89776D01*
X42938Y89713D01*
X42960Y89644D01*
X42967Y89568D01*
X42964Y89520D01*
X42954Y89475D01*
X42938Y89434D01*
X42915Y89395D01*
X42885Y89360D01*
X42849Y89330D01*
X42806Y89303D01*
X42756Y89281D01*
X42818Y89257D01*
X42872Y89225D01*
X42918Y89187D01*
X42957Y89143D01*
X42987Y89093D01*
X43008Y89038D01*
X43021Y88978D01*
X43026Y88914D01*
X43017Y88826D01*
X42993Y88745D01*
X42952Y88672D01*
X42896Y88606D01*
X42826Y88551D01*
X42745Y88512D01*
X42655Y88488D01*
X42554Y88481D01*
X42453Y88488D01*
X42362Y88512D01*
X42282Y88551D01*
X42212Y88606D01*
X42155Y88673D01*
X42115Y88747D01*
X42090Y88829D01*
X42082Y88919D01*
X42087Y88986D01*
X42100Y89047D01*
X42122Y89103D01*
X42153Y89153D01*
X42192Y89196D01*
X42239Y89232D01*
X42293Y89261D01*
X42355Y89281D01*
X42355Y89281D01*
G37*
%LNtop silkscreen component 1999d55fcb4c457c*%
D10*
X29499Y11999D02*
X29499Y28001D01*
X45501Y28001*
X45501Y11999*
X29499Y11999*
G36*
X29530Y28406D02*
X29616Y28420D01*
X29622Y28395D01*
X29630Y28374D01*
X29642Y28355D01*
X29657Y28340D01*
X29676Y28327D01*
X29697Y28319D01*
X29722Y28313D01*
X29751Y28312D01*
X29779Y28313D01*
X29803Y28318D01*
X29824Y28326D01*
X29841Y28336D01*
X29853Y28349D01*
X29863Y28363D01*
X29868Y28378D01*
X29870Y28394D01*
X29868Y28408D01*
X29863Y28421D01*
X29855Y28432D01*
X29844Y28441D01*
X29832Y28447D01*
X29813Y28454D01*
X29787Y28462D01*
X29754Y28471D01*
X29710Y28483D01*
X29672Y28494D01*
X29643Y28504D01*
X29620Y28513D01*
X29603Y28523D01*
X29587Y28534D01*
X29574Y28548D01*
X29563Y28562D01*
X29555Y28579D01*
X29549Y28596D01*
X29545Y28613D01*
X29544Y28632D01*
X29545Y28649D01*
X29548Y28665D01*
X29553Y28681D01*
X29560Y28696D01*
X29569Y28710D01*
X29579Y28723D01*
X29590Y28735D01*
X29603Y28745D01*
X29614Y28753D01*
X29628Y28759D01*
X29642Y28765D01*
X29659Y28771D01*
X29677Y28776D01*
X29696Y28779D01*
X29715Y28781D01*
X29735Y28781D01*
X29765Y28780D01*
X29792Y28777D01*
X29818Y28772D01*
X29842Y28764D01*
X29864Y28754D01*
X29882Y28743D01*
X29898Y28731D01*
X29910Y28716D01*
X29921Y28700D01*
X29929Y28681D01*
X29936Y28660D01*
X29941Y28636D01*
X29855Y28624D01*
X29850Y28643D01*
X29843Y28660D01*
X29833Y28674D01*
X29821Y28687D01*
X29805Y28697D01*
X29787Y28704D01*
X29766Y28708D01*
X29741Y28709D01*
X29713Y28708D01*
X29690Y28704D01*
X29670Y28698D01*
X29655Y28689D01*
X29644Y28679D01*
X29636Y28667D01*
X29631Y28655D01*
X29629Y28642D01*
X29630Y28634D01*
X29632Y28626D01*
X29635Y28619D01*
X29640Y28612D01*
X29646Y28605D01*
X29654Y28599D01*
X29663Y28593D01*
X29674Y28588D01*
X29683Y28585D01*
X29700Y28580D01*
X29722Y28574D01*
X29751Y28566D01*
X29794Y28554D01*
X29830Y28543D01*
X29859Y28533D01*
X29881Y28525D01*
X29899Y28516D01*
X29914Y28505D01*
X29928Y28493D01*
X29939Y28479D01*
X29948Y28463D01*
X29955Y28445D01*
X29959Y28425D01*
X29960Y28404D01*
X29959Y28382D01*
X29954Y28361D01*
X29946Y28341D01*
X29935Y28321D01*
X29920Y28302D01*
X29903Y28286D01*
X29883Y28272D01*
X29861Y28261D01*
X29836Y28251D01*
X29809Y28245D01*
X29781Y28241D01*
X29751Y28239D01*
X29704Y28242D01*
X29662Y28250D01*
X29627Y28263D01*
X29597Y28281D01*
X29573Y28305D01*
X29554Y28334D01*
X29539Y28367D01*
X29530Y28406D01*
X29530Y28406D01*
X30160Y28251D02*
X30002Y28770D01*
X30093Y28770D01*
X30175Y28470D01*
X30206Y28359D01*
X30208Y28369D01*
X30214Y28390D01*
X30222Y28422D01*
X30233Y28466D01*
X30315Y28770D01*
X30406Y28770D01*
X30483Y28469D01*
X30509Y28370D01*
X30539Y28470D01*
X30628Y28770D01*
X30713Y28770D01*
X30551Y28251D01*
X30460Y28251D01*
X30377Y28562D01*
X30357Y28650D01*
X30252Y28251D01*
X30160Y28251D01*
X30160Y28251D01*
X30753Y28466D02*
X30753Y28554D01*
X31023Y28554D01*
X31023Y28466D01*
X30753Y28466D01*
X30753Y28466D01*
X31118Y28251D02*
X31118Y28967D01*
X31206Y28967D01*
X31206Y28251D01*
X31118Y28251D01*
X31118Y28251D01*
X31697Y28418D02*
X31788Y28407D01*
X31775Y28369D01*
X31757Y28336D01*
X31735Y28308D01*
X31708Y28283D01*
X31677Y28264D01*
X31642Y28250D01*
X31603Y28242D01*
X31560Y28239D01*
X31506Y28244D01*
X31458Y28257D01*
X31416Y28279D01*
X31379Y28310D01*
X31350Y28348D01*
X31329Y28394D01*
X31317Y28446D01*
X31313Y28506D01*
X31317Y28568D01*
X31330Y28622D01*
X31351Y28669D01*
X31380Y28709D01*
X31416Y28741D01*
X31458Y28763D01*
X31504Y28777D01*
X31555Y28781D01*
X31562Y28781D01*
X31556Y28709D01*
X31527Y28707D01*
X31500Y28699D01*
X31476Y28686D01*
X31454Y28669D01*
X31436Y28647D01*
X31422Y28621D01*
X31413Y28593D01*
X31408Y28560D01*
X31408Y28560D01*
X31698Y28560D01*
X31694Y28591D01*
X31687Y28618D01*
X31677Y28640D01*
X31665Y28658D01*
X31642Y28681D01*
X31617Y28697D01*
X31588Y28706D01*
X31556Y28709D01*
X31562Y28781D01*
X31605Y28777D01*
X31649Y28764D01*
X31690Y28742D01*
X31725Y28711D01*
X31754Y28672D01*
X31774Y28625D01*
X31787Y28572D01*
X31791Y28511D01*
X31791Y28507D01*
X31791Y28502D01*
X31791Y28495D01*
X31790Y28488D01*
X31404Y28488D01*
X31408Y28448D01*
X31418Y28413D01*
X31433Y28382D01*
X31452Y28357D01*
X31475Y28337D01*
X31501Y28323D01*
X31529Y28315D01*
X31560Y28312D01*
X31584Y28313D01*
X31605Y28318D01*
X31625Y28326D01*
X31643Y28337D01*
X31659Y28352D01*
X31673Y28370D01*
X31686Y28392D01*
X31697Y28418D01*
X31697Y28418D01*
X31919Y28251D02*
X31919Y28701D01*
X31842Y28701D01*
X31842Y28770D01*
X31919Y28770D01*
X31919Y28825D01*
X31920Y28849D01*
X31922Y28870D01*
X31924Y28888D01*
X31928Y28903D01*
X31936Y28919D01*
X31946Y28934D01*
X31958Y28947D01*
X31973Y28958D01*
X31991Y28967D01*
X32012Y28974D01*
X32036Y28978D01*
X32063Y28979D01*
X32082Y28979D01*
X32102Y28977D01*
X32123Y28974D01*
X32145Y28970D01*
X32132Y28894D01*
X32118Y28896D01*
X32105Y28897D01*
X32092Y28898D01*
X32080Y28899D01*
X32061Y28898D01*
X32046Y28894D01*
X32033Y28889D01*
X32023Y28882D01*
X32016Y28871D01*
X32011Y28857D01*
X32008Y28839D01*
X32007Y28818D01*
X32007Y28770D01*
X32108Y28770D01*
X32108Y28701D01*
X32007Y28701D01*
X32007Y28251D01*
X31919Y28251D01*
X31919Y28251D01*
X32368Y28330D02*
X32381Y28252D01*
X32363Y28249D01*
X32345Y28246D01*
X32329Y28245D01*
X32314Y28244D01*
X32292Y28245D01*
X32272Y28248D01*
X32255Y28253D01*
X32240Y28260D01*
X32228Y28268D01*
X32218Y28277D01*
X32209Y28288D01*
X32203Y28299D01*
X32198Y28315D01*
X32195Y28338D01*
X32193Y28367D01*
X32192Y28403D01*
X32192Y28701D01*
X32128Y28701D01*
X32128Y28770D01*
X32192Y28770D01*
X32192Y28898D01*
X32280Y28951D01*
X32280Y28770D01*
X32368Y28770D01*
X32368Y28701D01*
X32280Y28701D01*
X32280Y28398D01*
X32280Y28381D01*
X32281Y28367D01*
X32282Y28357D01*
X32284Y28350D01*
X32287Y28345D01*
X32290Y28340D01*
X32294Y28336D01*
X32299Y28333D01*
X32305Y28330D01*
X32312Y28328D01*
X32320Y28327D01*
X32329Y28326D01*
X32337Y28327D01*
X32346Y28327D01*
X32357Y28328D01*
X32368Y28330D01*
X32368Y28330D01*
G37*
%LNtop silkscreen component c0f73628fd176817*%
X46700Y56850D02*
X44300Y56850D01*
X44300Y63150*
X46700Y63150*
X46700Y56850*
X45500Y56850D02*
X45500Y57390D01*
X45500Y63150D02*
X45500Y62610D01*
D11*
X46630Y58425D02*
X44370Y58425D01*
G36*
X42469Y59495D02*
X42469Y60211D01*
X42786Y60211D01*
X42831Y60210D01*
X42870Y60206D01*
X42904Y60200D01*
X42932Y60192D01*
X42955Y60180D01*
X42976Y60165D01*
X42995Y60146D01*
X43011Y60124D01*
X43024Y60099D01*
X43033Y60072D01*
X43039Y60045D01*
X43041Y60016D01*
X43038Y59979D01*
X43029Y59946D01*
X43013Y59915D01*
X42992Y59887D01*
X42964Y59864D01*
X42929Y59845D01*
X42887Y59831D01*
X42864Y59826D01*
X42848Y59903D01*
X42869Y59909D01*
X42886Y59916D01*
X42901Y59926D01*
X42914Y59938D01*
X42924Y59952D01*
X42933Y59967D01*
X42938Y59983D01*
X42942Y59999D01*
X42943Y60016D01*
X42941Y60040D01*
X42934Y60062D01*
X42922Y60082D01*
X42906Y60099D01*
X42885Y60114D01*
X42859Y60124D01*
X42827Y60130D01*
X42790Y60132D01*
X42563Y60132D01*
X42563Y59895D01*
X42563Y59895D01*
X42767Y59895D01*
X42798Y59896D01*
X42825Y59899D01*
X42848Y59903D01*
X42864Y59826D01*
X42839Y59821D01*
X42857Y59812D01*
X42872Y59803D01*
X42885Y59794D01*
X42896Y59785D01*
X42917Y59765D01*
X42937Y59743D01*
X42956Y59718D01*
X42975Y59690D01*
X43099Y59495D01*
X42980Y59495D01*
X42886Y59644D01*
X42866Y59675D01*
X42848Y59701D01*
X42832Y59724D01*
X42817Y59743D01*
X42804Y59759D01*
X42792Y59772D01*
X42780Y59783D01*
X42769Y59791D01*
X42758Y59797D01*
X42748Y59802D01*
X42737Y59807D01*
X42726Y59810D01*
X42717Y59811D01*
X42705Y59812D01*
X42690Y59813D01*
X42673Y59813D01*
X42563Y59813D01*
X42563Y59495D01*
X42469Y59495D01*
X42469Y59495D01*
X43485Y59495D02*
X43397Y59495D01*
X43397Y60055D01*
X43380Y60040D01*
X43360Y60025D01*
X43338Y60010D01*
X43314Y59995D01*
X43288Y59981D01*
X43265Y59968D01*
X43242Y59958D01*
X43221Y59950D01*
X43221Y60034D01*
X43257Y60053D01*
X43290Y60073D01*
X43321Y60095D01*
X43350Y60118D01*
X43376Y60143D01*
X43397Y60167D01*
X43415Y60191D01*
X43428Y60214D01*
X43485Y60214D01*
X43485Y59495D01*
X43485Y59495D01*
G37*
M02*