<?xml version="1.0" encoding="utf-8" ?>
<svg baseProfile="tiny" height="328.684243934" version="1.2" width="310.967708934" xmlns="http://www.w3.org/2000/svg" xmlns:ev="http://www.w3.org/2001/xml-events" xmlns:xlink="http://www.w3.org/1999/xlink"><defs /><g id="paths" stroke="green"><path d="M 102.334249467,323.790936967 L 208.633459467,323.790936967 L 306.074401967,22.609841967 L 306.074401967,4.893306967 L 4.893306967,4.893306967 L 102.334249467,323.790936967 Z" fill-opacity="0" stroke-linejoin="round" stroke-width="1.0" /></g><g fill="red" id="top_parts" stroke="red"><line stroke-linecap="round" stroke-width="0.5" x1="162.5662" x2="219.2676" y1="224.5741" y2="224.5741" /><line stroke-linecap="round" stroke-width="0.5" x1="219.2676" x2="219.2676" y1="224.5741" y2="281.2755" /><line stroke-linecap="round" stroke-width="0.5" x1="219.2676" x2="162.5662" y1="281.2755" y2="281.2755" /><line stroke-linecap="round" stroke-width="0.5" x1="162.5662" x2="162.5662" y1="281.2755" y2="224.5741" /><text font-family="monospace" font-size="2" stroke-width="0.1" text-anchor="middle" x="190.916924467" y="252.924796967">sw-right</text><line stroke-linecap="round" stroke-width="0.5" x1="38.5505" x2="95.2519" y1="82.8418" y2="82.8418" /><line stroke-linecap="round" stroke-width="0.5" x1="95.2519" x2="95.2519" y1="82.8418" y2="139.5432" /><line stroke-linecap="round" stroke-width="0.5" x1="95.2519" x2="38.5505" y1="139.5432" y2="139.5432" /><line stroke-linecap="round" stroke-width="0.5" x1="38.5505" x2="38.5505" y1="139.5432" y2="82.8418" /><text font-family="monospace" font-size="2" stroke-width="0.1" text-anchor="middle" x="66.901179467" y="111.192516967">sw-alt-left</text><line stroke-linecap="round" stroke-width="0.5" x1="65.1253" x2="121.8267" y1="153.7079" y2="153.7079" /><line stroke-linecap="round" stroke-width="0.5" x1="121.8267" x2="121.8267" y1="153.7079" y2="210.4094" /><line stroke-linecap="round" stroke-width="0.5" x1="121.8267" x2="65.1253" y1="210.4094" y2="210.4094" /><line stroke-linecap="round" stroke-width="0.5" x1="65.1253" x2="65.1253" y1="210.4094" y2="153.7079" /><text font-family="monospace" font-size="2" stroke-width="0.1" text-anchor="middle" x="93.475981967" y="182.058656967">sw-shift-left</text><line stroke-linecap="round" stroke-width="0.5" x1="215.7158" x2="272.4172" y1="82.8418" y2="82.8418" /><line stroke-linecap="round" stroke-width="0.5" x1="272.4172" x2="272.4172" y1="82.8418" y2="139.5432" /><line stroke-linecap="round" stroke-width="0.5" x1="272.4172" x2="215.7158" y1="139.5432" y2="139.5432" /><line stroke-linecap="round" stroke-width="0.5" x1="215.7158" x2="215.7158" y1="139.5432" y2="82.8418" /><text font-family="monospace" font-size="2" stroke-width="0.1" text-anchor="middle" x="244.066529467" y="111.192516967">sw-alt-right</text><line stroke-linecap="round" stroke-width="0.5" x1="189.141" x2="245.8424" y1="153.7079" y2="153.7079" /><line stroke-linecap="round" stroke-width="0.5" x1="245.8424" x2="245.8424" y1="153.7079" y2="210.4094" /><line stroke-linecap="round" stroke-width="0.5" x1="245.8424" x2="189.141" y1="210.4094" y2="210.4094" /><line stroke-linecap="round" stroke-width="0.5" x1="189.141" x2="189.141" y1="210.4094" y2="153.7079" /><text font-family="monospace" font-size="2" stroke-width="0.1" text-anchor="middle" x="217.491726967" y="182.058656967">sw-shift-right</text><line stroke-linecap="round" stroke-width="0.5" x1="11.9757" x2="68.6771" y1="11.9757" y2="11.9757" /><line stroke-linecap="round" stroke-width="0.5" x1="68.6771" x2="68.6771" y1="11.9757" y2="68.6771" /><line stroke-linecap="round" stroke-width="0.5" x1="68.6771" x2="11.9757" y1="68.6771" y2="68.6771" /><line stroke-linecap="round" stroke-width="0.5" x1="11.9757" x2="11.9757" y1="68.6771" y2="11.9757" /><text font-family="monospace" font-size="2" stroke-width="0.1" text-anchor="middle" x="40.326376967" y="40.326376967">sw-ctrl-left</text><line stroke-linecap="round" stroke-width="0.5" x1="242.2906" x2="298.992" y1="11.9757" y2="11.9757" /><line stroke-linecap="round" stroke-width="0.5" x1="298.992" x2="298.992" y1="11.9757" y2="68.6771" /><line stroke-linecap="round" stroke-width="0.5" x1="298.992" x2="242.2906" y1="68.6771" y2="68.6771" /><line stroke-linecap="round" stroke-width="0.5" x1="242.2906" x2="242.2906" y1="68.6771" y2="11.9757" /><text font-family="monospace" font-size="2" stroke-width="0.1" text-anchor="middle" x="270.641331967" y="40.326376967">sw-ctrl-right</text><line stroke-linecap="round" stroke-width="0.5" x1="123.6118" x2="187.3559" y1="10.9878" y2="10.9878" /><line stroke-linecap="round" stroke-width="0.5" x1="187.3559" x2="187.3559" y1="10.9878" y2="140.5311" /><line stroke-linecap="round" stroke-width="0.5" x1="187.3559" x2="123.6118" y1="140.5311" y2="140.5311" /><line stroke-linecap="round" stroke-width="0.5" x1="123.6118" x2="123.6118" y1="140.5311" y2="10.9878" /><text font-family="monospace" font-size="2" stroke-width="0.1" text-anchor="middle" x="155.483854467" y="75.759446967">DEV1</text><line stroke-linecap="round" stroke-width="0.5" x1="157.0946" x2="157.0946" y1="128.413" y2="93.972" /><line stroke-linecap="round" stroke-width="0.5" x1="157.0946" x2="168.0463" y1="93.972" y2="93.972" /><line stroke-linecap="round" stroke-width="0.5" x1="168.0463" x2="168.0463" y1="93.972" y2="128.413" /><line stroke-linecap="round" stroke-width="0.5" x1="168.0463" x2="157.0946" y1="128.413" y2="128.413" /><text font-family="monospace" font-size="2" stroke-width="0.1" text-anchor="middle" x="162.570468467" y="111.192516967">R2</text><text font-family="monospace" font-size="2" stroke-width="0.1" text-anchor="middle" x="120.050784467" y="306.074401967">D1</text><text font-family="monospace" font-size="2" stroke-width="0.1" text-anchor="middle" x="190.916924467" y="306.074401967">D2</text><line stroke-linecap="round" stroke-width="0.5" x1="91.7001" x2="148.4015" y1="224.5741" y2="224.5741" /><line stroke-linecap="round" stroke-width="0.5" x1="148.4015" x2="148.4015" y1="224.5741" y2="281.2755" /><line stroke-linecap="round" stroke-width="0.5" x1="148.4015" x2="91.7001" y1="281.2755" y2="281.2755" /><line stroke-linecap="round" stroke-width="0.5" x1="91.7001" x2="91.7001" y1="281.2755" y2="224.5741" /><text font-family="monospace" font-size="2" stroke-width="0.1" text-anchor="middle" x="120.050784467" y="252.924796967">sw-left</text><line stroke-linecap="round" stroke-width="0.5" x1="142.9214" x2="142.9214" y1="128.413" y2="93.972" /><line stroke-linecap="round" stroke-width="0.5" x1="142.9214" x2="153.8731" y1="93.972" y2="93.972" /><line stroke-linecap="round" stroke-width="0.5" x1="153.8731" x2="153.8731" y1="93.972" y2="128.413" /><line stroke-linecap="round" stroke-width="0.5" x1="153.8731" x2="142.9214" y1="128.413" y2="128.413" /><text font-family="monospace" font-size="2" stroke-width="0.1" text-anchor="middle" x="148.397240467" y="111.192516967">R1</text></g><g fill="blue" id="bottom_parts" stroke="blue" /></svg>