<?xml version="1.0" encoding="utf-8" ?>
<svg baseProfile="tiny" height="328.684243934" version="1.2" width="346.400778934" xmlns="http://www.w3.org/2000/svg" xmlns:ev="http://www.w3.org/2001/xml-events" xmlns:xlink="http://www.w3.org/1999/xlink"><defs /><g id="paths" stroke="green"><path d="M 120.050784467,323.790936967 L 226.349994467,323.790936967 L 341.507471967,4.893306967 L 4.893306967,4.893306967 L 120.050784467,323.790936967 Z" fill-opacity="0" stroke-linejoin="round" stroke-width="1.0" /></g><g fill="red" id="top_parts" stroke="red"><line stroke-linecap="round" stroke-width="0.5" x1="180.2828" x2="236.9842" y1="224.5741" y2="224.5741" /><line stroke-linecap="round" stroke-width="0.5" x1="236.9842" x2="236.9842" y1="224.5741" y2="281.2755" /><line stroke-linecap="round" stroke-width="0.5" x1="236.9842" x2="180.2828" y1="281.2755" y2="281.2755" /><line stroke-linecap="round" stroke-width="0.5" x1="180.2828" x2="180.2828" y1="281.2755" y2="224.5741" /><text font-family="monospace" font-size="2" stroke-width="0.1" text-anchor="middle" x="208.633459467" y="252.924796967">sw-right</text><line stroke-linecap="round" stroke-width="0.5" x1="56.267" x2="112.9684" y1="82.8418" y2="82.8418" /><line stroke-linecap="round" stroke-width="0.5" x1="112.9684" x2="112.9684" y1="82.8418" y2="139.5432" /><line stroke-linecap="round" stroke-width="0.5" x1="112.9684" x2="56.267" y1="139.5432" y2="139.5432" /><line stroke-linecap="round" stroke-width="0.5" x1="56.267" x2="56.267" y1="139.5432" y2="82.8418" /><text font-family="monospace" font-size="2" stroke-width="0.1" text-anchor="middle" x="84.617714467" y="111.192516967">sw-alt-left</text><line stroke-linecap="round" stroke-width="0.5" x1="82.8418" x2="139.5432" y1="153.7079" y2="153.7079" /><line stroke-linecap="round" stroke-width="0.5" x1="139.5432" x2="139.5432" y1="153.7079" y2="210.4094" /><line stroke-linecap="round" stroke-width="0.5" x1="139.5432" x2="82.8418" y1="210.4094" y2="210.4094" /><line stroke-linecap="round" stroke-width="0.5" x1="82.8418" x2="82.8418" y1="210.4094" y2="153.7079" /><text font-family="monospace" font-size="2" stroke-width="0.1" text-anchor="middle" x="111.192516967" y="182.058656967">sw-shift-left</text><line stroke-linecap="round" stroke-width="0.5" x1="233.4324" x2="290.1338" y1="82.8418" y2="82.8418" /><line stroke-linecap="round" stroke-width="0.5" x1="290.1338" x2="290.1338" y1="82.8418" y2="139.5432" /><line stroke-linecap="round" stroke-width="0.5" x1="290.1338" x2="233.4324" y1="139.5432" y2="139.5432" /><line stroke-linecap="round" stroke-width="0.5" x1="233.4324" x2="233.4324" y1="139.5432" y2="82.8418" /><text font-family="monospace" font-size="2" stroke-width="0.1" text-anchor="middle" x="261.783064467" y="111.192516967">sw-alt-right</text><line stroke-linecap="round" stroke-width="0.5" x1="206.8576" x2="263.559" y1="153.7079" y2="153.7079" /><line stroke-linecap="round" stroke-width="0.5" x1="263.559" x2="263.559" y1="153.7079" y2="210.4094" /><line stroke-linecap="round" stroke-width="0.5" x1="263.559" x2="206.8576" y1="210.4094" y2="210.4094" /><line stroke-linecap="round" stroke-width="0.5" x1="206.8576" x2="206.8576" y1="210.4094" y2="153.7079" /><text font-family="monospace" font-size="2" stroke-width="0.1" text-anchor="middle" x="235.208261967" y="182.058656967">sw-shift-right</text><line stroke-linecap="round" stroke-width="0.5" x1="29.6922" x2="86.3936" y1="11.9757" y2="11.9757" /><line stroke-linecap="round" stroke-width="0.5" x1="86.3936" x2="86.3936" y1="11.9757" y2="68.6771" /><line stroke-linecap="round" stroke-width="0.5" x1="86.3936" x2="29.6922" y1="68.6771" y2="68.6771" /><line stroke-linecap="round" stroke-width="0.5" x1="29.6922" x2="29.6922" y1="68.6771" y2="11.9757" /><text font-family="monospace" font-size="2" stroke-width="0.1" text-anchor="middle" x="58.042911967" y="40.326376967">sw-ctrl-left</text><line stroke-linecap="round" stroke-width="0.5" x1="260.0072" x2="316.7086" y1="11.9757" y2="11.9757" /><line stroke-linecap="round" stroke-width="0.5" x1="316.7086" x2="316.7086" y1="11.9757" y2="68.6771" /><line stroke-linecap="round" stroke-width="0.5" x1="316.7086" x2="260.0072" y1="68.6771" y2="68.6771" /><line stroke-linecap="round" stroke-width="0.5" x1="260.0072" x2="260.0072" y1="68.6771" y2="11.9757" /><text font-family="monospace" font-size="2" stroke-width="0.1" text-anchor="middle" x="288.357866967" y="40.326376967">sw-ctrl-right</text><line stroke-linecap="round" stroke-width="0.5" x1="174.8112" x2="174.8112" y1="128.413" y2="93.972" /><line stroke-linecap="round" stroke-width="0.5" x1="174.8112" x2="185.7628" y1="93.972" y2="93.972" /><line stroke-linecap="round" stroke-width="0.5" x1="185.7628" x2="185.7628" y1="93.972" y2="128.413" /><line stroke-linecap="round" stroke-width="0.5" x1="185.7628" x2="174.8112" y1="128.413" y2="128.413" /><text font-family="monospace" font-size="2" stroke-width="0.1" text-anchor="middle" x="180.287003467" y="111.192516967">R2</text><text font-family="monospace" font-size="2" stroke-width="0.1" text-anchor="middle" x="137.767319467" y="306.074401967">D1</text><text font-family="monospace" font-size="2" stroke-width="0.1" text-anchor="middle" x="208.633459467" y="306.074401967">D2</text><line stroke-linecap="round" stroke-width="0.5" x1="141.3283" x2="205.0724" y1="10.9878" y2="10.9878" /><line stroke-linecap="round" stroke-width="0.5" x1="205.0724" x2="205.0724" y1="10.9878" y2="140.5311" /><line stroke-linecap="round" stroke-width="0.5" x1="205.0724" x2="141.3283" y1="140.5311" y2="140.5311" /><line stroke-linecap="round" stroke-width="0.5" x1="141.3283" x2="141.3283" y1="140.5311" y2="10.9878" /><text font-family="monospace" font-size="2" stroke-width="0.1" text-anchor="middle" x="173.200389467" y="75.759446967">NA118</text><line stroke-linecap="round" stroke-width="0.5" x1="109.4166" x2="166.118" y1="224.5741" y2="224.5741" /><line stroke-linecap="round" stroke-width="0.5" x1="166.118" x2="166.118" y1="224.5741" y2="281.2755" /><line stroke-linecap="round" stroke-width="0.5" x1="166.118" x2="109.4166" y1="281.2755" y2="281.2755" /><line stroke-linecap="round" stroke-width="0.5" x1="109.4166" x2="109.4166" y1="281.2755" y2="224.5741" /><text font-family="monospace" font-size="2" stroke-width="0.1" text-anchor="middle" x="137.767319467" y="252.924796967">sw-left</text><line stroke-linecap="round" stroke-width="0.5" x1="160.6379" x2="160.6379" y1="128.413" y2="93.972" /><line stroke-linecap="round" stroke-width="0.5" x1="160.6379" x2="171.5896" y1="93.972" y2="93.972" /><line stroke-linecap="round" stroke-width="0.5" x1="171.5896" x2="171.5896" y1="93.972" y2="128.413" /><line stroke-linecap="round" stroke-width="0.5" x1="171.5896" x2="160.6379" y1="128.413" y2="128.413" /><text font-family="monospace" font-size="2" stroke-width="0.1" text-anchor="middle" x="166.113775467" y="111.192516967">R1</text></g><g fill="blue" id="bottom_parts" stroke="blue" /></svg>