<?xml version="1.0" encoding="utf-8" ?>
<svg baseProfile="tiny" height="328.684243934" version="1.2" width="346.400778934" xmlns="http://www.w3.org/2000/svg" xmlns:ev="http://www.w3.org/2001/xml-events" xmlns:xlink="http://www.w3.org/1999/xlink"><defs /><g id="paths" stroke="blue"><path d="M 120.050784467,323.790936967 L 226.349994467,323.790936967 L 341.507471967,4.893306967 L 4.893306967,4.893306967 L 120.050784467,323.790936967 Z" fill-opacity="0" stroke-linejoin="round" stroke-width="1.0" /></g><g fill="red" id="holes"><circle cx="208.6335" cy="252.9248" r="7.065" stroke-width="0.0" /><circle cx="190.6335" cy="252.9248" r="3.015" stroke-width="0.0" /><circle cx="226.6335" cy="252.9248" r="3.015" stroke-width="0.0" /><circle cx="217.6335" cy="234.9248" r="2.655" stroke-width="0.0" /><circle cx="195.1335" cy="243.9248" r="2.655" stroke-width="0.0" /><circle cx="208.6335" cy="252.9248" r="0.0762" stroke-width="0.0" /><circle cx="115.6217" cy="40.3264" r="5.6693" stroke-width="0.0" /><circle cx="84.6177" cy="111.1925" r="7.065" stroke-width="0.0" /><circle cx="66.6177" cy="111.1925" r="3.015" stroke-width="0.0" /><circle cx="102.6177" cy="111.1925" r="3.015" stroke-width="0.0" /><circle cx="93.6177" cy="93.1925" r="2.655" stroke-width="0.0" /><circle cx="71.1177" cy="102.1925" r="2.655" stroke-width="0.0" /><circle cx="84.6177" cy="111.1925" r="0.0762" stroke-width="0.0" /><circle cx="111.1925" cy="182.0587" r="7.065" stroke-width="0.0" /><circle cx="93.1925" cy="182.0587" r="3.015" stroke-width="0.0" /><circle cx="129.1925" cy="182.0587" r="3.015" stroke-width="0.0" /><circle cx="120.1925" cy="164.0587" r="2.655" stroke-width="0.0" /><circle cx="97.6925" cy="173.0587" r="2.655" stroke-width="0.0" /><circle cx="111.1925" cy="182.0587" r="0.0762" stroke-width="0.0" /><circle cx="261.7831" cy="111.1925" r="7.065" stroke-width="0.0" /><circle cx="243.7831" cy="111.1925" r="3.015" stroke-width="0.0" /><circle cx="279.7831" cy="111.1925" r="3.015" stroke-width="0.0" /><circle cx="270.7831" cy="93.1925" r="2.655" stroke-width="0.0" /><circle cx="248.2831" cy="102.1925" r="2.655" stroke-width="0.0" /><circle cx="261.7831" cy="111.1925" r="0.0762" stroke-width="0.0" /><circle cx="235.2083" cy="182.0587" r="7.065" stroke-width="0.0" /><circle cx="217.2083" cy="182.0587" r="3.015" stroke-width="0.0" /><circle cx="253.2083" cy="182.0587" r="3.015" stroke-width="0.0" /><circle cx="244.2083" cy="164.0587" r="2.655" stroke-width="0.0" /><circle cx="221.7083" cy="173.0587" r="2.655" stroke-width="0.0" /><circle cx="235.2083" cy="182.0587" r="0.0762" stroke-width="0.0" /><circle cx="58.0429" cy="40.3264" r="7.065" stroke-width="0.0" /><circle cx="40.0429" cy="40.3264" r="3.015" stroke-width="0.0" /><circle cx="76.0429" cy="40.3264" r="3.015" stroke-width="0.0" /><circle cx="67.0429" cy="22.3264" r="2.655" stroke-width="0.0" /><circle cx="44.5429" cy="31.3264" r="2.655" stroke-width="0.0" /><circle cx="58.0429" cy="40.3264" r="0.0762" stroke-width="0.0" /><circle cx="288.3579" cy="40.3264" r="7.065" stroke-width="0.0" /><circle cx="270.3579" cy="40.3264" r="3.015" stroke-width="0.0" /><circle cx="306.3579" cy="40.3264" r="3.015" stroke-width="0.0" /><circle cx="297.3579" cy="22.3264" r="2.655" stroke-width="0.0" /><circle cx="274.8579" cy="31.3264" r="2.655" stroke-width="0.0" /><circle cx="288.3579" cy="40.3264" r="0.0762" stroke-width="0.0" /><circle cx="230.7791" cy="40.3264" r="5.6693" stroke-width="0.0" /><circle cx="180.287" cy="124.6925" r="1.8602" stroke-width="0.0" /><circle cx="180.287" cy="97.6925" r="1.8602" stroke-width="0.0" /><circle cx="133.2673" cy="306.0744" r="1.2402" stroke-width="0.0" /><circle cx="142.2673" cy="306.0744" r="1.2402" stroke-width="0.0" /><circle cx="204.1335" cy="306.0744" r="1.2402" stroke-width="0.0" /><circle cx="213.1335" cy="306.0744" r="1.2402" stroke-width="0.0" /><circle cx="173.2004" cy="182.0587" r="5.6693" stroke-width="0.0" /><circle cx="146.2004" cy="17.2594" r="1.6831" stroke-width="0.0" /><circle cx="146.2004" cy="26.2594" r="1.6831" stroke-width="0.0" /><circle cx="146.2004" cy="35.2594" r="1.6831" stroke-width="0.0" /><circle cx="146.2004" cy="44.2594" r="1.6831" stroke-width="0.0" /><circle cx="146.2004" cy="53.2594" r="1.6831" stroke-width="0.0" /><circle cx="146.2004" cy="62.2594" r="1.6831" stroke-width="0.0" /><circle cx="146.2004" cy="71.2594" r="1.6831" stroke-width="0.0" /><circle cx="146.2004" cy="80.2594" r="1.6831" stroke-width="0.0" /><circle cx="146.2004" cy="89.2594" r="1.6831" stroke-width="0.0" /><circle cx="146.2004" cy="98.2594" r="1.6831" stroke-width="0.0" /><circle cx="146.2004" cy="107.2594" r="1.6831" stroke-width="0.0" /><circle cx="146.2004" cy="116.2594" r="1.6831" stroke-width="0.0" /><circle cx="146.2004" cy="125.2594" r="1.6831" stroke-width="0.0" /><circle cx="146.2004" cy="134.2594" r="1.6831" stroke-width="0.0" /><circle cx="200.2004" cy="134.2594" r="1.6831" stroke-width="0.0" /><circle cx="200.2004" cy="125.2594" r="1.6831" stroke-width="0.0" /><circle cx="200.2004" cy="116.2594" r="1.6831" stroke-width="0.0" /><circle cx="200.2004" cy="107.2594" r="1.6831" stroke-width="0.0" /><circle cx="200.2004" cy="98.2594" r="1.6831" stroke-width="0.0" /><circle cx="200.2004" cy="89.2594" r="1.6831" stroke-width="0.0" /><circle cx="200.2004" cy="80.2594" r="1.6831" stroke-width="0.0" /><circle cx="200.2004" cy="71.2594" r="1.6831" stroke-width="0.0" /><circle cx="200.2004" cy="62.2594" r="1.6831" stroke-width="0.0" /><circle cx="200.2004" cy="53.2594" r="1.6831" stroke-width="0.0" /><circle cx="200.2004" cy="44.2594" r="1.6831" stroke-width="0.0" /><circle cx="200.2004" cy="35.2594" r="1.6831" stroke-width="0.0" /><circle cx="200.2004" cy="26.2594" r="1.6831" stroke-width="0.0" /><circle cx="200.2004" cy="17.2594" r="1.6831" stroke-width="0.0" /><circle cx="137.7673" cy="252.9248" r="7.065" stroke-width="0.0" /><circle cx="119.7673" cy="252.9248" r="3.015" stroke-width="0.0" /><circle cx="155.7673" cy="252.9248" r="3.015" stroke-width="0.0" /><circle cx="146.7673" cy="234.9248" r="2.655" stroke-width="0.0" /><circle cx="124.2673" cy="243.9248" r="2.655" stroke-width="0.0" /><circle cx="137.7673" cy="252.9248" r="0.0762" stroke-width="0.0" /><circle cx="166.1138" cy="124.6925" r="1.8602" stroke-width="0.0" /><circle cx="166.1138" cy="97.6925" r="1.8602" stroke-width="0.0" /></g><g id="rulers" stroke="black" /></svg>