<?xml version="1.0" encoding="utf-8" ?>
<svg baseProfile="tiny" height="328.684243934" version="1.2" width="310.967708934" xmlns="http://www.w3.org/2000/svg" xmlns:ev="http://www.w3.org/2001/xml-events" xmlns:xlink="http://www.w3.org/1999/xlink"><defs /><g id="paths" stroke="blue"><path d="M 102.334249467,323.790936967 L 208.633459467,323.790936967 L 306.074401967,22.609841967 L 306.074401967,4.893306967 L 4.893306967,4.893306967 L 102.334249467,323.790936967 Z" fill-opacity="0" stroke-linejoin="round" stroke-width="1.0" /></g><g fill="red" id="holes"><circle cx="190.9169" cy="252.9248" r="7.065" stroke-width="0.0" /><circle cx="172.9169" cy="252.9248" r="3.015" stroke-width="0.0" /><circle cx="208.9169" cy="252.9248" r="3.015" stroke-width="0.0" /><circle cx="199.9169" cy="234.9248" r="2.655" stroke-width="0.0" /><circle cx="177.4169" cy="243.9248" r="2.655" stroke-width="0.0" /><circle cx="190.9169" cy="252.9248" r="0.0762" stroke-width="0.0" /><circle cx="97.9051" cy="40.3264" r="5.6693" stroke-width="0.0" /><circle cx="66.9012" cy="111.1925" r="7.065" stroke-width="0.0" /><circle cx="48.9012" cy="111.1925" r="3.015" stroke-width="0.0" /><circle cx="84.9012" cy="111.1925" r="3.015" stroke-width="0.0" /><circle cx="75.9012" cy="93.1925" r="2.655" stroke-width="0.0" /><circle cx="53.4012" cy="102.1925" r="2.655" stroke-width="0.0" /><circle cx="66.9012" cy="111.1925" r="0.0762" stroke-width="0.0" /><circle cx="93.476" cy="182.0587" r="7.065" stroke-width="0.0" /><circle cx="75.476" cy="182.0587" r="3.015" stroke-width="0.0" /><circle cx="111.476" cy="182.0587" r="3.015" stroke-width="0.0" /><circle cx="102.476" cy="164.0587" r="2.655" stroke-width="0.0" /><circle cx="79.976" cy="173.0587" r="2.655" stroke-width="0.0" /><circle cx="93.476" cy="182.0587" r="0.0762" stroke-width="0.0" /><circle cx="244.0665" cy="111.1925" r="7.065" stroke-width="0.0" /><circle cx="226.0665" cy="111.1925" r="3.015" stroke-width="0.0" /><circle cx="262.0665" cy="111.1925" r="3.015" stroke-width="0.0" /><circle cx="253.0665" cy="93.1925" r="2.655" stroke-width="0.0" /><circle cx="230.5665" cy="102.1925" r="2.655" stroke-width="0.0" /><circle cx="244.0665" cy="111.1925" r="0.0762" stroke-width="0.0" /><circle cx="217.4917" cy="182.0587" r="7.065" stroke-width="0.0" /><circle cx="199.4917" cy="182.0587" r="3.015" stroke-width="0.0" /><circle cx="235.4917" cy="182.0587" r="3.015" stroke-width="0.0" /><circle cx="226.4917" cy="164.0587" r="2.655" stroke-width="0.0" /><circle cx="203.9917" cy="173.0587" r="2.655" stroke-width="0.0" /><circle cx="217.4917" cy="182.0587" r="0.0762" stroke-width="0.0" /><circle cx="40.3264" cy="40.3264" r="7.065" stroke-width="0.0" /><circle cx="22.3264" cy="40.3264" r="3.015" stroke-width="0.0" /><circle cx="58.3264" cy="40.3264" r="3.015" stroke-width="0.0" /><circle cx="49.3264" cy="22.3264" r="2.655" stroke-width="0.0" /><circle cx="26.8264" cy="31.3264" r="2.655" stroke-width="0.0" /><circle cx="40.3264" cy="40.3264" r="0.0762" stroke-width="0.0" /><circle cx="270.6413" cy="40.3264" r="7.065" stroke-width="0.0" /><circle cx="252.6413" cy="40.3264" r="3.015" stroke-width="0.0" /><circle cx="288.6413" cy="40.3264" r="3.015" stroke-width="0.0" /><circle cx="279.6413" cy="22.3264" r="2.655" stroke-width="0.0" /><circle cx="257.1413" cy="31.3264" r="2.655" stroke-width="0.0" /><circle cx="270.6413" cy="40.3264" r="0.0762" stroke-width="0.0" /><circle cx="213.0626" cy="40.3264" r="5.6693" stroke-width="0.0" /><circle cx="173.4839" cy="26.2594" r="1.6831" stroke-width="0.0" /><circle cx="173.4839" cy="44.2594" r="1.6831" stroke-width="0.0" /><circle cx="173.4839" cy="53.2594" r="1.6831" stroke-width="0.0" /><circle cx="173.4839" cy="62.2594" r="1.6831" stroke-width="0.0" /><circle cx="173.4839" cy="134.2594" r="1.6831" stroke-width="0.0" /><circle cx="164.4839" cy="134.2594" r="1.6831" stroke-width="0.0" /><circle cx="155.4839" cy="134.2594" r="1.6831" stroke-width="0.0" /><circle cx="146.4839" cy="134.2594" r="1.6831" stroke-width="0.0" /><circle cx="137.4839" cy="134.2594" r="1.6831" stroke-width="0.0" /><circle cx="128.4839" cy="17.2594" r="1.6831" stroke-width="0.0" /><circle cx="128.4839" cy="26.2594" r="1.6831" stroke-width="0.0" /><circle cx="128.4839" cy="35.2594" r="1.6831" stroke-width="0.0" /><circle cx="128.4839" cy="44.2594" r="1.6831" stroke-width="0.0" /><circle cx="128.4839" cy="53.2594" r="1.6831" stroke-width="0.0" /><circle cx="128.4839" cy="62.2594" r="1.6831" stroke-width="0.0" /><circle cx="128.4839" cy="71.2594" r="1.6831" stroke-width="0.0" /><circle cx="128.4839" cy="80.2594" r="1.6831" stroke-width="0.0" /><circle cx="128.4839" cy="89.2594" r="1.6831" stroke-width="0.0" /><circle cx="128.4839" cy="98.2594" r="1.6831" stroke-width="0.0" /><circle cx="128.4839" cy="107.2594" r="1.6831" stroke-width="0.0" /><circle cx="128.4839" cy="116.2594" r="1.6831" stroke-width="0.0" /><circle cx="128.4839" cy="125.2594" r="1.6831" stroke-width="0.0" /><circle cx="128.4839" cy="134.2594" r="1.6831" stroke-width="0.0" /><circle cx="182.4839" cy="134.2594" r="1.6831" stroke-width="0.0" /><circle cx="182.4839" cy="125.2594" r="1.6831" stroke-width="0.0" /><circle cx="182.4839" cy="116.2594" r="1.6831" stroke-width="0.0" /><circle cx="182.4839" cy="107.2594" r="1.6831" stroke-width="0.0" /><circle cx="182.4839" cy="98.2594" r="1.6831" stroke-width="0.0" /><circle cx="182.4839" cy="89.2594" r="1.6831" stroke-width="0.0" /><circle cx="182.4839" cy="80.2594" r="1.6831" stroke-width="0.0" /><circle cx="182.4839" cy="71.2594" r="1.6831" stroke-width="0.0" /><circle cx="182.4839" cy="62.2594" r="1.6831" stroke-width="0.0" /><circle cx="182.4839" cy="53.2594" r="1.6831" stroke-width="0.0" /><circle cx="182.4839" cy="44.2594" r="1.6831" stroke-width="0.0" /><circle cx="182.4839" cy="35.2594" r="1.6831" stroke-width="0.0" /><circle cx="182.4839" cy="26.2594" r="1.6831" stroke-width="0.0" /><circle cx="182.4839" cy="17.2594" r="1.6831" stroke-width="0.0" /><circle cx="162.5705" cy="124.6925" r="1.8602" stroke-width="0.0" /><circle cx="162.5705" cy="97.6925" r="1.8602" stroke-width="0.0" /><circle cx="115.5508" cy="306.0744" r="1.2402" stroke-width="0.0" /><circle cx="124.5508" cy="306.0744" r="1.2402" stroke-width="0.0" /><circle cx="186.4169" cy="306.0744" r="1.2402" stroke-width="0.0" /><circle cx="195.4169" cy="306.0744" r="1.2402" stroke-width="0.0" /><circle cx="155.4839" cy="182.0587" r="5.6693" stroke-width="0.0" /><circle cx="120.0508" cy="252.9248" r="7.065" stroke-width="0.0" /><circle cx="102.0508" cy="252.9248" r="3.015" stroke-width="0.0" /><circle cx="138.0508" cy="252.9248" r="3.015" stroke-width="0.0" /><circle cx="129.0508" cy="234.9248" r="2.655" stroke-width="0.0" /><circle cx="106.5508" cy="243.9248" r="2.655" stroke-width="0.0" /><circle cx="120.0508" cy="252.9248" r="0.0762" stroke-width="0.0" /><circle cx="148.3972" cy="124.6925" r="1.8602" stroke-width="0.0" /><circle cx="148.3972" cy="97.6925" r="1.8602" stroke-width="0.0" /></g><g id="rulers" stroke="black" /></svg>