<?xml version='1.0' encoding='UTF-8' standalone='no'?>
<svg xmlns="http://www.w3.org/2000/svg" width="1570" height="436" x="0" y="0"><text x="418" y="201" font-size="10" font-family="sans-serif" text-anchor="start" alignment-baseline="hanging">120 ohm</text><text x="10" y="246" font-size="10" font-family="sans-serif" text-anchor="start" alignment-baseline="hanging">M2</text><text x="870" y="176" font-size="10" font-family="sans-serif" text-anchor="start" alignment-baseline="hanging">MX1A-11NW</text><text x="870" y="296" font-size="10" font-family="sans-serif" text-anchor="start" alignment-baseline="hanging">sw-right</text><text x="245" y="116" font-size="10" font-family="sans-serif" text-anchor="end" alignment-baseline="middle">blinky-1</text><text x="999" y="246" font-size="10" font-family="sans-serif" text-anchor="start" alignment-baseline="middle">shift-right</text><text x="760" y="56" font-size="10" font-family="sans-serif" text-anchor="end" alignment-baseline="hanging">sw-ctrl-left</text><text x="870" y="136" font-size="10" font-family="sans-serif" text-anchor="start" alignment-baseline="hanging">sw-alt-right</text><text x="455" y="116" font-size="10" font-family="sans-serif" text-anchor="start" alignment-baseline="middle">blinky-2</text><text x="10" y="346" font-size="10" font-family="sans-serif" text-anchor="start" alignment-baseline="hanging">M3</text><text x="870" y="216" font-size="10" font-family="sans-serif" text-anchor="start" alignment-baseline="hanging">sw-shift-right</text><text x="770" y="296" font-size="10" font-family="sans-serif" text-anchor="end" alignment-baseline="hanging">sw-left</text><text x="1449" y="206" font-size="10" font-family="sans-serif" text-anchor="start" alignment-baseline="middle">ctrl-right</text><text x="870" y="336" font-size="10" font-family="sans-serif" text-anchor="start" alignment-baseline="hanging">MX1A-11NW</text><text x="393" y="268" font-size="10" font-family="sans-serif" text-anchor="end" alignment-baseline="hanging">D2</text><text x="90" y="406" font-size="10" font-family="sans-serif" text-anchor="start" alignment-baseline="hanging">GND</text><text x="870" y="56" font-size="10" font-family="sans-serif" text-anchor="start" alignment-baseline="hanging">sw-ctrl-right</text><text x="1111" y="316" font-size="10" font-family="sans-serif" text-anchor="end" alignment-baseline="middle">shift-left</text><text x="1115" y="246" font-size="10" font-family="sans-serif" text-anchor="end" alignment-baseline="middle">blinky-1</text><text x="1115" y="256" font-size="10" font-family="sans-serif" text-anchor="end" alignment-baseline="middle">blinky-2</text><text x="1169" y="41" font-size="10" font-family="sans-serif" text-anchor="start" alignment-baseline="hanging">DEV1</text><text x="631" y="246" font-size="10" font-family="sans-serif" text-anchor="end" alignment-baseline="middle">shift-left</text><text x="770" y="336" font-size="10" font-family="sans-serif" text-anchor="end" alignment-baseline="hanging">MX1A-11NW</text><text x="318" y="203" font-size="10" font-family="sans-serif" text-anchor="start" alignment-baseline="hanging">120 ohm</text><text x="1400" y="416" font-size="10" font-family="sans-serif" text-anchor="start" alignment-baseline="hanging">GND</text><text x="999" y="326" font-size="10" font-family="sans-serif" text-anchor="start" alignment-baseline="middle">right</text><text x="1449" y="126" font-size="10" font-family="sans-serif" text-anchor="start" alignment-baseline="middle">alt-left</text><text x="631" y="166" font-size="10" font-family="sans-serif" text-anchor="end" alignment-baseline="middle">alt-left</text><text x="999" y="166" font-size="10" font-family="sans-serif" text-anchor="start" alignment-baseline="middle">alt-right</text><text x="999" y="86" font-size="10" font-family="sans-serif" text-anchor="start" alignment-baseline="middle">ctrl-right</text><text x="1449" y="266" font-size="10" font-family="sans-serif" text-anchor="start" alignment-baseline="middle">shift-right</text><text x="290" y="406" font-size="10" font-family="sans-serif" text-anchor="start" alignment-baseline="hanging">GND</text><text x="760" y="176" font-size="10" font-family="sans-serif" text-anchor="end" alignment-baseline="hanging">MX1A-11NW</text><text x="631" y="86" font-size="10" font-family="sans-serif" text-anchor="end" alignment-baseline="middle">ctrl-left</text><text x="10" y="286" font-size="10" font-family="sans-serif" text-anchor="start" alignment-baseline="hanging">Mounting Hole M3</text><text x="760" y="256" font-size="10" font-family="sans-serif" text-anchor="end" alignment-baseline="hanging">MX1A-11NW</text><text x="293" y="271" font-size="10" font-family="sans-serif" text-anchor="end" alignment-baseline="hanging">D1</text><text x="870" y="256" font-size="10" font-family="sans-serif" text-anchor="start" alignment-baseline="hanging">MX1A-11NW</text><text x="390" y="406" font-size="10" font-family="sans-serif" text-anchor="start" alignment-baseline="hanging">GND</text><text x="760" y="136" font-size="10" font-family="sans-serif" text-anchor="end" alignment-baseline="hanging">sw-alt-left</text><text x="760" y="96" font-size="10" font-family="sans-serif" text-anchor="end" alignment-baseline="hanging">MX1A-11NW</text><text x="760" y="216" font-size="10" font-family="sans-serif" text-anchor="end" alignment-baseline="hanging">sw-shift-left</text><text x="1449" y="276" font-size="10" font-family="sans-serif" text-anchor="start" alignment-baseline="middle">right</text><text x="418" y="191" font-size="10" font-family="sans-serif" text-anchor="start" alignment-baseline="hanging">R2</text><text x="1449" y="236" font-size="10" font-family="sans-serif" text-anchor="start" alignment-baseline="middle">alt-right</text><text x="318" y="193" font-size="10" font-family="sans-serif" text-anchor="start" alignment-baseline="hanging">R1</text><text x="641" y="326" font-size="10" font-family="sans-serif" text-anchor="end" alignment-baseline="middle">left</text><text x="1111" y="326" font-size="10" font-family="sans-serif" text-anchor="end" alignment-baseline="middle">left</text><text x="10" y="146" font-size="10" font-family="sans-serif" text-anchor="start" alignment-baseline="hanging">M1</text><text x="10" y="186" font-size="10" font-family="sans-serif" text-anchor="start" alignment-baseline="hanging">Mounting Hole M3</text><text x="1175" y="350" font-size="10" font-family="sans-serif" text-anchor="start" alignment-baseline="hanging">Teensy-LC</text><text x="1449" y="116" font-size="10" font-family="sans-serif" text-anchor="start" alignment-baseline="middle">ctrl-left</text><text x="810" y="406" font-size="10" font-family="sans-serif" text-anchor="start" alignment-baseline="hanging">GND</text><text x="10" y="86" font-size="10" font-family="sans-serif" text-anchor="start" alignment-baseline="hanging">Mounting Hole M3</text><text x="870" y="96" font-size="10" font-family="sans-serif" text-anchor="start" alignment-baseline="hanging">MX1A-11NW</text><line x1="665" y1="326" x2="670" y2="326" stroke-width="2" stroke="black"></line><line x1="660" y1="329" x2="665" y2="326" stroke-width="2" stroke="black"></line><line x1="660" y1="323" x2="665" y2="326" stroke-width="2" stroke="black"></line><line x1="660" y1="329" x2="650" y2="329" stroke-width="2" stroke="black"></line><line x1="660" y1="323" x2="650" y2="323" stroke-width="2" stroke="black"></line><line x1="650" y1="329" x2="650" y2="323" stroke-width="2" stroke="black"></line><line x1="1407" y1="153" x2="1413" y2="159" stroke-width="2" stroke="black"></line><line x1="1407" y1="159" x2="1413" y2="153" stroke-width="2" stroke="black"></line><line x1="300" y1="216" x2="295" y2="213" stroke-width="2" stroke="black"></line><line x1="295" y1="213" x2="305" y2="208" stroke-width="2" stroke="black"></line><line x1="305" y1="208" x2="295" y2="203" stroke-width="2" stroke="black"></line><line x1="295" y1="203" x2="305" y2="198" stroke-width="2" stroke="black"></line><line x1="305" y1="198" x2="295" y2="193" stroke-width="2" stroke="black"></line><line x1="295" y1="193" x2="305" y2="188" stroke-width="2" stroke="black"></line><line x1="305" y1="188" x2="300" y2="186" stroke-width="2" stroke="black"></line><line x1="300" y1="226" x2="300" y2="216" stroke-width="2" stroke="black"></line><line x1="300" y1="186" x2="300" y2="176" stroke-width="2" stroke="black"></line><line x1="1425" y1="276" x2="1420" y2="276" stroke-width="2" stroke="black"></line><line x1="1430" y1="279" x2="1425" y2="276" stroke-width="2" stroke="black"></line><line x1="1430" y1="273" x2="1425" y2="276" stroke-width="2" stroke="black"></line><line x1="1430" y1="279" x2="1440" y2="279" stroke-width="2" stroke="black"></line><line x1="1430" y1="273" x2="1440" y2="273" stroke-width="2" stroke="black"></line><line x1="1440" y1="279" x2="1440" y2="273" stroke-width="2" stroke="black"></line><line x1="975" y1="86" x2="970" y2="86" stroke-width="2" stroke="black"></line><line x1="980" y1="89" x2="975" y2="86" stroke-width="2" stroke="black"></line><line x1="980" y1="83" x2="975" y2="86" stroke-width="2" stroke="black"></line><line x1="980" y1="89" x2="990" y2="89" stroke-width="2" stroke="black"></line><line x1="980" y1="83" x2="990" y2="83" stroke-width="2" stroke="black"></line><line x1="990" y1="89" x2="990" y2="83" stroke-width="2" stroke="black"></line><line x1="400" y1="376" x2="400" y2="386" stroke-width="2" stroke="black"></line><line x1="390" y1="386" x2="410" y2="386" stroke-width="2" stroke="black"></line><line x1="393" y1="391" x2="407" y2="391" stroke-width="2" stroke="black"></line><line x1="396" y1="396" x2="404" y2="396" stroke-width="2" stroke="black"></line><line x1="400" y1="216" x2="395" y2="213" stroke-width="2" stroke="black"></line><line x1="395" y1="213" x2="405" y2="208" stroke-width="2" stroke="black"></line><line x1="405" y1="208" x2="395" y2="203" stroke-width="2" stroke="black"></line><line x1="395" y1="203" x2="405" y2="198" stroke-width="2" stroke="black"></line><line x1="405" y1="198" x2="395" y2="193" stroke-width="2" stroke="black"></line><line x1="395" y1="193" x2="405" y2="188" stroke-width="2" stroke="black"></line><line x1="405" y1="188" x2="400" y2="186" stroke-width="2" stroke="black"></line><line x1="400" y1="226" x2="400" y2="216" stroke-width="2" stroke="black"></line><line x1="400" y1="186" x2="400" y2="176" stroke-width="2" stroke="black"></line><line x1="435" y1="116" x2="430" y2="116" stroke-width="2" stroke="black"></line><line x1="450" y1="116" x2="445" y2="119" stroke-width="2" stroke="black"></line><line x1="450" y1="116" x2="445" y2="113" stroke-width="2" stroke="black"></line><line x1="445" y1="119" x2="435" y2="119" stroke-width="2" stroke="black"></line><line x1="445" y1="113" x2="435" y2="113" stroke-width="2" stroke="black"></line><line x1="435" y1="119" x2="435" y2="113" stroke-width="2" stroke="black"></line><line x1="1407" y1="223" x2="1413" y2="229" stroke-width="2" stroke="black"></line><line x1="1407" y1="229" x2="1413" y2="223" stroke-width="2" stroke="black"></line><line x1="1137" y1="273" x2="1143" y2="279" stroke-width="2" stroke="black"></line><line x1="1137" y1="279" x2="1143" y2="273" stroke-width="2" stroke="black"></line><line x1="655" y1="246" x2="660" y2="246" stroke-width="2" stroke="black"></line><line x1="650" y1="249" x2="655" y2="246" stroke-width="2" stroke="black"></line><line x1="650" y1="243" x2="655" y2="246" stroke-width="2" stroke="black"></line><line x1="650" y1="249" x2="640" y2="249" stroke-width="2" stroke="black"></line><line x1="650" y1="243" x2="640" y2="243" stroke-width="2" stroke="black"></line><line x1="640" y1="249" x2="640" y2="243" stroke-width="2" stroke="black"></line><line x1="760" y1="326" x2="750" y2="326" stroke-width="2" stroke="black"></line><circle cx="747" cy="326" r="3" style="stroke: #000; stroke-width: 1; fill: none;"></circle><circle cx="733" cy="326" r="3" style="stroke: #000; stroke-width: 1; fill: none;"></circle><line x1="730" y1="326" x2="720" y2="326" stroke-width="2" stroke="black"></line><line x1="744" y1="326" x2="734" y2="316" stroke-width="2" stroke="black"></line><line x1="1137" y1="63" x2="1143" y2="69" stroke-width="2" stroke="black"></line><line x1="1137" y1="69" x2="1143" y2="63" stroke-width="2" stroke="black"></line><line x1="655" y1="166" x2="660" y2="166" stroke-width="2" stroke="black"></line><line x1="650" y1="169" x2="655" y2="166" stroke-width="2" stroke="black"></line><line x1="650" y1="163" x2="655" y2="166" stroke-width="2" stroke="black"></line><line x1="650" y1="169" x2="640" y2="169" stroke-width="2" stroke="black"></line><line x1="650" y1="163" x2="640" y2="163" stroke-width="2" stroke="black"></line><line x1="640" y1="169" x2="640" y2="163" stroke-width="2" stroke="black"></line><line x1="655" y1="86" x2="660" y2="86" stroke-width="2" stroke="black"></line><line x1="650" y1="89" x2="655" y2="86" stroke-width="2" stroke="black"></line><line x1="650" y1="83" x2="655" y2="86" stroke-width="2" stroke="black"></line><line x1="650" y1="89" x2="640" y2="89" stroke-width="2" stroke="black"></line><line x1="650" y1="83" x2="640" y2="83" stroke-width="2" stroke="black"></line><line x1="640" y1="89" x2="640" y2="83" stroke-width="2" stroke="black"></line><line x1="390" y1="286" x2="410" y2="286" stroke-width="2" stroke="black"></line><line x1="390" y1="306" x2="410" y2="306" stroke-width="2" stroke="black"></line><line x1="390" y1="286" x2="400" y2="306" stroke-width="2" stroke="black"></line><line x1="410" y1="286" x2="400" y2="306" stroke-width="2" stroke="black"></line><line x1="390" y1="296" x2="380" y2="306" stroke-width="2" stroke="black"></line><line x1="380" y1="306" x2="380" y2="301" stroke-width="2" stroke="black"></line><line x1="380" y1="306" x2="385" y2="306" stroke-width="2" stroke="black"></line><line x1="390" y1="306" x2="380" y2="316" stroke-width="2" stroke="black"></line><line x1="380" y1="316" x2="380" y2="311" stroke-width="2" stroke="black"></line><line x1="380" y1="316" x2="385" y2="316" stroke-width="2" stroke="black"></line><line x1="400" y1="276" x2="400" y2="286" stroke-width="2" stroke="black"></line><line x1="400" y1="306" x2="400" y2="316" stroke-width="2" stroke="black"></line><line x1="880" y1="326" x2="890" y2="326" stroke-width="2" stroke="black"></line><circle cx="893" cy="326" r="3" style="stroke: #000; stroke-width: 1; fill: none;"></circle><circle cx="907" cy="326" r="3" style="stroke: #000; stroke-width: 1; fill: none;"></circle><line x1="910" y1="326" x2="920" y2="326" stroke-width="2" stroke="black"></line><line x1="896" y1="326" x2="906" y2="316" stroke-width="2" stroke="black"></line><line x1="1137" y1="213" x2="1143" y2="219" stroke-width="2" stroke="black"></line><line x1="1137" y1="219" x2="1143" y2="213" stroke-width="2" stroke="black"></line><line x1="975" y1="166" x2="970" y2="166" stroke-width="2" stroke="black"></line><line x1="980" y1="169" x2="975" y2="166" stroke-width="2" stroke="black"></line><line x1="980" y1="163" x2="975" y2="166" stroke-width="2" stroke="black"></line><line x1="980" y1="169" x2="990" y2="169" stroke-width="2" stroke="black"></line><line x1="980" y1="163" x2="990" y2="163" stroke-width="2" stroke="black"></line><line x1="990" y1="169" x2="990" y2="163" stroke-width="2" stroke="black"></line><line x1="300" y1="376" x2="300" y2="386" stroke-width="2" stroke="black"></line><line x1="290" y1="386" x2="310" y2="386" stroke-width="2" stroke="black"></line><line x1="293" y1="391" x2="307" y2="391" stroke-width="2" stroke="black"></line><line x1="296" y1="396" x2="304" y2="396" stroke-width="2" stroke="black"></line><line x1="750" y1="246" x2="740" y2="246" stroke-width="2" stroke="black"></line><circle cx="737" cy="246" r="3" style="stroke: #000; stroke-width: 1; fill: none;"></circle><circle cx="723" cy="246" r="3" style="stroke: #000; stroke-width: 1; fill: none;"></circle><line x1="720" y1="246" x2="710" y2="246" stroke-width="2" stroke="black"></line><line x1="734" y1="246" x2="724" y2="236" stroke-width="2" stroke="black"></line><line x1="1135" y1="256" x2="1140" y2="256" stroke-width="2" stroke="black"></line><line x1="1120" y1="256" x2="1125" y2="259" stroke-width="2" stroke="black"></line><line x1="1120" y1="256" x2="1125" y2="253" stroke-width="2" stroke="black"></line><line x1="1125" y1="259" x2="1135" y2="259" stroke-width="2" stroke="black"></line><line x1="1125" y1="253" x2="1135" y2="253" stroke-width="2" stroke="black"></line><line x1="1135" y1="259" x2="1135" y2="253" stroke-width="2" stroke="black"></line><line x1="820" y1="376" x2="820" y2="386" stroke-width="2" stroke="black"></line><line x1="810" y1="386" x2="830" y2="386" stroke-width="2" stroke="black"></line><line x1="813" y1="391" x2="827" y2="391" stroke-width="2" stroke="black"></line><line x1="816" y1="396" x2="824" y2="396" stroke-width="2" stroke="black"></line><circle cx="40" cy="126" r="20" style="stroke: #000; stroke-width: 1; fill: none;"></circle><line x1="70" y1="126" x2="60" y2="126" stroke-width="2" stroke="black"></line><line x1="1135" y1="316" x2="1140" y2="316" stroke-width="2" stroke="black"></line><line x1="1130" y1="319" x2="1135" y2="316" stroke-width="2" stroke="black"></line><line x1="1130" y1="313" x2="1135" y2="316" stroke-width="2" stroke="black"></line><line x1="1130" y1="319" x2="1120" y2="319" stroke-width="2" stroke="black"></line><line x1="1130" y1="313" x2="1120" y2="313" stroke-width="2" stroke="black"></line><line x1="1120" y1="319" x2="1120" y2="313" stroke-width="2" stroke="black"></line><line x1="1137" y1="83" x2="1143" y2="89" stroke-width="2" stroke="black"></line><line x1="1137" y1="89" x2="1143" y2="83" stroke-width="2" stroke="black"></line><line x1="1425" y1="116" x2="1420" y2="116" stroke-width="2" stroke="black"></line><line x1="1430" y1="119" x2="1425" y2="116" stroke-width="2" stroke="black"></line><line x1="1430" y1="113" x2="1425" y2="116" stroke-width="2" stroke="black"></line><line x1="1430" y1="119" x2="1440" y2="119" stroke-width="2" stroke="black"></line><line x1="1430" y1="113" x2="1440" y2="113" stroke-width="2" stroke="black"></line><line x1="1440" y1="119" x2="1440" y2="113" stroke-width="2" stroke="black"></line><line x1="1407" y1="243" x2="1413" y2="249" stroke-width="2" stroke="black"></line><line x1="1407" y1="249" x2="1413" y2="243" stroke-width="2" stroke="black"></line><line x1="265" y1="116" x2="270" y2="116" stroke-width="2" stroke="black"></line><line x1="250" y1="116" x2="255" y2="119" stroke-width="2" stroke="black"></line><line x1="250" y1="116" x2="255" y2="113" stroke-width="2" stroke="black"></line><line x1="255" y1="119" x2="265" y2="119" stroke-width="2" stroke="black"></line><line x1="255" y1="113" x2="265" y2="113" stroke-width="2" stroke="black"></line><line x1="265" y1="119" x2="265" y2="113" stroke-width="2" stroke="black"></line><line x1="1407" y1="193" x2="1413" y2="199" stroke-width="2" stroke="black"></line><line x1="1407" y1="199" x2="1413" y2="193" stroke-width="2" stroke="black"></line><line x1="1407" y1="83" x2="1413" y2="89" stroke-width="2" stroke="black"></line><line x1="1407" y1="89" x2="1413" y2="83" stroke-width="2" stroke="black"></line><line x1="1137" y1="283" x2="1143" y2="289" stroke-width="2" stroke="black"></line><line x1="1137" y1="289" x2="1143" y2="283" stroke-width="2" stroke="black"></line><line x1="750" y1="86" x2="740" y2="86" stroke-width="2" stroke="black"></line><circle cx="737" cy="86" r="3" style="stroke: #000; stroke-width: 1; fill: none;"></circle><circle cx="723" cy="86" r="3" style="stroke: #000; stroke-width: 1; fill: none;"></circle><line x1="720" y1="86" x2="710" y2="86" stroke-width="2" stroke="black"></line><line x1="734" y1="86" x2="724" y2="76" stroke-width="2" stroke="black"></line><line x1="1137" y1="223" x2="1143" y2="229" stroke-width="2" stroke="black"></line><line x1="1137" y1="229" x2="1143" y2="223" stroke-width="2" stroke="black"></line><line x1="1407" y1="93" x2="1413" y2="99" stroke-width="2" stroke="black"></line><line x1="1407" y1="99" x2="1413" y2="93" stroke-width="2" stroke="black"></line><line x1="1137" y1="123" x2="1143" y2="129" stroke-width="2" stroke="black"></line><line x1="1137" y1="129" x2="1143" y2="123" stroke-width="2" stroke="black"></line><line x1="1137" y1="183" x2="1143" y2="189" stroke-width="2" stroke="black"></line><line x1="1137" y1="189" x2="1143" y2="183" stroke-width="2" stroke="black"></line><line x1="1425" y1="266" x2="1420" y2="266" stroke-width="2" stroke="black"></line><line x1="1430" y1="269" x2="1425" y2="266" stroke-width="2" stroke="black"></line><line x1="1430" y1="263" x2="1425" y2="266" stroke-width="2" stroke="black"></line><line x1="1430" y1="269" x2="1440" y2="269" stroke-width="2" stroke="black"></line><line x1="1430" y1="263" x2="1440" y2="263" stroke-width="2" stroke="black"></line><line x1="1440" y1="269" x2="1440" y2="263" stroke-width="2" stroke="black"></line><line x1="1137" y1="133" x2="1143" y2="139" stroke-width="2" stroke="black"></line><line x1="1137" y1="139" x2="1143" y2="133" stroke-width="2" stroke="black"></line><line x1="1407" y1="253" x2="1413" y2="259" stroke-width="2" stroke="black"></line><line x1="1407" y1="259" x2="1413" y2="253" stroke-width="2" stroke="black"></line><line x1="1425" y1="236" x2="1420" y2="236" stroke-width="2" stroke="black"></line><line x1="1430" y1="239" x2="1425" y2="236" stroke-width="2" stroke="black"></line><line x1="1430" y1="233" x2="1425" y2="236" stroke-width="2" stroke="black"></line><line x1="1430" y1="239" x2="1440" y2="239" stroke-width="2" stroke="black"></line><line x1="1430" y1="233" x2="1440" y2="233" stroke-width="2" stroke="black"></line><line x1="1440" y1="239" x2="1440" y2="233" stroke-width="2" stroke="black"></line><line x1="1407" y1="173" x2="1413" y2="179" stroke-width="2" stroke="black"></line><line x1="1407" y1="179" x2="1413" y2="173" stroke-width="2" stroke="black"></line><line x1="1407" y1="213" x2="1413" y2="219" stroke-width="2" stroke="black"></line><line x1="1407" y1="219" x2="1413" y2="213" stroke-width="2" stroke="black"></line><line x1="1135" y1="246" x2="1140" y2="246" stroke-width="2" stroke="black"></line><line x1="1120" y1="246" x2="1125" y2="249" stroke-width="2" stroke="black"></line><line x1="1120" y1="246" x2="1125" y2="243" stroke-width="2" stroke="black"></line><line x1="1125" y1="249" x2="1135" y2="249" stroke-width="2" stroke="black"></line><line x1="1125" y1="243" x2="1135" y2="243" stroke-width="2" stroke="black"></line><line x1="1135" y1="249" x2="1135" y2="243" stroke-width="2" stroke="black"></line><line x1="1135" y1="326" x2="1140" y2="326" stroke-width="2" stroke="black"></line><line x1="1130" y1="329" x2="1135" y2="326" stroke-width="2" stroke="black"></line><line x1="1130" y1="323" x2="1135" y2="326" stroke-width="2" stroke="black"></line><line x1="1130" y1="329" x2="1120" y2="329" stroke-width="2" stroke="black"></line><line x1="1130" y1="323" x2="1120" y2="323" stroke-width="2" stroke="black"></line><line x1="1120" y1="329" x2="1120" y2="323" stroke-width="2" stroke="black"></line><line x1="975" y1="326" x2="970" y2="326" stroke-width="2" stroke="black"></line><line x1="980" y1="329" x2="975" y2="326" stroke-width="2" stroke="black"></line><line x1="980" y1="323" x2="975" y2="326" stroke-width="2" stroke="black"></line><line x1="980" y1="329" x2="990" y2="329" stroke-width="2" stroke="black"></line><line x1="980" y1="323" x2="990" y2="323" stroke-width="2" stroke="black"></line><line x1="990" y1="329" x2="990" y2="323" stroke-width="2" stroke="black"></line><rect width="211" height="282" x="1170" y="55" style="stroke: #000; stroke-width: 1; fill: none;"></rect><text x="1359" y="10" font-size="10" font-family="sans serif" text-anchor="start" alignment-baseline="hanging"></text><text x="1359" y="230" font-size="10" font-family="sans serif" text-anchor="start" alignment-baseline="hanging"></text><text x="1560" y="130" font-size="10" font-family="sans serif" text-anchor="end" alignment-baseline="hanging"></text><text x="1560" y="230" font-size="10" font-family="sans serif" text-anchor="end" alignment-baseline="hanging"></text><text x="1560" y="50" font-size="10" font-family="sans serif" text-anchor="end" alignment-baseline="hanging"></text><text x="1560" y="190" font-size="10" font-family="sans serif" text-anchor="end" alignment-baseline="hanging"></text><text x="1359" y="90" font-size="10" font-family="sans serif" text-anchor="start" alignment-baseline="hanging"></text><text x="1359" y="170" font-size="10" font-family="sans serif" text-anchor="start" alignment-baseline="hanging"></text><text x="1359" y="190" font-size="10" font-family="sans serif" text-anchor="start" alignment-baseline="hanging"></text><text x="1494" y="264" font-size="10" font-family="sans serif" text-anchor="start" alignment-baseline="alphabetic" transform="rotate(270 1494 264)"></text><text x="1359" y="110" font-size="10" font-family="sans serif" text-anchor="start" alignment-baseline="hanging"></text><text x="1359" y="130" font-size="10" font-family="sans serif" text-anchor="start" alignment-baseline="hanging"></text><text x="1560" y="210" font-size="10" font-family="sans serif" text-anchor="end" alignment-baseline="hanging"></text><text x="1560" y="110" font-size="10" font-family="sans serif" text-anchor="end" alignment-baseline="hanging"></text><text x="1359" y="210" font-size="10" font-family="sans serif" text-anchor="start" alignment-baseline="hanging"></text><text x="1560" y="90" font-size="10" font-family="sans serif" text-anchor="end" alignment-baseline="hanging"></text><text x="1560" y="10" font-size="10" font-family="sans serif" text-anchor="end" alignment-baseline="hanging"></text><text x="1359" y="70" font-size="10" font-family="sans serif" text-anchor="start" alignment-baseline="hanging"></text><text x="1560" y="170" font-size="10" font-family="sans serif" text-anchor="end" alignment-baseline="hanging"></text><text x="1454" y="264" font-size="10" font-family="sans serif" text-anchor="start" alignment-baseline="alphabetic" transform="rotate(270 1454 264)"></text><text x="1359" y="50" font-size="10" font-family="sans serif" text-anchor="start" alignment-baseline="hanging"></text><text x="1359" y="30" font-size="10" font-family="sans serif" text-anchor="start" alignment-baseline="hanging"></text><text x="1434" y="254" font-size="10" font-family="sans serif" text-anchor="start" alignment-baseline="alphabetic" transform="rotate(270 1434 254)"></text><text x="1514" y="264" font-size="10" font-family="sans serif" text-anchor="start" alignment-baseline="alphabetic" transform="rotate(270 1514 264)"></text><text x="1560" y="70" font-size="10" font-family="sans serif" text-anchor="end" alignment-baseline="hanging"></text><text x="1359" y="150" font-size="10" font-family="sans serif" text-anchor="start" alignment-baseline="hanging"></text><text x="1560" y="30" font-size="10" font-family="sans serif" text-anchor="end" alignment-baseline="hanging"></text><text x="1474" y="264" font-size="10" font-family="sans serif" text-anchor="start" alignment-baseline="alphabetic" transform="rotate(270 1474 264)"></text><text x="1560" y="150" font-size="10" font-family="sans serif" text-anchor="end" alignment-baseline="hanging"></text><line x1="1390" y1="316" x2="1381" y2="316" stroke-width="2" stroke="black"></line><text x="1376" y="316" font-size="10" font-family="sans-serif" text-anchor="end" alignment-baseline="middle">GND</text><line x1="1160" y1="216" x2="1170" y2="216" stroke-width="2" stroke="black"></line><text x="1175" y="216" font-size="10" font-family="sans-serif" text-anchor="start" alignment-baseline="middle">0/RX1/TOUCH</text><line x1="1160" y1="226" x2="1170" y2="226" stroke-width="2" stroke="black"></line><text x="1175" y="226" font-size="10" font-family="sans-serif" text-anchor="start" alignment-baseline="middle">1/TX1/TOUCH</text><line x1="1390" y1="86" x2="1380" y2="86" stroke-width="2" stroke="black"></line><text x="1375" y="86" font-size="10" font-family="sans-serif" text-anchor="end" alignment-baseline="middle">2/CS</text><line x1="1390" y1="96" x2="1380" y2="96" stroke-width="2" stroke="black"></line><text x="1375" y="96" font-size="10" font-family="sans-serif" text-anchor="end" alignment-baseline="middle">3/TX/PWM</text><line x1="1390" y1="106" x2="1380" y2="106" stroke-width="2" stroke="black"></line><text x="1375" y="106" font-size="10" font-family="sans-serif" text-anchor="end" alignment-baseline="middle">4/RX/PWM</text><line x1="1390" y1="116" x2="1380" y2="116" stroke-width="2" stroke="black"></line><text x="1375" y="116" font-size="10" font-family="sans-serif" text-anchor="end" alignment-baseline="middle">5/TX1/PWM</text><line x1="1390" y1="126" x2="1380" y2="126" stroke-width="2" stroke="black"></line><text x="1375" y="126" font-size="10" font-family="sans-serif" text-anchor="end" alignment-baseline="middle">6/CS/PWM</text><line x1="1160" y1="276" x2="1170" y2="276" stroke-width="2" stroke="black"></line><text x="1175" y="276" font-size="10" font-family="sans-serif" text-anchor="start" alignment-baseline="middle">7/RX3/DOUT</text><line x1="1160" y1="286" x2="1170" y2="286" stroke-width="2" stroke="black"></line><text x="1175" y="286" font-size="10" font-family="sans-serif" text-anchor="start" alignment-baseline="middle">8/TX3/DIN</text><line x1="1160" y1="246" x2="1170" y2="246" stroke-width="2" stroke="black"></line><text x="1175" y="246" font-size="10" font-family="sans-serif" text-anchor="start" alignment-baseline="middle">9/RX2/CS/PWM</text><line x1="1160" y1="256" x2="1170" y2="256" stroke-width="2" stroke="black"></line><text x="1175" y="256" font-size="10" font-family="sans-serif" text-anchor="start" alignment-baseline="middle">10/TX2/CS/PWM</text><line x1="1160" y1="316" x2="1170" y2="316" stroke-width="2" stroke="black"></line><text x="1175" y="316" font-size="10" font-family="sans-serif" text-anchor="start" alignment-baseline="middle">11/DOUT</text><line x1="1160" y1="326" x2="1170" y2="326" stroke-width="2" stroke="black"></line><text x="1175" y="326" font-size="10" font-family="sans-serif" text-anchor="start" alignment-baseline="middle">12/DIN</text><line x1="1390" y1="66" x2="1380" y2="66" stroke-width="2" stroke="black"></line><text x="1375" y="66" font-size="10" font-family="sans-serif" text-anchor="end" alignment-baseline="middle">13/LED/SCK</text><line x1="1390" y1="276" x2="1381" y2="276" stroke-width="2" stroke="black"></line><text x="1376" y="276" font-size="10" font-family="sans-serif" text-anchor="end" alignment-baseline="middle">14/A0/SCK</text><line x1="1390" y1="266" x2="1381" y2="266" stroke-width="2" stroke="black"></line><text x="1376" y="266" font-size="10" font-family="sans-serif" text-anchor="end" alignment-baseline="middle">15/A1/CS/TOUCH</text><line x1="1390" y1="256" x2="1381" y2="256" stroke-width="2" stroke="black"></line><text x="1376" y="256" font-size="10" font-family="sans-serif" text-anchor="end" alignment-baseline="middle">16/A2/SCL0/TOUCH</text><line x1="1390" y1="246" x2="1381" y2="246" stroke-width="2" stroke="black"></line><text x="1376" y="246" font-size="10" font-family="sans-serif" text-anchor="end" alignment-baseline="middle">17/A3/SDA0/TOUCH</text><line x1="1390" y1="236" x2="1381" y2="236" stroke-width="2" stroke="black"></line><text x="1376" y="236" font-size="10" font-family="sans-serif" text-anchor="end" alignment-baseline="middle">18/A4/SDA0/TOUCH</text><line x1="1390" y1="226" x2="1381" y2="226" stroke-width="2" stroke="black"></line><text x="1376" y="226" font-size="10" font-family="sans-serif" text-anchor="end" alignment-baseline="middle">19/A5/SCL0/TOUCH</text><line x1="1390" y1="216" x2="1381" y2="216" stroke-width="2" stroke="black"></line><text x="1376" y="216" font-size="10" font-family="sans-serif" text-anchor="end" alignment-baseline="middle">20/A6/CS/PWM</text><line x1="1390" y1="206" x2="1381" y2="206" stroke-width="2" stroke="black"></line><text x="1376" y="206" font-size="10" font-family="sans-serif" text-anchor="end" alignment-baseline="middle">21/A7/RX1/CS/PWM</text><line x1="1390" y1="196" x2="1381" y2="196" stroke-width="2" stroke="black"></line><text x="1376" y="196" font-size="10" font-family="sans-serif" text-anchor="end" alignment-baseline="middle">22/A8/CS/PWM/TOUCH</text><line x1="1390" y1="186" x2="1381" y2="186" stroke-width="2" stroke="black"></line><text x="1376" y="186" font-size="10" font-family="sans-serif" text-anchor="end" alignment-baseline="middle">23/A9/CS/PWM/TOUCH</text><line x1="1160" y1="126" x2="1169" y2="126" stroke-width="2" stroke="black"></line><text x="1174" y="126" font-size="10" font-family="sans-serif" text-anchor="start" alignment-baseline="middle">3.3V</text><line x1="1390" y1="306" x2="1381" y2="306" stroke-width="2" stroke="black"></line><text x="1376" y="306" font-size="10" font-family="sans-serif" text-anchor="end" alignment-baseline="middle">GND</text><line x1="1160" y1="86" x2="1169" y2="86" stroke-width="2" stroke="black"></line><text x="1174" y="86" font-size="10" font-family="sans-serif" text-anchor="start" alignment-baseline="middle">VIN</text><line x1="1160" y1="66" x2="1169" y2="66" stroke-width="2" stroke="black"></line><text x="1174" y="66" font-size="10" font-family="sans-serif" text-anchor="start" alignment-baseline="middle">17-5V</text><line x1="1160" y1="136" x2="1169" y2="136" stroke-width="2" stroke="black"></line><text x="1174" y="136" font-size="10" font-family="sans-serif" text-anchor="start" alignment-baseline="middle">3.3V</text><line x1="1390" y1="326" x2="1381" y2="326" stroke-width="2" stroke="black"></line><text x="1376" y="326" font-size="10" font-family="sans-serif" text-anchor="end" alignment-baseline="middle">GND</text><line x1="1160" y1="186" x2="1169" y2="186" stroke-width="2" stroke="black"></line><text x="1174" y="186" font-size="10" font-family="sans-serif" text-anchor="start" alignment-baseline="middle">PROG</text><line x1="1390" y1="156" x2="1381" y2="156" stroke-width="2" stroke="black"></line><text x="1376" y="156" font-size="10" font-family="sans-serif" text-anchor="end" alignment-baseline="middle">26/A14/DAC</text><line x1="1390" y1="166" x2="1381" y2="166" stroke-width="2" stroke="black"></line><text x="1376" y="166" font-size="10" font-family="sans-serif" text-anchor="end" alignment-baseline="middle">25</text><line x1="1390" y1="176" x2="1381" y2="176" stroke-width="2" stroke="black"></line><text x="1376" y="176" font-size="10" font-family="sans-serif" text-anchor="end" alignment-baseline="middle">24</text><line x1="1160" y1="166" x2="1169" y2="166" stroke-width="2" stroke="black"></line><text x="1174" y="166" font-size="10" font-family="sans-serif" text-anchor="start" alignment-baseline="middle">AREF</text><line x1="1160" y1="106" x2="1169" y2="106" stroke-width="2" stroke="black"></line><text x="1174" y="106" font-size="10" font-family="sans-serif" text-anchor="start" alignment-baseline="middle">VUSB</text><line x1="1137" y1="103" x2="1143" y2="109" stroke-width="2" stroke="black"></line><line x1="1137" y1="109" x2="1143" y2="103" stroke-width="2" stroke="black"></line><line x1="1137" y1="163" x2="1143" y2="169" stroke-width="2" stroke="black"></line><line x1="1137" y1="169" x2="1143" y2="163" stroke-width="2" stroke="black"></line><line x1="750" y1="166" x2="740" y2="166" stroke-width="2" stroke="black"></line><circle cx="737" cy="166" r="3" style="stroke: #000; stroke-width: 1; fill: none;"></circle><circle cx="723" cy="166" r="3" style="stroke: #000; stroke-width: 1; fill: none;"></circle><line x1="720" y1="166" x2="710" y2="166" stroke-width="2" stroke="black"></line><line x1="734" y1="166" x2="724" y2="156" stroke-width="2" stroke="black"></line><line x1="1407" y1="183" x2="1413" y2="189" stroke-width="2" stroke="black"></line><line x1="1407" y1="189" x2="1413" y2="183" stroke-width="2" stroke="black"></line><line x1="290" y1="286" x2="310" y2="286" stroke-width="2" stroke="black"></line><line x1="290" y1="306" x2="310" y2="306" stroke-width="2" stroke="black"></line><line x1="290" y1="286" x2="300" y2="306" stroke-width="2" stroke="black"></line><line x1="310" y1="286" x2="300" y2="306" stroke-width="2" stroke="black"></line><line x1="290" y1="296" x2="280" y2="306" stroke-width="2" stroke="black"></line><line x1="280" y1="306" x2="280" y2="301" stroke-width="2" stroke="black"></line><line x1="280" y1="306" x2="285" y2="306" stroke-width="2" stroke="black"></line><line x1="290" y1="306" x2="280" y2="316" stroke-width="2" stroke="black"></line><line x1="280" y1="316" x2="280" y2="311" stroke-width="2" stroke="black"></line><line x1="280" y1="316" x2="285" y2="316" stroke-width="2" stroke="black"></line><line x1="300" y1="276" x2="300" y2="286" stroke-width="2" stroke="black"></line><line x1="300" y1="306" x2="300" y2="316" stroke-width="2" stroke="black"></line><line x1="1407" y1="63" x2="1413" y2="69" stroke-width="2" stroke="black"></line><line x1="1407" y1="69" x2="1413" y2="63" stroke-width="2" stroke="black"></line><circle cx="40" cy="226" r="20" style="stroke: #000; stroke-width: 1; fill: none;"></circle><line x1="70" y1="226" x2="60" y2="226" stroke-width="2" stroke="black"></line><line x1="880" y1="86" x2="890" y2="86" stroke-width="2" stroke="black"></line><circle cx="893" cy="86" r="3" style="stroke: #000; stroke-width: 1; fill: none;"></circle><circle cx="907" cy="86" r="3" style="stroke: #000; stroke-width: 1; fill: none;"></circle><line x1="910" y1="86" x2="920" y2="86" stroke-width="2" stroke="black"></line><line x1="896" y1="86" x2="906" y2="76" stroke-width="2" stroke="black"></line><line x1="975" y1="246" x2="970" y2="246" stroke-width="2" stroke="black"></line><line x1="980" y1="249" x2="975" y2="246" stroke-width="2" stroke="black"></line><line x1="980" y1="243" x2="975" y2="246" stroke-width="2" stroke="black"></line><line x1="980" y1="249" x2="990" y2="249" stroke-width="2" stroke="black"></line><line x1="980" y1="243" x2="990" y2="243" stroke-width="2" stroke="black"></line><line x1="990" y1="249" x2="990" y2="243" stroke-width="2" stroke="black"></line><line x1="880" y1="166" x2="890" y2="166" stroke-width="2" stroke="black"></line><circle cx="893" cy="166" r="3" style="stroke: #000; stroke-width: 1; fill: none;"></circle><circle cx="907" cy="166" r="3" style="stroke: #000; stroke-width: 1; fill: none;"></circle><line x1="910" y1="166" x2="920" y2="166" stroke-width="2" stroke="black"></line><line x1="896" y1="166" x2="906" y2="156" stroke-width="2" stroke="black"></line><line x1="1425" y1="206" x2="1420" y2="206" stroke-width="2" stroke="black"></line><line x1="1430" y1="209" x2="1425" y2="206" stroke-width="2" stroke="black"></line><line x1="1430" y1="203" x2="1425" y2="206" stroke-width="2" stroke="black"></line><line x1="1430" y1="209" x2="1440" y2="209" stroke-width="2" stroke="black"></line><line x1="1430" y1="203" x2="1440" y2="203" stroke-width="2" stroke="black"></line><line x1="1440" y1="209" x2="1440" y2="203" stroke-width="2" stroke="black"></line><circle cx="40" cy="326" r="20" style="stroke: #000; stroke-width: 1; fill: none;"></circle><line x1="70" y1="326" x2="60" y2="326" stroke-width="2" stroke="black"></line><line x1="880" y1="246" x2="890" y2="246" stroke-width="2" stroke="black"></line><circle cx="893" cy="246" r="3" style="stroke: #000; stroke-width: 1; fill: none;"></circle><circle cx="907" cy="246" r="3" style="stroke: #000; stroke-width: 1; fill: none;"></circle><line x1="910" y1="246" x2="920" y2="246" stroke-width="2" stroke="black"></line><line x1="896" y1="246" x2="906" y2="236" stroke-width="2" stroke="black"></line><line x1="1407" y1="163" x2="1413" y2="169" stroke-width="2" stroke="black"></line><line x1="1407" y1="169" x2="1413" y2="163" stroke-width="2" stroke="black"></line><line x1="100" y1="376" x2="100" y2="386" stroke-width="2" stroke="black"></line><line x1="90" y1="386" x2="110" y2="386" stroke-width="2" stroke="black"></line><line x1="93" y1="391" x2="107" y2="391" stroke-width="2" stroke="black"></line><line x1="96" y1="396" x2="104" y2="396" stroke-width="2" stroke="black"></line><line x1="1425" y1="126" x2="1420" y2="126" stroke-width="2" stroke="black"></line><line x1="1430" y1="129" x2="1425" y2="126" stroke-width="2" stroke="black"></line><line x1="1430" y1="123" x2="1425" y2="126" stroke-width="2" stroke="black"></line><line x1="1430" y1="129" x2="1440" y2="129" stroke-width="2" stroke="black"></line><line x1="1430" y1="123" x2="1440" y2="123" stroke-width="2" stroke="black"></line><line x1="1440" y1="129" x2="1440" y2="123" stroke-width="2" stroke="black"></line><line x1="1407" y1="103" x2="1413" y2="109" stroke-width="2" stroke="black"></line><line x1="1407" y1="109" x2="1413" y2="103" stroke-width="2" stroke="black"></line><line x1="1410" y1="376" x2="1410" y2="386" stroke-width="2" stroke="black"></line><line x1="1400" y1="386" x2="1420" y2="386" stroke-width="2" stroke="black"></line><line x1="1403" y1="391" x2="1417" y2="391" stroke-width="2" stroke="black"></line><line x1="1406" y1="396" x2="1414" y2="396" stroke-width="2" stroke="black"></line><circle cx="820" cy="246" r="2" style="stroke: #000; stroke-width: 1; fill: none;"></circle><circle cx="100" cy="226" r="2" style="stroke: #000; stroke-width: 1; fill: none;"></circle><circle cx="100" cy="326" r="2" style="stroke: #000; stroke-width: 1; fill: none;"></circle><circle cx="820" cy="166" r="2" style="stroke: #000; stroke-width: 1; fill: none;"></circle><circle cx="1410" cy="326" r="2" style="stroke: #000; stroke-width: 1; fill: none;"></circle><circle cx="820" cy="86" r="2" style="stroke: #000; stroke-width: 1; fill: none;"></circle><circle cx="820" cy="326" r="2" style="stroke: #000; stroke-width: 1; fill: none;"></circle><circle cx="1410" cy="316" r="2" style="stroke: #000; stroke-width: 1; fill: none;"></circle><line x1="1140" y1="246" x2="1160" y2="246" stroke-width="2" stroke="black"></line><line x1="1140" y1="166" x2="1160" y2="166" stroke-width="2" stroke="black"></line><line x1="820" y1="246" x2="750" y2="246" stroke-width="2" stroke="black"></line><line x1="100" y1="126" x2="100" y2="226" stroke-width="2" stroke="black"></line><line x1="100" y1="326" x2="100" y2="226" stroke-width="2" stroke="black"></line><line x1="70" y1="226" x2="100" y2="226" stroke-width="2" stroke="black"></line><line x1="1410" y1="166" x2="1390" y2="166" stroke-width="2" stroke="black"></line><line x1="1140" y1="286" x2="1160" y2="286" stroke-width="2" stroke="black"></line><line x1="820" y1="166" x2="880" y2="166" stroke-width="2" stroke="black"></line><line x1="820" y1="166" x2="820" y2="246" stroke-width="2" stroke="black"></line><line x1="1410" y1="66" x2="1390" y2="66" stroke-width="2" stroke="black"></line><line x1="710" y1="246" x2="660" y2="246" stroke-width="2" stroke="black"></line><line x1="70" y1="326" x2="100" y2="326" stroke-width="2" stroke="black"></line><line x1="400" y1="276" x2="400" y2="226" stroke-width="2" stroke="black"></line><line x1="1390" y1="256" x2="1410" y2="256" stroke-width="2" stroke="black"></line><line x1="1160" y1="326" x2="1140" y2="326" stroke-width="2" stroke="black"></line><line x1="1410" y1="246" x2="1390" y2="246" stroke-width="2" stroke="black"></line><line x1="710" y1="86" x2="660" y2="86" stroke-width="2" stroke="black"></line><line x1="1390" y1="196" x2="1410" y2="196" stroke-width="2" stroke="black"></line><line x1="1160" y1="126" x2="1140" y2="126" stroke-width="2" stroke="black"></line><line x1="970" y1="246" x2="920" y2="246" stroke-width="2" stroke="black"></line><line x1="100" y1="376" x2="100" y2="326" stroke-width="2" stroke="black"></line><line x1="880" y1="246" x2="820" y2="246" stroke-width="2" stroke="black"></line><line x1="1390" y1="276" x2="1420" y2="276" stroke-width="2" stroke="black"></line><line x1="430" y1="116" x2="400" y2="116" stroke-width="2" stroke="black"></line><line x1="1160" y1="186" x2="1140" y2="186" stroke-width="2" stroke="black"></line><line x1="70" y1="126" x2="100" y2="126" stroke-width="2" stroke="black"></line><line x1="1390" y1="236" x2="1420" y2="236" stroke-width="2" stroke="black"></line><line x1="1160" y1="106" x2="1140" y2="106" stroke-width="2" stroke="black"></line><line x1="970" y1="326" x2="920" y2="326" stroke-width="2" stroke="black"></line><line x1="1410" y1="226" x2="1390" y2="226" stroke-width="2" stroke="black"></line><line x1="820" y1="86" x2="880" y2="86" stroke-width="2" stroke="black"></line><line x1="820" y1="86" x2="820" y2="166" stroke-width="2" stroke="black"></line><line x1="1390" y1="266" x2="1420" y2="266" stroke-width="2" stroke="black"></line><line x1="750" y1="86" x2="820" y2="86" stroke-width="2" stroke="black"></line><line x1="400" y1="346" x2="400" y2="316" stroke-width="2" stroke="black"></line><line x1="400" y1="346" x2="400" y2="376" stroke-width="2" stroke="black"></line><line x1="1410" y1="86" x2="1390" y2="86" stroke-width="2" stroke="black"></line><line x1="1390" y1="176" x2="1410" y2="176" stroke-width="2" stroke="black"></line><line x1="820" y1="326" x2="820" y2="376" stroke-width="2" stroke="black"></line><line x1="820" y1="326" x2="760" y2="326" stroke-width="2" stroke="black"></line><line x1="820" y1="326" x2="880" y2="326" stroke-width="2" stroke="black"></line><line x1="820" y1="326" x2="820" y2="246" stroke-width="2" stroke="black"></line><line x1="710" y1="166" x2="660" y2="166" stroke-width="2" stroke="black"></line><line x1="1160" y1="226" x2="1140" y2="226" stroke-width="2" stroke="black"></line><line x1="970" y1="166" x2="920" y2="166" stroke-width="2" stroke="black"></line><line x1="1160" y1="256" x2="1140" y2="256" stroke-width="2" stroke="black"></line><line x1="1140" y1="86" x2="1160" y2="86" stroke-width="2" stroke="black"></line><line x1="1390" y1="206" x2="1420" y2="206" stroke-width="2" stroke="black"></line><line x1="670" y1="326" x2="720" y2="326" stroke-width="2" stroke="black"></line><line x1="1410" y1="316" x2="1410" y2="326" stroke-width="2" stroke="black"></line><line x1="750" y1="166" x2="820" y2="166" stroke-width="2" stroke="black"></line><line x1="1390" y1="326" x2="1410" y2="326" stroke-width="2" stroke="black"></line><line x1="1160" y1="276" x2="1140" y2="276" stroke-width="2" stroke="black"></line><line x1="1420" y1="116" x2="1390" y2="116" stroke-width="2" stroke="black"></line><line x1="1390" y1="316" x2="1410" y2="316" stroke-width="2" stroke="black"></line><line x1="1410" y1="216" x2="1390" y2="216" stroke-width="2" stroke="black"></line><line x1="1390" y1="156" x2="1410" y2="156" stroke-width="2" stroke="black"></line><line x1="1160" y1="316" x2="1140" y2="316" stroke-width="2" stroke="black"></line><line x1="1410" y1="376" x2="1410" y2="326" stroke-width="2" stroke="black"></line><line x1="1410" y1="106" x2="1390" y2="106" stroke-width="2" stroke="black"></line><line x1="1390" y1="186" x2="1410" y2="186" stroke-width="2" stroke="black"></line><line x1="1140" y1="66" x2="1160" y2="66" stroke-width="2" stroke="black"></line><line x1="970" y1="86" x2="920" y2="86" stroke-width="2" stroke="black"></line><line x1="1410" y1="306" x2="1390" y2="306" stroke-width="2" stroke="black"></line><line x1="1410" y1="306" x2="1410" y2="316" stroke-width="2" stroke="black"></line><line x1="300" y1="226" x2="300" y2="276" stroke-width="2" stroke="black"></line><line x1="300" y1="116" x2="270" y2="116" stroke-width="2" stroke="black"></line><line x1="300" y1="116" x2="300" y2="176" stroke-width="2" stroke="black"></line><line x1="1420" y1="126" x2="1390" y2="126" stroke-width="2" stroke="black"></line><line x1="1140" y1="136" x2="1160" y2="136" stroke-width="2" stroke="black"></line><line x1="400" y1="176" x2="400" y2="116" stroke-width="2" stroke="black"></line><line x1="300" y1="346" x2="300" y2="316" stroke-width="2" stroke="black"></line><line x1="300" y1="346" x2="300" y2="376" stroke-width="2" stroke="black"></line><line x1="1140" y1="216" x2="1160" y2="216" stroke-width="2" stroke="black"></line><line x1="1410" y1="96" x2="1390" y2="96" stroke-width="2" stroke="black"></line></svg>